<?xml version="1.0" encoding="UTF-8"?> <svg xmlns="http://www.w3.org/2000/svg" id="uuid-b22fb9eb-c789-4fbf-b20d-9d081cd86122" data-name="Layer 2" width="480" height="340.15748" viewBox="0 0 480 340.15748"><g id="uuid-65f41091-3323-4c48-a85f-c797b4bbd762" data-name="uuid-b3c54bee-a0c2-471c-b048-5a53920b166b"><rect width="480" height="340.15748" style="fill: none; stroke-width: 0px;"></rect><g><rect x="9.3937" y="102.06182" width="459.2126" height="134.19919" style="fill: #1d1d1b; stroke-width: 0px;"></rect><rect x="15.68425" y="172.30669" width="445.58458" height="58.71065" style="fill: #fff; stroke-width: 0px;"></rect><polygon points="162.60976 109.39981 123.67367 167.06412 222.92306 167.06412 260.37819 109.39981 162.60976 109.39981" style="fill: #a29e60; stroke-width: 0px;"></polygon><polygon points="461.26883 109.36887 354.40536 109.39981 316.95012 167.06412 461.26883 167.03635 461.26883 109.36887" style="fill: #cc142f; stroke-width: 0px;"></polygon><polygon points="260.37819 109.39981 222.92306 167.06412 316.95012 167.06412 354.40536 109.39981 260.37819 109.39981" style="fill: #fff; stroke-width: 0px;"></polygon><g><path d="M361.94574,191.93814h-5.77121c-.34375,0-.68226.14093-1.04744.44839-.31598.30647-.53487.66947-.66094,1.05925l-1.60582,5.93128h-2.94585c-.44205.02449-.87885.22097-1.26852.52853-.34375.30636-.61075.75803-.78055,1.25879-.19648,1.0657.1698,1.6465,1.07204,1.7906l2.94913-.05445-2.09816,7.88096h7.06741l5.08992-18.84335h0Z" style="fill: #e10d1c; stroke-width: 0px;"></path><path d="M348.96205,191.93814l-5.77121.05117-1.05378.39722c-.33741.30647-.57981.66947-.7026,1.05925l-4.67883,17.33571h7.0898l5.11661-18.84335h0Z" style="fill: #e10d1c; stroke-width: 0px;"></path><path d="M380.82648,196.38517c-.33741-.81358-1.18838-1.20434-2.62549-1.20434h-11.06396c-1.43712,0-2.53157.39076-3.3142,1.20434-.72827.75606-1.31444,1.87074-1.65295,3.29933l-1.8023,6.62852c-.44314,1.42115-.46446,2.54229-.12388,3.32284.34168.81685,1.21409,1.20762,2.65447,1.20762h11.03608c1.43723,0,2.57968-.39077,3.31431-1.20762.75267-.78055,1.3421-1.9017,1.68061-3.32284l1.8023-6.62852c.4122-1.42859.46129-2.54327.09501-3.29933h0ZM373.29791,198.20355c.68544,0,.90334.41428.68544,1.22905l-1.95068,7.15595c-.19331.81466-.63218,1.20762-1.28984,1.14562h-2.97373c-.65656.062-.84987-.33095-.63207-1.14562l1.97211-7.15595c.19646-.81477.58625-1.22905,1.21941-1.22905h2.96936Z" style="fill: #e10d1c; stroke-width: 0px;"></path><path d="M401.00352,196.68957c-.44205-.98021-1.43712-1.48097-3.0003-1.50873h-12.63994c-.34692,0-.71211.11098-1.04744.44522-.31926.31073-.53704.67263-.65984,1.06351l-3.87379,14.15392h6.86885l3.1199-11.46643c.24338-.75923.63317-1.17351,1.21932-1.12113h2.85084c.65777.05554.90017.39613.70369,1.12113l-3.13916,11.46643h6.86446l2.73341-10.1275c.48589-1.64967.48589-2.9886,0-4.02642h0Z" style="fill: #e10d1c; stroke-width: 0px;"></path><path d="M423.75488,192.04813h-5.5287c-.36518,0-.70369.14093-1.06887.44522-.32243.31073-.53706.67581-.65984,1.06341l-.46129,1.62408-7.31285.05554c-1.4383,0-2.6021.45167-3.50543,1.28656-.92783.86704-1.6091,1.985-1.94969,3.35805l-1.7297,6.26552c-.36518,1.40082-.34386,2.51025.09501,3.35477.43986.89372,1.36353,1.34221,2.82634,1.34221h14.17841l5.11661-18.79535h0ZM414.27979,198.28686c.60758,0,.80723.33096.60758,1.11468l-1.9721,7.30126c-.19331.75595-.58626,1.11785-1.21943,1.11785h-2.72696c-.71003,0-.92466-.3619-.71003-1.11785l1.99987-7.30126c.14728-.78372.58615-1.11468,1.28984-1.11468h2.73122Z" style="fill: #e10d1c; stroke-width: 0px;"></path><path d="M441.90855,196.38517c-.58726-.86911-1.56101-1.25671-3.02273-1.20434h-9.86596l-1.07193.44522c-.31926.31073-.53706.67263-.66092,1.06351-.19332.95243.12386,1.42542.90332,1.51398l6.47798.05237c.71318.05554.9769.3619.78371.9802l-.26809,1.03137h-7.57983c-1.36342-.05554-2.43548.30756-3.21286,1.09018-.80504.70687-1.3912,1.87709-1.82471,3.47122l-.39295,1.45636c-.46118,1.64857-.46118,2.82208-.04592,3.52566.43888.72184,1.28669,1.08812,2.65339,1.03257h14.39631l2.73122-10.06878c.58296-2.12266.58296-3.57584,0-4.38953h0ZM430.01823,203.62772c.2883-.22425.70684-.30965,1.29299-.30965h3.04414l-.68226,2.54656-.63207,1.53858c-.24666.25202-.63645.39295-1.14574.39295h-1.87707c-1.04744.05226-1.38804-.39295-1.04744-1.26207l.50927-1.92946c.12388-.44522.27126-.75595.53817-.97692h0Z" style="fill: #e10d1c; stroke-width: 0px;"></path></g><g><path d="M41.08199,191.9296h6.05034c1.65185,0,2.81301.1521,3.484.45638.67056.30439,1.23704.84035,1.69832,1.6091.46118.76874.69188,1.63895.69188,2.61008,0,.8959-.19756,1.70466-.59206,2.42693-.39514.72239-.90705,1.25683-1.5365,1.60277.89044.32243,1.58724.87447,2.09063,1.65491.50349.78055.7554,1.73133.7554,2.85138,0,1.35818-.32243,2.50599-.96686,3.44355-.64432.93745-1.40562,1.51671-2.28436,1.73714-.6113.15274-2.02983.22906-4.25603.22906h-5.13476v-18.6213ZM44.12296,195.03881v4.271h2.01212c1.20707,0,1.9534-.02087,2.23854-.06308.52001-.08375.92619-.30429,1.21987-.66138.29357-.35666.44041-.842.44041-1.45538,0-.54559-.11961-.98874-.35873-1.32877-.23922-.34014-.52799-.55203-.86758-.63644-.33949-.08375-1.31433-.12596-2.92397-.12596h-1.76065ZM44.12296,202.41901v4.98847h2.82678c1.23966,0,2.03508-.06571,2.38692-.19703.35185-.1313.64706-.39021.88573-.77617.23857-.38607.35819-.87611.35819-1.47035,0-.61075-.12814-1.11304-.38333-1.50764-.25574-.39449-.59468-.66619-1.01748-.81466-.4228-.14837-1.28776-.22261-2.59466-.22261h-2.46214Z" style="fill: #1d1d1b; stroke: #1d1d1b; stroke-width: .88694px;"></path><path d="M56.31013,210.5509v-18.6213h6.4117c1.6395,0,2.81082.16707,3.51341.50121.7026.33424,1.28022.91296,1.73189,1.73724s.67745,1.81148.67745,2.96083c0,1.45428-.34375,2.6256-1.03147,3.51341-.68762.88781-1.66509,1.44575-2.93197,1.67372.65405.47834,1.19483,1.00097,1.62299,1.56842.42761.56812,1.01278,1.57981,1.75583,3.03508l1.84888,3.63139h-3.65336l-2.21547-4.04774c-.79762-1.46336-1.33839-2.38222-1.623-2.75593-.28504-.37371-.58669-.63153-.90486-.77356-.31817-.14202-.8291-.21298-1.53279-.21298h-.62836v7.79021h-3.04086ZM59.35099,199.78816h2.25452c1.37797,0,2.25452-.0609,2.63041-.18369.37579-.12278.68062-.36999.91449-.74152.23387-.37163.35075-.86594.35075-1.48315,0-.59151-.11688-1.06669-.35075-1.42596-.23387-.35873-.55149-.60594-.95187-.74152-.28406-.09294-1.10671-.1393-2.46751-.1393h-2.38003v4.71514Z" style="fill: #1d1d1b; stroke: #1d1d1b; stroke-width: .88694px;"></path><path d="M71.43561,210.5509v-18.6213h3.04097v18.6213h-3.04097Z" style="fill: #1d1d1b; stroke: #1d1d1b; stroke-width: .88694px;"></path><path d="M80.78846,210.5509v-15.47788h-4.4759v-3.14342h11.99277v3.14342h-4.4759v15.47788h-3.04097Z" style="fill: #1d1d1b; stroke: #1d1d1b; stroke-width: .88694px;"></path><path d="M90.19423,210.5509v-18.6213h3.04086v18.6213h-3.04086Z" style="fill: #1d1d1b; stroke: #1d1d1b; stroke-width: .88694px;"></path><path d="M95.41274,204.46907l2.97264-.34168c.33468,2.34636,1.43132,3.51931,3.28971,3.51931.92039,0,1.64431-.24031,2.17175-.72183s.79116-1.07785.79116-1.78951c0-.41799-.09228-.77355-.27651-1.06669s-.46446-.53389-.8408-.72239c-.37699-.18785-1.28929-.50602-2.73778-.95341-1.29837-.39613-2.24861-.82702-2.85138-1.29257-.60321-.4649-1.08265-1.0762-1.43821-1.83324-.35611-.75704-.53389-1.57171-.53389-2.44301,0-1.01486.22851-1.92836.68554-2.7403.45703-.81204,1.08801-1.42542,1.89305-1.83969.80515-.41438,1.79913-.62201,2.98171-.62201,1.77781,0,3.16583.48687,4.16418,1.46019.9978.97375,1.52634,2.36604,1.58505,4.17751l-3.04097.17079c-.13503-1.00152-.42597-1.70138-.87282-2.10079-.44741-.39875-1.0843-.5984-1.91077-.5984-.82636,0-1.46325.17297-1.91011.51836-.4474.34593-.67056.77562-.67056,1.28984,0,.50612.20337.93155.61075,1.27694.40673.34594,1.33467.7272,2.7825,1.14355,1.53115.45112,2.63785.92411,3.31956,1.41853.68182.49431,1.20281,1.13283,1.56263,1.91448.35983.78208.53979,1.73079.53979,2.84656,0,1.6149-.49169,2.97199-1.47506,4.07071-.98347,1.09871-2.52151,1.64814-4.61432,1.64814-3.69961,0-5.75831-2.12965-6.17685-6.3894Z" style="fill: #1d1d1b; stroke: #1d1d1b; stroke-width: .88694px;"></path><path d="M110.23667,210.5509v-18.6213h3.04097v7.34599h5.97928v-7.34599h3.04097v18.6213h-3.04097v-8.13189h-5.97928v8.13189h-3.04097Z" style="fill: #1d1d1b; stroke: #1d1d1b; stroke-width: .88694px;"></path><path d="M144.19872,210.5509h-3.3083l-1.30427-4.23678h-6.06314l-1.25354,4.23678h-3.24117l5.86404-18.6213h3.25341l6.05297,18.6213ZM138.58299,203.1707l-2.08898-6.90186-2.04153,6.90186h4.13051Z" style="fill: #1d1d1b; stroke: #1d1d1b; stroke-width: .88694px;"></path><path d="M145.75982,210.5509v-18.6213h4.55758l2.73724,12.73649,2.70509-12.73649h4.58961v18.6213h-2.83586v-14.69262l-3.00084,14.69262h-2.93371l-2.98324-14.69262v14.69262h-2.83586Z" style="fill: #1d1d1b; stroke: #1d1d1b; stroke-width: .88694px;"></path><path d="M163.37161,210.5509v-18.6213h11.20697v3.14342h-8.16611v4.13423h7.58521v3.14342h-7.58521v5.05681h8.43945v3.14342h-11.48031Z" style="fill: #1d1d1b; stroke: #1d1d1b; stroke-width: .88694px;"></path><path d="M177.44385,210.5509v-18.6213h6.41181c1.63951,0,2.81082.16707,3.5133.50121.7026.33424,1.28022.91296,1.73189,1.73724s.67745,1.81148.67745,2.96083c0,1.45428-.34374,2.6256-1.03137,3.51341-.68762.88781-1.66519,1.44575-2.93207,1.67372.65405.47834,1.19483,1.00097,1.62299,1.56842.42761.56812,1.01278,1.57981,1.75594,3.03508l1.84877,3.63139h-3.65325l-2.21558-4.04774c-.79762-1.46336-1.3384-2.38222-1.623-2.75593-.28504-.37371-.58669-.63153-.90486-.77356-.31817-.14202-.82911-.21298-1.53269-.21298h-.62847v7.79021h-3.04086ZM180.48471,199.78816h2.25462c1.37786,0,2.25452-.0609,2.6303-.18369.37591-.12278.68073-.36999.91449-.74152.23387-.37163.35075-.86594.35075-1.48315,0-.59151-.11688-1.06669-.35075-1.42596-.23376-.35873-.55138-.60594-.95187-.74152-.28396-.09294-1.10671-.1393-2.46751-.1393h-2.38003v4.71514Z" style="fill: #1d1d1b; stroke: #1d1d1b; stroke-width: .88694px;"></path><path d="M192.56944,210.5509v-18.6213h3.04086v18.6213h-3.04086Z" style="fill: #1d1d1b; stroke: #1d1d1b; stroke-width: .88694px;"></path><path d="M208.17491,203.68326l2.97264,1.16171c-.46074,2.08526-1.22741,3.60832-2.29934,4.57037-1.07204.96205-2.39129,1.44313-3.95765,1.44313-1.96838,0-3.56404-.76557-4.78664-2.29672-1.40727-1.76764-2.11096-4.15303-2.11096-7.1565,0-3.17228.70795-5.65477,2.12376-7.44855,1.23166-1.55628,2.88658-2.33465,4.9644-2.33465,1.69242,0,3.10821.58243,4.2475,1.7473.81259.82757,1.40781,2.05596,1.7847,3.6854l-2.97253.88835c-.1944-1.00261-.57981-1.77146-1.15689-2.30633-.57762-.53498-1.25835-.80297-2.04207-.80297-1.12113,0-2.03562.49059-2.74358,1.47189-.70784.98129-1.06187,2.60046-1.06187,4.85825,0,2.34308.34222,4.00925,1.02667,4.99853.68445.98982,1.5738,1.48423,2.6677,1.48423.80133,0,1.4943-.31608,2.07892-.94925s1.00633-1.63797,1.26524-3.01419Z" style="fill: #1d1d1b; stroke: #1d1d1b; stroke-width: .88694px;"></path><path d="M227.40006,210.5509h-3.30786l-1.30471-4.23678h-6.06258l-1.25355,4.23678h-3.24117l5.86404-18.6213h3.25342l6.05241,18.6213ZM221.78487,203.1707l-2.08909-6.90186-2.04142,6.90186h4.13051Z" style="fill: #1d1d1b; stroke: #1d1d1b; stroke-width: .88694px;"></path><path d="M229.06361,210.5509v-18.6213h2.96192l6.195,12.43538v-12.43538h2.83597v18.6213h-3.06229l-6.09463-12.14333v12.14333h-2.83597Z" style="fill: #1d1d1b; stroke: #1d1d1b; stroke-width: .88694px;"></path><path d="M250.09161,210.5509v-18.6213h6.41181c1.63895,0,2.81027.16707,3.51287.50121.7026.33424,1.28022.91296,1.73189,1.73724s.67799,1.81148.67799,2.96083c0,1.45428-.34386,2.6256-1.03148,3.51341s-1.66562,1.44575-2.93196,1.67372c.65339.47834,1.19483,1.00097,1.62299,1.56842.42707.56812,1.01213,1.57981,1.75529,3.03508l1.84933,3.63139h-3.65381l-2.21548-4.04774c-.79761-1.46336-1.33795-2.38222-1.62299-2.75593s-.58615-.63153-.90443-.77356c-.31817-.14202-.82953-.21298-1.53321-.21298h-.62782v7.79021h-3.04097ZM253.13258,199.78816h2.25397c1.37842,0,2.25506-.0609,2.63096-.18369.37579-.12278.68007-.36999.91394-.74152.23387-.37163.3513-.86594.3513-1.48315,0-.59151-.11743-1.06669-.3513-1.42596-.23387-.35873-.55095-.60594-.95134-.74152-.28406-.09294-1.10725-.1393-2.46761-.1393h-2.37992v4.71514Z" style="fill: #1d1d1b; stroke: #1d1d1b; stroke-width: .88694px;"></path><path d="M278.95259,210.5509h-3.30897l-1.30362-4.23678h-6.06368l-1.25354,4.23678h-3.24061l5.86402-18.6213h3.25341l6.05298,18.6213ZM273.3363,203.1707l-2.08854-6.90186-2.04141,6.90186h4.12995Z" style="fill: #1d1d1b; stroke: #1d1d1b; stroke-width: .88694px;"></path><path d="M290.18306,203.68326l2.97264,1.16171c-.46129,2.08526-1.22796,3.60832-2.3,4.57037-1.07193.96205-2.39064,1.44313-3.95699,1.44313-1.96893,0-3.56415-.76557-4.78664-2.29672-1.40727-1.76764-2.11094-4.15303-2.11094-7.1565,0-3.17228.70794-5.65477,2.12374-7.44855,1.23113-1.55628,2.88606-2.33465,4.96387-2.33465,1.69242,0,3.10821.58243,4.2475,1.7473.81259.82757,1.40836,2.05596,1.78526,3.6854l-2.97254.88835c-.1944-1.00261-.5798-1.77146-1.15743-2.30633-.57773-.53498-1.25781-.80297-2.04153-.80297-1.12113,0-2.03617.49059-2.74412,1.47189s-1.06131,2.60046-1.06131,4.85825c0,2.34308.34166,4.00925,1.02611,4.99853.68445.98982,1.57379,1.48423,2.66824,1.48423.80078,0,1.49375-.31608,2.07892-.94925.58407-.63317,1.00578-1.63797,1.26524-3.01419Z" style="fill: #1d1d1b; stroke: #1d1d1b; stroke-width: .88694px;"></path><path d="M295.67339,210.5509v-18.6213h3.04085v18.6213h-3.04085Z" style="fill: #1d1d1b; stroke: #1d1d1b; stroke-width: .88694px;"></path><path d="M301.71137,210.5509v-18.6213h2.96192l6.195,12.43538v-12.43538h2.83597v18.6213h-3.06229l-6.09463-12.14333v12.14333h-2.83597Z" style="fill: #1d1d1b; stroke: #1d1d1b; stroke-width: .88694px;"></path><path d="M323.90971,203.71738v-3.14342h6.56018v7.40579c-.66094.78646-1.59839,1.46281-2.81246,2.02928-1.21298.56592-2.4312.84943-3.65271.84943-1.49058,0-2.80393-.36999-3.94212-1.10998-1.13819-.73988-2.04043-1.84822-2.70562-3.32437-.66522-1.47615-.99836-3.21285-.99836-5.20955,0-2.04678.33632-3.79737,1.01016-5.25274.67374-1.45472,1.5482-2.54174,2.62342-3.26085s2.36177-1.07893,3.85979-1.07893c1.79816,0,3.23953.46609,4.32327,1.39764,1.08385.93221,1.78,2.2999,2.08964,4.10339l-2.97264.68335c-.22742-.96107-.64277-1.69667-1.24818-2.20705-.6054-.51038-1.32712-.76557-2.16748-.76557-1.30263,0-2.35751.50984-3.16474,1.52896-.80614,1.01923-1.20981,2.57334-1.20981,4.66177,0,2.24118.43669,3.94529,1.31116,5.11235.74742,1.00687,1.75966,1.50982,3.03671,1.50982.59687,0,1.21615-.14104,1.85894-.42345.64279-.28187,1.21616-.66728,1.72008-1.15579v-2.35008h-3.51921Z" style="fill: #1d1d1b; stroke: #1d1d1b; stroke-width: .88694px;"></path></g></g></g></svg> 