<svg xmlns="http://www.w3.org/2000/svg" version="1.0" width="800" height="600">
    <path
        d="M391.333 304.599c.277.043.598.076.961.097.363.022.891.033 1.583.033 2.285 0 4.007-.498 5.166-1.494 1.16-.995 1.74-2.489 1.74-4.48v-9.546c0-2.164-.554-3.766-1.662-4.805-1.107-1.039-2.82-1.558-5.14-1.558-.692 0-1.228.01-1.61.032-.38.022-.726.054-1.038.098v21.623zm0 16.039v25.064c.381.087.805.152 1.272.195.468.043 1.134.065 2 .065 2.353 0 4.092-.574 5.217-1.72 1.125-1.148 1.687-2.912 1.687-5.293v-12.273c0-2.034-.597-3.603-1.79-4.707-1.195-1.104-2.934-1.656-5.219-1.656-.796 0-1.419.022-1.869.065-.45.043-.882.13-1.298.26zm-14.485 41.038v-94.804h20.456c5.538 0 9.882 1.537 13.031 4.61 3.15 3.074 4.725 7.295 4.725 12.662v13.831c0 4.113-.917 7.403-2.752 9.87-1.834 2.468-4.395 3.832-7.683 4.091 3.6.347 6.411 1.862 8.436 4.546 2.025 2.684 3.037 6.234 3.037 10.649v15.78c0 6.58-1.488 11.352-4.465 14.317-2.976 2.965-7.753 4.448-14.329 4.448h-20.456zm63.288-57.077c.277.043.589.076.935.097.346.022.848.033 1.506.033 2.215 0 3.85-.52 4.906-1.559 1.055-1.039 1.583-2.684 1.583-4.935v-8.506c0-2.165-.545-3.766-1.635-4.805-1.09-1.04-2.743-1.559-4.958-1.559-.623 0-1.1.011-1.428.033-.329.021-.632.054-.909.097V304.6zm9.969 52.662v-29.22c0-2.512-.563-4.384-1.688-5.618-1.125-1.233-2.864-1.85-5.217-1.85-.312 0-.684.021-1.117.065-.432.043-1.081.13-1.947.26v40.778h-14.485v-94.804h20.456c5.538 0 9.882 1.537 13.031 4.61 3.15 3.074 4.725 7.295 4.725 12.662v13.831c0 4.113-.917 7.403-2.752 9.87-1.834 2.468-4.395 3.832-7.684 4.091 3.912.39 6.802 1.96 8.67 4.708 1.87 2.749 2.804 6.85 2.804 12.305v28.312a9.09 9.09 0 00.701 2.305c.329.714.77 1.418 1.324 2.11H452.13c-.693-.476-1.203-1.06-1.532-1.753-.329-.693-.493-1.58-.493-2.662zm19.157 4.415l12.98-94.804h20.3l12.98 94.804h-15.628l-1.713-16.623h-11.578l-1.713 16.623h-15.628zm18.95-33.896h8.255l-4.05-44.675-4.204 44.675zM535.25 304.6c.277.043.597.076.96.097.364.022.892.033 1.584.033 2.285 0 4.007-.498 5.166-1.494 1.16-.995 1.74-2.489 1.74-4.48v-9.546c0-2.164-.554-3.766-1.662-4.805-1.108-1.039-2.821-1.558-5.14-1.558-.692 0-1.229.01-1.61.032-.38.022-.726.054-1.038.098v21.623zm0 16.039v25.064c.381.087.805.152 1.272.195a23.19 23.19 0 002 .065c2.353 0 4.092-.574 5.217-1.72 1.125-1.148 1.687-2.912 1.687-5.293v-12.273c0-2.034-.597-3.603-1.791-4.707-1.194-1.104-2.933-1.656-5.218-1.656-.796 0-1.419.022-1.869.065-.45.043-.882.13-1.298.26zm-14.485 41.038v-94.804h20.456c5.538 0 9.882 1.537 13.031 4.61 3.15 3.074 4.725 7.295 4.725 12.662v13.831c0 4.113-.917 7.403-2.752 9.87-1.834 2.468-4.396 3.832-7.684 4.091 3.6.347 6.412 1.862 8.437 4.546 2.025 2.684 3.037 6.234 3.037 10.649v15.78c0 6.58-1.488 11.352-4.465 14.317-2.976 2.965-7.753 4.448-14.33 4.448h-20.455zm48.803 0v-94.804h14.693v38.051h10.435v-38.051h14.745v94.804h-14.745v-39.48h-10.435v39.48h-14.693zm45.065 0l12.98-94.804h20.3l12.979 94.804h-15.627l-1.714-16.623h-11.577l-1.714 16.623h-15.627zm18.95-33.896h8.255l-4.05-44.675-4.205 44.675zm70.972 33.896h-14.797l-10.331-80.584.57 80.584h-13.861v-94.804h23.622l2.233 21.233c.138 1.256.329 3.074.57 5.455 2.32 21.428 3.86 36.904 4.622 46.428.588-6.97 1.323-14.88 2.206-23.733a3361.3 3361.3 0 012.933-28.15l2.233-21.233h23.57v94.804h-13.81l.52-80.584-10.28 80.584z"
        style="text-align:start;line-height:100%;-inkscape-font-specification:Folio BdCn BT" font-size="15.643"
        font-weight="400" fill="currentColor" font-family="Folio BdCn BT" />
    <path
        d="M170.326 170.932l-38.784-49.379c18.13-12.39 40.107-19.617 63.892-19.617h237.55a112.968 112.968 0 01113.31 113.312v40.62h15.204v-40.62c0-71.01-57.506-128.515-128.515-128.515h-237.55c-71.009 0-128.276 57.505-128.276 128.515v171.035c0 71.01 57.267 128.277 128.277 128.277h237.55c71.008 0 128.514-57.267 128.514-128.277V367.28h-15.204v19.004c0 62.85-50.461 113.074-113.31 113.074h-179.35c29.778-11.97 53.197-33.317 68.176-62h122.338c26.391 0 47.985-21.594 47.985-47.985v-22.093H476.93v22.093c0 18.231-14.55 32.781-32.782 32.781h-115.45c.218-.56.503-1.097.714-1.662 26.44-70.91-9.62-149.821-80.53-176.262-28.845-10.756-59.026-11.162-86.468-3.088v-29.22c0-18.231 14.55-32.781 32.782-32.781h248.952c18.232 0 32.782 14.55 32.782 32.782v43.947h15.203v-43.947c0-26.391-21.594-47.985-47.985-47.985H195.196a47.593 47.593 0 00-24.87 6.995zm39.123 161.903c23.977 0 43.472 19.494 43.472 43.471 0 23.978-19.495 43.472-43.472 43.472-23.978 0-43.472-19.494-43.472-43.472 0-23.977 19.494-43.471 43.472-43.471z"
        opacity=".99" fill="currentColor" fill-rule="evenodd" />
</svg>