<svg xmlns="http://www.w3.org/2000/svg" width="1793.666" height="518.815">
    <path
        d="M59.226 511.17c-25.333-9.034-38.392-21.092-49.836-46.013-12.052-26.245-12.578-87.574-1.142-133.1 7.233-28.796 7.522-38.031 2.051-65.554-3.502-17.62-4.868-34.463-3.035-37.429 1.833-2.965 11.776-5.447 22.096-5.513 18.308-.12 19.353-1.2 43.038-44.483 39.767-72.673 112.657-148.8 159.907-167.01 19.98-7.7 22.428-7.682 34.542.255 35.138 23.024 29.016 91.274-13.03 145.271-8.383 10.766-10.668 11.543-14.94 5.084-2.773-4.194-5.078-13.002-5.12-19.572-.1-15.35-31.052-46.516-46.195-46.516-6.958 0-19.786 8.612-32.281 21.671-23.084 24.126-62 96.23-56.63 104.92 4.372 7.074 115.55 7.467 157.737.559 18.257-2.99 32.18-3.123 34.968-.334 5.965 5.965-20.536 49.498-38.127 62.632-11.345 8.47-24.823 10.204-98.107 12.625-97.59 3.224-91.209-.609-97.255 58.41-2.731 26.657-1.722 33.716 6.207 43.423 20.915 25.605 87.95 16.729 143.162-18.956 16.051-10.375 40.21-23.074 53.687-28.22 15.347-5.862 30.35-16.634 40.15-28.829 8.605-10.708 17.336-19.47 19.401-19.47 5.47 0 19.962 45.093 19.962 62.113 0 38.335-33.942 74.407-105.129 111.726-73.73 38.652-129.57 48.899-176.081 32.31zm446.718-9.016c-9.284-13.255-10.534-76.455-2.94-148.659 4.061-38.613 3.593-46.9-3.063-54.255-4.32-4.774-9.107-18.006-10.636-29.403-2.677-19.965-2.194-20.84 13.206-23.92 10.867-2.174 16.637-6.652 18.02-13.987 15.884-84.246 44.056-178.938 58.82-197.71 10.789-13.714 46.358-26.165 61.247-21.44 22.504 7.143 6.293 90.262-28.738 147.356-35.84 58.411-43.639 73.992-40.775 81.455 3.566 9.293 19.88 9.271 46.076-.061 10.999-3.919 21.728-6.056 23.841-4.75 5.36 3.313-9.583 37.913-22.337 51.72-7.673 8.305-16.309 11.438-31.54 11.438-11.535 0-23.719 2.745-27.074 6.1-6.364 6.364-8.599 88.28-2.98 109.234 1.665 6.206 9.494 13.388 17.724 16.257 8.108 2.827 14.742 6.202 14.742 7.502 0 3.847-33.92 55.867-42.726 65.525-11.284 12.376-31.342 11.197-40.867-2.402zM375.374 398.28c-10.152-12.243-7.79-46.881 7.903-115.847 10.775-47.354 12.616-63.35 8.364-72.682-2.999-6.581-5.452-14.272-5.452-17.091 0-8.345 54.656-31.069 66.037-27.456 16.225 5.15 16.94 22.82 3.31 81.947-20.614 89.44-20.883 93.032-7.853 105.17l11.335 10.56-24.197 21.907c-26.17 23.693-47.059 28.434-59.448 13.492zm305.77 1.885c-27.736-14.033-31.604-44.914-14.705-117.391 15.362-65.883 30.216-93.232 56.841-104.65 29.263-12.55 85.707-17.125 98.206-7.96 19.414 14.236 8.425 100.731-14.871 117.049-6.633 4.645-22.354 7.64-40.102 7.64-23.658 0-30.19 1.865-34.454 9.834-8.197 15.315-6.215 38.701 4.388 51.796 8.816 10.887 11.346 11.436 29.231 6.346 10.77-3.065 23.584-7.276 28.477-9.358 5.74-2.441 8.896-1.535 8.896 2.554 0 8.813-12.763 18.244-48.295 35.688-32.878 16.14-53.694 18.53-73.613 8.452zm79.796-132c11.446-12.472 23.462-59.594 18.496-72.535-1.782-4.643-7.613-7.417-13.728-6.531-7.97 1.154-12.822 8.54-19.378 29.5-16.458 52.617-9.587 75.93 14.61 49.565zm89.822 120.56c-17.632-26.912-.03-170.562 36.029-294.044 7.247-24.816 15.51-49.48 18.361-54.81C913.505 24.266 950.776 0 966.395 0c18.085 0 22.328 13.782 17.76 57.678-3.923 37.68-20.083 72.301-54.642 117.067-25.478 33.004-25.845 33.995-29.67 80.182-3.94 47.555-2.652 62.878 6.239 74.242 8.373 10.7 18.233 7.25 42.072-14.724 38.171-35.185 35.958-11.547-3.753 40.08-35.713 46.43-75.987 61.138-93.639 34.2zm156.006-.509c-13.833-17.585-13.928-57.264-.328-136.816 19.712-115.301 44.758-205.074 62.875-225.366C1081.181 12.744 1107.295 0 1122.663 0c14.791 0 20.216 22.294 15.302 62.89-4.595 37.955-15.947 61.396-54.477 112.483-25.558 33.887-30.784 52.292-31.115 109.568-.325 56.387 14.436 65.559 48.687 30.252 18.082-18.64 32.46-25.97 32.412-16.526-.036 6.77-21.074 38.749-41.943 63.747-33.936 40.653-65.518 50.266-84.761 25.802zm155.825 4.49c-19.785-21.863-21.316-41.766-8.111-105.478 20.627-99.526 47.15-126.96 119.82-123.94 16.221.674 33.394-.537 38.163-2.691 6.073-2.744 12.731.144 22.223 9.636 14.513 14.513 14.79 23.11 2.537 78.868-6.603 30.045-6.856 95.133-.386 99.132 8.95 5.532 5.515 15.334-12.124 34.592-29.19 31.867-53.964 21.654-53.964-22.246 0-13.78-1.846-25.056-4.102-25.056-2.256 0-18.538 14.87-36.183 33.044-34.377 35.41-52 41.677-67.873 24.139zm120.309-151.419c10.206-65.534 10.288-63.358-2.375-63.358-21.546 0-37.82 24.791-46.721 71.172-16.65 86.757-13.38 98.014 19.187 66.053 21.065-20.674 21.973-22.917 29.909-73.867zm94.367 152.41c-5.394-6.5-5.076-14.446 1.782-44.482 20.155-88.267 26.081-130.678 20.374-145.8-6.541-17.329-6.09-17.932 23.033-30.815 28.682-12.687 34.482-12.476 43.7 1.595 6.611 10.089 6.65 15.601.316 44.482-3.977 18.13-8.73 38.113-10.564 44.404-5.759 19.766 5.823 12.46 20.148-12.71a14852.343 14852.343 0 0123.965-41.94c16.793-29.232 33.63-41.433 54.742-39.67 16.492 1.378 18.628 3.212 19.99 17.16.84 8.588-4.308 43.774-11.438 78.19-15.058 72.68-15.668 83.174-5.338 91.747 12.131 10.068 9.104 17.104-13.727 31.908-52.817 34.248-69.931 7.362-52.671-82.745 4.017-20.97 5.394-40.065 3.06-42.433-4.62-4.686-31.56 40.812-55.731 94.12-12.354 27.246-18.299 34.665-31.45 39.25-20.894 7.283-22.362 7.173-30.191-2.26zm230.56-4.398c-13.857-11.961-14.247-13.688-13.659-60.443.425-33.831 3.98-59.247 11.968-85.548 23.98-78.965 42.248-94.794 79.855-69.192 18.217 12.402 21.183 22.352 9.306 31.213-8.043 6-24.48 64.51-30.388 108.17-3.09 22.837-2.13 27.694 7.35 37.174 13.258 13.258 20.253 11.492 31.41-7.932 21.9-38.125 33.007-204.036 14.444-215.758-4.194-2.649-25.15-10.69-46.568-17.87-51.262-17.184-65.273-30.187-65.273-60.575 0-16.341 2.98-26.1 10.167-33.287 12.287-12.287 12.252-12.285 43.577-1.707 41.022 13.852 84.94 46.648 106.106 79.233 4.995 7.69 13.643 13.98 19.22 13.98 8.922 0 9.737 2.288 6.79 19.064-1.843 10.485-5.34 44.228-7.772 74.985-5.1 64.5-15.122 105.566-34.654 142.012-12.894 24.06-16.47 26.826-54.47 42.156-49.339 19.905-68.275 20.842-87.41 4.325zM413.23 83.319c-1.727-4.503-1.084-16.494 1.43-26.647 4.143-16.725 6.245-18.494 22.366-18.831 9.786-.204 24.084-2.187 31.773-4.406 13.436-3.878 13.98-3.313 13.98 14.54 0 26.237-18.149 43.531-45.682 43.531-14.364 0-21.69-2.512-23.867-8.187z"
        fill="currentColor" />
</svg>