<svg xmlns="http://www.w3.org/2000/svg" width="840" height="392">
    <path
        d="M129 111c45.861-.252 91.722-.446 137.584-.562l16.255-.042 3.269-.009c17.45-.048 34.899-.135 52.348-.236 17.914-.103 35.828-.164 53.743-.186 11.048-.015 22.095-.063 33.143-.152 7.583-.058 15.166-.076 22.749-.062 4.371.008 8.74-.003 13.111-.062 31.364-.405 31.364-.405 40.717 8.087A261.09 261.09 0 01506 122a155.89 155.89 0 006.04 4.258l2.8 1.943 2.785 1.924 2.967 2.059c4.249 2.947 8.503 5.885 12.771 8.804l1.87 1.283c1.576 1.078 3.154 2.152 4.732 3.225L542 147v1a64105.875 64105.875 0 01-154.059.44l-3.272.006c-17.478.035-34.956.098-52.434.171-17.937.075-35.873.12-53.81.136a6798.56 6798.56 0 00-33.198.11c-7.591.043-15.181.055-22.772.045-4.378-.005-8.756.003-13.134.046-4.013.039-8.025.04-12.039.013-1.447-.003-2.894.007-4.34.032-10.53.173-16.054-2.16-23.942-8.999a244.087 244.087 0 00-5.254-3.64l-2.624-1.789-2.685-1.821-2.84-1.936a960.62 960.62 0 00-14.023-9.38l-2.535-1.665a701.92 701.92 0 00-4.756-3.088c-1.795-1.176-3.545-2.422-5.283-3.681v-2zM129.148 256.038c1.5-.004 2.999-.01 4.498-.02 4.09-.019 8.178.013 12.267.053 4.42.035 8.842.023 13.263.017 7.65-.004 15.299.021 22.948.066 11.06.065 22.12.086 33.18.096 17.946.018 35.891.07 53.837.146a23057.607 23057.607 0 0055.54.17l16.182.031c44.713.083 89.425.224 134.137.403-2.33 2.36-4.538 4.524-7.293 6.375l-1.883 1.278-2.011 1.347a264916493.95 264916493.95 0 01-6.563 4.46c-3.65 2.499-7.264 5.048-10.875 7.602l-1.91 1.35-1.942 1.373-1.988 1.373a108.056 108.056 0 00-5.497 4.301c-8.613 6.983-15.225 8.99-26.464 8.744-1.506.004-3.011.013-4.516.025-4.097.023-8.191-.017-12.287-.067-4.432-.044-8.864-.029-13.296-.021-7.666.005-15.33-.026-22.996-.083a5342.64 5342.64 0 00-33.248-.12 13312.85 13312.85 0 01-53.95-.183c-17.462-.091-34.925-.162-52.387-.205l-3.265-.008-16.22-.038c-44.803-.103-89.606-.28-134.409-.503 2.902-2.938 5.65-5.641 9.082-7.945l2.3-1.558 2.43-1.622 5.118-3.457 2.58-1.737c4.26-2.876 8.483-5.803 12.71-8.726 1.18-.813 2.365-1.616 3.558-2.41a89.038 89.038 0 004.705-3.528c8.18-6.171 14.633-7.155 24.665-6.979z"
        fill="currentColor" />
    <path
        d="M62 62a36271.7 36271.7 0 01137.329-.715c5.412-.017 10.824-.036 16.235-.054l3.265-.011c17.414-.061 34.828-.171 52.242-.3 17.885-.131 35.77-.209 53.657-.237 11.026-.02 22.05-.08 33.074-.194 7.574-.074 15.147-.096 22.721-.078a674.08 674.08 0 0013.083-.08c19.149-.316 33.817.285 48.61 14.046 2.422 2.203 5 3.964 7.725 5.771C471.298 95.053 471.298 95.053 475 98v1c-45.597.367-91.195.648-136.793.817-5.393.02-10.786.04-16.18.062l-3.253.013c-17.344.07-34.687.195-52.031.342-17.82.15-35.638.239-53.458.271-10.981.022-21.96.091-32.94.222-7.548.085-15.094.11-22.642.089-4.344-.01-8.685.005-13.029.091-20.956.398-35.11-1.511-51.542-16.058-2.83-2.454-5.81-4.471-8.945-6.517L81.5 76.506 79 74.813C66.384 66.257 66.384 66.257 62 63v-1z"
        fill="currentColor" />
    <path
        d="M212.377 206.723c4.418.048 8.836.032 13.255.023 7.639-.005 15.277.029 22.915.091 11.044.09 22.087.118 33.132.132 17.921.024 35.842.097 53.764.201a16691.451 16691.451 0 0055.455.235l16.167.041c44.645.114 89.29.308 133.935.554-5.465 5.517-5.465 5.517-8.285 7.402l-1.828 1.238-1.95 1.298c-1.418.96-2.836 1.92-4.253 2.882l-2.282 1.544c-4.326 2.946-8.614 5.948-12.902 8.949l-2.496 1.74-2.41 1.685-2.104 1.47c-2.408 1.634-2.408 1.634-3.965 3.254-6.382 5.822-13.027 5.366-21.268 5.26-1.504.002-3.008.007-4.513.015-4.12.013-8.24-.01-12.362-.04-4.448-.027-8.896-.018-13.345-.013a4822.18 4822.18 0 01-23.109-.05 9018.942 9018.942 0 00-33.412-.072c-18.07-.013-36.14-.053-54.21-.11a31231.319 31231.319 0 00-55.934-.127l-16.288-.023c-45.028-.062-90.056-.168-135.084-.302 3.295-3.4 6.788-6 10.75-8.562a141066614.972 141066614.972 0 016.155-4.048c3.371-2.237 6.703-4.53 10.033-6.827l1.727-1.192 1.8-1.242 1.999-1.291c2.677-1.844 2.677-1.844 5.25-4.506 12.828-11.753 29.405-9.83 45.663-9.609z"
        fill="currentColor" />
    <path
        d="M430 161h14c1.008 2.58 2.007 5.164 3 7.75l.867 2.21.82 2.15.762 1.967C450 177 450 177 450 181h2l.313-3.313c1.693-13.693 1.693-13.693 4.687-16.687 2.353-.073 4.708-.084 7.063-.063l3.91.028L471 161c.843 2.393 1.674 4.789 2.5 7.188l.723 2.04c1.264 3.704 2.082 6.851 1.777 10.772h2l.309-2.012c.874-3.78 2.277-7.22 3.753-10.8l.854-2.1c.69-1.698 1.387-3.393 2.084-5.088h14c-1.581 3.98-3.165 7.959-4.75 11.938l-1.344 3.384c-2.508 6.29-5.107 12.512-7.906 18.678h-16c-4-13.5-4-13.5-4-18h-2l-.313 2.813c-.726 5.189-2.258 10.154-3.687 15.187h-16c-1.856-4.358-3.71-8.717-5.554-13.08-.629-1.484-1.26-2.967-1.892-4.45-.908-2.13-1.81-4.262-2.71-6.396l-.862-2.008C430.78 166.201 430 164.142 430 161z"
        fill="currentColor" />
    <path
        d="M663 161h19l8 16 2.25-3.5 1.266-1.969c2.002-3.414 3.714-6.99 5.484-10.531h19v34h-12l-1-19c-2.545 5.13-2.545 5.13-5.085 10.261l-.97 1.946-.984 1.984C697 192 697 192 695 195h-9l-10-18-1 18h-12v-34z"
        fill="currentColor" />
    
    <path
        d="M323 161c17 0 17 0 22.063 4.375A167.433 167.433 0 01349 171a525.503 525.503 0 004.563 5.625L357 181l1-20h12v34c-17 0-17 0-21.5-3.813A202.07 202.07 0 01345 186a520.598 520.598 0 00-5-5.938c-4-4.804-4-4.804-4-7.062h-2v22h-11v-34z"
        fill="currentColor" />
    <path
        d="M627 161h15c4.795 8.422 9.519 16.876 14.063 25.438l1.193 2.24C660 193.875 660 193.875 660 195h-16l-2-4h-15l-2 4h-16c5.665-11.54 11.678-22.807 18-34z"
        fill="currentColor" />
    <path
        d="M289 161h15c2.284 4.518 4.562 9.039 6.836 13.562.775 1.54 1.55 3.078 2.328 4.615 1.116 2.208 2.226 4.417 3.336 6.628l1.06 2.09C320 192.772 320 192.772 320 195h-15l-1-5c-2.461.06-4.916.147-7.375.25l-2.117.043c-2.285.067-2.285.067-5.508.707l-2 4h-14c.942-4.71 2.459-8.3 4.625-12.5l1.07-2.107c3.33-6.522 6.799-12.965 10.305-19.393z"
        fill="currentColor" />
    <path d="M182 160h42v10h-28v4h28v8h-29v13h-13v-35z" fill="currentColor" />
    <path
        d="M372 161h12v12c5.131-1.28 7.138-3.024 10.375-7.125 3.132-3.343 5.284-5.133 9.828-5.531 3.964-.076 7.86.216 11.797.656-2.85 3.823-5.878 6.686-9.625 9.625-3.052 2.397-5.215 4.135-7.375 7.375l1.513 1.238c2.268 1.856 4.534 3.715 6.8 5.575l2.38 1.947 2.295 1.885c.697.57 1.393 1.141 2.11 1.73A71.095 71.095 0 01419 195c-16.085 1.787-16.085 1.787-21.95-2.414-2.288-1.902-4.372-3.954-6.448-6.082-2.513-2.835-2.513-2.835-6.602-3.504v12h-12v-34z"
        fill="currentColor" />
    <path d="M555 161h13v24h23v10h-36v-34zM517 161h12v24h24v10h-36v-34z" fill="currentColor" />
    <path d="M594 161h12v34h-12v-34zM501 161h12v34h-12v-34z" fill="currentColor" />
    <path
        d="M737.531 159.7l2.162-.014c1.503-.005 3.006-.006 4.509-.002 2.291.003 4.581-.02 6.872-.045 1.465-.003 2.93-.003 4.395-.002l2.061-.028c4.319.042 7.031.757 10.47 3.391 1.354 2.709 1.065 5.01 1 8-1.98.027-3.958.046-5.937.063l-3.34.035C757 171 757 171 756 170a90.91 90.91 0 00-5.129-.098l-3.135.01-3.298.025-3.311.014c-2.71.012-5.418.028-8.127.049v2l2.675.028c3.29.044 6.578.106 9.868.18 1.42.028 2.841.049 4.262.063 2.05.022 4.096.068 6.144.12l3.73.063c3.877.637 5.547 1.817 8.321 4.546 1.225 2.45 1.167 4.142 1.188 6.875l.042 2.617c-.248 2.7-.756 4.246-2.23 6.508-3.835 2.556-7.016 2.324-11.465 2.336l-2.514.02c-1.754.01-3.509.015-5.263.015-2.682.004-5.363.04-8.045.078-1.705.006-3.41.01-5.115.012l-2.428.043c-3.573-.029-5.742-.2-8.692-2.298-2.079-3.102-1.758-5.563-1.478-9.206h12v2h23l-1-3-2.583-.028c-3.178-.044-6.355-.106-9.532-.18-1.373-.028-2.745-.049-4.118-.063-1.978-.022-3.957-.07-5.935-.12l-3.602-.063c-3.814-.645-5.49-1.868-8.23-4.546-1.733-3.465-1.472-7.211-1-11 3.856-6.712 9.297-7.31 16.531-7.3zM226 160c5-.07 9.997-.129 14.996-.165 1.699-.015 3.397-.035 5.095-.061 2.45-.037 4.9-.054 7.35-.067l2.277-.047c5.158-.002 8.69.953 13.282 3.34 2 2 2 2 2.23 4.898l-.043 3.477-.019 3.46C271 178 271 178 270.492 179.993c-.718 2.93-.585 5.75-.555 8.758l.028 3.547L270 195h-12l-1-10-18-1v11h-13v-35z"
        fill="currentColor" />
    <path d="M634 173c2.645 3.125 3.844 6.088 5 10h-9c1.11-3.487 2.263-6.775 4-10z" fill="currentColor" />
    <path d="M296 173c2.834 3.203 3.52 5.78 4 10h-8c.476-1.48.956-2.96 1.438-4.438l.808-2.496C295 174 295 174 296 173z"
        fill="currentColor" />
</svg>