<svg xmlns="http://www.w3.org/2000/svg" width="1280" height="926">
    <path
        d="M898 29l-2 10 1.98.676c4.051 1.776 7.621 4.118 11.332 6.511l5.133 3.274 2.74 1.749c4.816 3.062 9.66 6.081 14.503 9.103A2048706.854 2048706.854 0 01944 68c11.947 7.457 23.89 14.919 35.79 22.449 10.376 6.56 20.796 13.05 31.21 19.551 11.943 7.454 23.883 14.913 35.779 22.442A3867.468 3867.468 0 001066 144.5a4443.926 4443.926 0 0123.784 14.946 3591.718 3591.718 0 0019.028 11.929 3471.711 3471.711 0 0128.946 18.285c4.968 3.168 9.946 6.32 14.93 9.465l2.33 1.47c3.14 1.983 6.282 3.964 9.424 5.945 10.217 6.44 20.414 12.907 30.558 19.46-2.93 3.159-5.908 5.34-9.602 7.547l-3.382 2.035-1.795 1.069c-2.527 1.504-5.045 3.021-7.564 4.538l-3.91 2.35c-6.28 3.772-12.516 7.61-18.747 11.461a3961.477 3961.477 0 01-27 16.5c-13.372 8.104-26.691 16.292-40 24.5-4.395 2.71-8.791 5.418-13.188 8.125l-3.262 2.01c-7.108 4.372-14.23 8.72-21.363 13.053a3002.351 3002.351 0 00-21.812 13.375l-2.568 1.583a808.71 808.71 0 00-13.612 8.592l-2.888 1.844a480.464 480.464 0 00-5.47 3.545l-2.493 1.584-2.182 1.415c-2.87 1.16-4.236.83-7.162-.126-2.621-1.376-2.621-1.376-5.438-3.14l-3.178-1.975L975 343.75l-3.521-2.195c-2.375-1.48-4.748-2.964-7.119-4.451a1973.87 1973.87 0 00-11.468-7.114c-8.214-5.067-16.4-10.18-24.58-15.303-10.655-6.67-21.355-13.266-32.066-19.847a5840.622 5840.622 0 01-41.943-26.037c-7.516-4.7-15.06-9.353-22.616-13.99a2265.314 2265.314 0 01-29.385-18.355c-2.443-1.547-4.891-3.084-7.341-4.618l-2.547-1.599a2199.44 2199.44 0 00-4.748-2.97 225.625 225.625 0 01-11.389-7.634c-5.417-3.823-11.081-7.15-16.823-10.458a2180.347 2180.347 0 01-9.587-5.57l-1.985-1.157c-6.172-3.606-12.29-7.299-18.394-11.02a1670.144 1670.144 0 00-5.201-3.149c-5.235-3.166-10.44-6.36-15.57-9.694a604.002 604.002 0 00-5.173-3.307 302.868 302.868 0 01-6.377-4.165c-4.734-3.194-4.734-3.194-10.182-3.882-2.204 1.039-4.014 2.33-5.985 3.765a847.62 847.62 0 01-6.223 3.715 1904.615 1904.615 0 00-5.104 3.148 1509.27 1509.27 0 01-5.206 3.205c-5.63 3.474-11.153 6.991-16.467 10.932l2.218 1.29c16.587 9.665 33.082 19.465 49.467 29.468 4.334 2.646 8.673 5.282 13.014 7.914l1.925 1.167 7.41 4.492c2.716 1.646 5.43 3.296 8.136 4.957 1.77 1.07 3.555 2.114 5.363 3.117 5.231 2.964 5.231 2.964 6.467 6.27v2.637l.062 2.676L742 258c-3.824-1.411-7.156-3.188-10.629-5.316l-3.342-2.04-3.592-2.207-3.757-2.294c-2.603-1.589-5.204-3.18-7.805-4.772a6488.405 6488.405 0 00-17.938-10.934l-1.734-1.054a2613.761 2613.761 0 00-33.27-19.88 451.026 451.026 0 01-10.523-6.35l-1.961-1.2a436.174 436.174 0 01-4.75-2.96c-3.631-1.336-5.146-.395-8.699 1.007a94.661 94.661 0 00-5.07 2.879l-2.922 1.766-3.133 1.917-5.018 3.044c-1.76 1.07-3.52 2.142-5.28 3.215-3.528 2.152-7.066 4.29-10.604 6.425a2563.313 2563.313 0 00-36.548 22.479 2248.088 2248.088 0 01-18.863 11.713l-2.297 1.415C539.12 258 539.12 258 538 258c-.242-3.54-.041-6.595 1-10 2.78-3.149 6.375-4.94 10-7a920.998 920.998 0 004.305-2.605c3.379-2.052 6.769-4.084 10.168-6.102 13.611-8.093 27.096-16.4 40.587-24.692l4.898-3.008c3.018-1.858 6.03-3.724 9.042-5.593l3.174-1.958 3.03-1.89 2.723-1.691c2.189-1.298 2.189-1.298 3.073-3.461l-2.093-.766c-3.325-1.411-6.314-3.132-9.423-4.972l-1.864-1.1a2574.217 2574.217 0 01-5.87-3.475l-3.895-2.302-1.917-1.134a1757.89 1757.89 0 00-5.577-3.27 255.928 255.928 0 01-6.113-3.709c-4.174-2.723-4.174-2.723-8.936-2.834L582 168l-2.824 1.813L576 172a581.822 581.822 0 01-3.707 2.375 804.2 804.2 0 00-8.531 5.52c-5.059 3.309-10.158 6.553-15.262 9.792a7534.661 7534.661 0 00-24 15.313 11186.938 11186.938 0 01-31.785 20.273c-2.77 1.762-5.54 3.526-8.309 5.29a7655.146 7655.146 0 01-28.23 17.903c-8.808 5.559-17.593 11.156-26.378 16.752C425.2 268.147 420.6 271.073 416 274l-5.5 3.5-77 49-2.755 1.753c-1.817 1.157-3.635 2.313-5.453 3.468a3938.068 3938.068 0 00-14.46 9.236l-3.053 1.955c-1.939 1.242-3.876 2.487-5.812 3.734l-2.635 1.686-2.321 1.491C295 351 295 351 292 352c-1.76-.778-1.76-.778-3.762-2.078l-2.34-1.49-2.586-1.682c-1.906-1.211-3.815-2.42-5.726-3.625l-3.18-2.008c-6.25-3.91-12.62-7.62-18.969-11.367A2589.74 2589.74 0 01225 311.5a2663.956 2663.956 0 00-30-18 3123.91 3123.91 0 01-33.91-20.365 3223.47 3223.47 0 00-22.715-13.697c-9.813-5.87-19.561-11.839-29.291-17.844-7.99-4.93-16.013-9.8-24.084-14.594 1.496-3.957 3.64-5.33 7.215-7.469l3.239-1.96c1.16-.691 2.322-1.381 3.483-2.071 1.194-.72 2.386-1.44 3.578-2.162 1.8-1.09 3.6-2.179 5.402-3.264a699.813 699.813 0 0014.708-9.137 3491.475 3491.475 0 0121.062-13.25 1376804607.456 1376804607.456 0 019.232-5.764c5.028-3.139 10.055-6.281 15.081-9.423l6-3.75 3-1.875 36.001-22.5 5.988-3.743c5.061-3.164 10.123-6.327 15.187-9.487A5362.404 5362.404 0 00261.5 114a4332.33 4332.33 0 0121.187-13.313l3.055-1.907c5.114-3.195 10.23-6.387 15.348-9.577a4089.814 4089.814 0 0034.668-21.863c7.265-4.633 14.553-9.228 21.84-13.824 2.581-1.63 5.16-3.262 7.738-4.895l2.65-1.677 5.05-3.2 2.28-1.443 2.014-1.276C379 40 379 40 381 39c.407-2.322.744-4.657 1-7 4.713 1.36 8.549 3.403 12.625 6.062 1.423.909 2.848 1.815 4.273 2.72l2.425 1.538c5.272 3.308 10.603 6.52 15.927 9.742l3.635 2.204c2.474 1.5 4.948 2.998 7.422 4.496 5.32 3.223 10.637 6.453 15.954 9.682l5.245 3.184a9477.035 9477.035 0 0115.641 9.508 3659.462 3659.462 0 0041.365 24.841c8.863 5.246 17.668 10.57 26.4 16.032 7.955 4.955 16.02 9.721 24.088 14.491 9.74 5.76 19.436 11.57 29.033 17.567 9.006 5.613 18.117 11.05 27.227 16.492l1.835 1.097c1.2.717 2.401 1.432 3.604 2.144 3.008 1.79 5.97 3.623 8.887 5.557l1.756 1.144a469.603 469.603 0 014.738 3.152c3.545 1.635 5.215 1.425 8.92.347a92.941 92.941 0 006.937-4.188c1.428-.92 2.856-1.837 4.286-2.753l2.328-1.5c4.398-2.8 8.865-5.485 13.324-8.184a4097.06 4097.06 0 0024.812-15.188 4418.16 4418.16 0 0129.082-17.759C732.2 129.318 740.61 124.175 749 119c9.565-5.9 19.16-11.75 28.77-17.573C786.202 96.318 794.61 91.175 803 86a4293.534 4293.534 0 0127.187-16.625l1.779-1.078 8.708-5.28c14.291-8.665 28.558-17.366 42.76-26.177l2.316-1.434c1.523-.952 3.04-1.914 4.551-2.886l2.172-1.391 1.918-1.244C896 29 896 29 898 29z"
        fill="#171717" />
    <path
        d="M609.5 479.375l2.139.56c4.114 1.164 7.814 2.717 11.629 4.657l2.695 1.366L628 487a115662.474 115662.474 0 01-8.365 41.9 34764.263 34764.263 0 01-3.54 17.73c-1.955 9.808-3.968 19.598-6.095 29.37-3.373.955-5.034.924-8.352-.293l-2.552-.905-2.721-.99C565.801 563.178 530.448 558.218 500 572c-7.96 4.206-14.595 9.716-21 16l-1.898 1.824c-11.64 12.14-17.78 29.431-17.575 46.05.403 9.52 3.554 18.37 10.473 25.126 9.833 7.37 19.762 10.272 32 9 10.215-2.194 17.785-6.6 24-15a101.017 101.017 0 002.75-6.313l1.297-3.238L531 643l-3.09.016c-3.775.018-7.55.03-11.327.039-1.635.005-3.27.012-4.906.02-2.348.013-4.696.018-7.044.023l-2.223.015c-5.182 0-5.182 0-7.41-1.113 1.533-8.782 3.29-17.515 5.087-26.246.48-2.343.958-4.686 1.434-7.03l.92-4.478.43-2.118c1.015-4.9 1.015-4.9 2.129-7.128h128c0 20.993 0 20.993-1.188 28.813l-.403 2.762C626.161 660.701 613.842 690.697 590 716l-1.887 2.082C563.416 744.332 524.606 752.872 490 754c-34.364.322-70.215-8.25-95.618-32.615A468.651 468.651 0 01390 717l-2.3-2.234c-18.175-18.774-21.993-47.25-21.677-72.23C367.341 595.607 385.551 551.715 418 518l1.938-2.129C444.202 489.984 480.644 477.291 515 473l2.295-.292c30.065-3.44 62.97-1.12 92.205 6.667zM1012 487c21.827-.187 43.655-.328 65.483-.414 10.136-.042 20.271-.098 30.407-.19 8.838-.08 17.676-.13 26.514-.149 4.677-.01 9.353-.034 14.03-.093 4.409-.054 8.817-.07 13.227-.059 1.61-.002 3.222-.018 4.832-.049 10.895-.198 17.925 1.742 26.507 8.954l2.771 2.246c15.35 12.731 25.052 31.17 27.009 50.98 1.376 18.749-4.077 36.304-16.151 50.805-12.995 14.675-29.089 22.553-47.629 27.969a3580725.296 3580725.296 0 0010.323 24.658c3.765 8.994 7.53 17.987 11.287 26.984l5.765 13.795 1.131 2.708c3.727 8.918 7.466 17.83 11.29 26.707a2346.885 2346.885 0 004.853 11.207l1.359 3.132 1.176 2.694C1207 741 1207 741 1207 743h-106c-3.123-7.496-6.198-14.973-9.102-22.55l-1.1-2.858c-1.143-2.968-2.283-5.936-3.423-8.904-1.147-2.987-2.295-5.973-3.444-8.958-.71-1.845-1.42-3.69-2.127-5.536l-.982-2.55-.85-2.213c-1.266-3.167-2.628-6.296-3.972-9.431l-13 63c-24.257.04-24.257.04-34.592.049-7.053.006-14.107.013-21.16.026-5.687.011-11.373.017-17.06.02-2.17.002-4.34.005-6.51.01-3.038.008-6.076.009-9.114.009l-2.723.01c-4.08-.006-7.861-.093-11.841-1.124.725-8.871 2.668-17.475 4.516-26.164l1.1-5.235c.792-3.762 1.585-7.525 2.38-11.287 2.163-10.237 4.308-20.479 6.453-30.72.225-1.072.45-2.143.68-3.247 5.406-25.805 10.678-51.636 15.934-77.472a98991292.365 98991292.365 0 015.035-24.758l.606-2.98a390009.547 390009.547 0 002.417-11.892c1.09-5.36 2.179-10.722 3.266-16.083 1.165-5.74 2.331-11.48 3.5-17.22.444-2.192.89-4.383 1.333-6.574.613-3.025 1.228-6.05 1.844-9.075l.552-2.73.51-2.5.441-2.17C1011 490 1011 490 1012 487zm90 64c-2.215 8.485-4.12 17.016-5.845 25.613-.412 2.046-.834 4.09-1.257 6.133l-.789 3.918-.72 3.545c-.65 2.74-.65 2.74.611 4.791 10.05-2.533 18.044-6.203 24-15 2.449-5.342 2.859-10.31 1.063-15.938-4.1-6.087-9.685-11.549-17.063-13.062z"
        fill="#fff" />
    <path
        d="M812 487h173c-.603 4.822-1.19 9.302-2.2 14.001l-.717 3.367c-.382 1.76-.382 1.76-.77 3.558l-.796 3.71a7253.31 7253.31 0 01-2.09 9.698c-.57 2.643-1.137 5.286-1.703 7.93-.677 3.158-1.357 6.316-2.037 9.474-.38 1.777-.38 1.777-.77 3.59l-.718 3.318-.63 2.921C972 551 972 551 971 554h-72l-1 10a253.319 253.319 0 01-1.5 8l-.781 3.875C895 579 895 579 894 581h62c-5.748 28.742-5.748 28.742-8.813 43.063L944 639l-61 1-6 25h72c-2.25 13.5-2.25 13.5-3.512 19.42l-.415 1.957c-.441 2.078-.886 4.155-1.33 6.232l-.934 4.388c-.81 3.808-1.623 7.615-2.436 11.422-.833 3.902-1.664 7.804-2.494 11.706-1.623 7.626-3.25 15.25-4.879 22.875-20.75.023-41.5.041-62.25.052-9.636.005-19.271.012-28.907.023-8.404.01-16.808.017-25.211.02-4.445 0-8.89.003-13.335.01-4.194.008-8.389.01-12.583.008-1.53 0-3.058.002-4.588.006-9.424.023-18.735-.308-28.126-1.119a159739.028 159739.028 0 0132.471-153.965 289039.479 289039.479 0 0112.137-57.428 73331.132 73331.132 0 014.79-22.663l1.77-8.371.523-2.476c.716-3.383 1.47-6.742 2.309-10.097z"
        fill="#fff" />
    <path
        d="M493 107a123.74 123.74 0 016.96 3.938c.669.398 1.336.797 2.024 1.208 2.135 1.278 4.263 2.566 6.391 3.854 1.392.835 2.783 1.67 4.176 2.504 3.455 2.072 6.905 4.151 10.355 6.233 3.54 2.135 7.087 4.262 10.633 6.388l1.973 1.184L540 135c-1.23 3.688-2.246 4.059-5.504 6.047l-2.898 1.788-3.16 1.915-6.602 4.063-3.435 2.101c-8.245 5.057-16.436 10.203-24.627 15.348-1.822 1.142-3.647 2.28-5.474 3.414a1268.99 1268.99 0 00-7.3 4.574l-2.177 1.339c-1.662 1.057-3.252 2.224-4.823 3.411v3c2.371 1.827 2.371 1.827 5.484 3.547l1.73 1.013a739.33 739.33 0 005.536 3.19c1.2.697 2.399 1.395 3.598 2.094 2.373 1.381 4.75 2.757 7.13 4.127 5.188 2.985 10.354 6.009 15.522 9.029-3.957 4.346-8.199 7.163-13.25 10.125-1.626.973-3.251 1.949-4.875 2.926l-2.48 1.49c-3.594 2.19-7.122 4.472-10.645 6.772a2089.202 2089.202 0 01-20.125 12.937l-2.7 1.716c-1.746 1.11-3.496 2.214-5.248 3.313a177.092 177.092 0 00-5.612 3.77l-2.917 1.998-2.627 1.854C440 253 440 253 437.588 252.418c-3.07-1.682-6.127-3.371-9.139-5.156l-1.871-1.1c-1.303-.765-2.605-1.532-3.906-2.301a31905.128 31905.128 0 01-9.723-5.724l-1.869-1.097a179.863 179.863 0 01-9.685-6.145c-3.095-2.138-3.095-2.138-5.763-1.712-3.063.95-5.419 2.292-8.14 3.993l-3.21 1.991-3.407 2.145-3.526 2.197A2665.63 2665.63 0 00367 246l-2.768 1.738c-4.646 2.917-9.282 5.85-13.913 8.791a3004.52 3004.52 0 01-7.499 4.737l-2.601 1.64-4.904 3.087A482.451 482.451 0 00323 274c3.654 3.065 7.466 5.59 11.586 7.969l1.879 1.097c1.968 1.149 3.939 2.291 5.91 3.434l3.945 2.3A2159.64 2159.64 0 00364 299c-1.355 4.065-3.985 5.104-7.5 7.188-1.467.892-2.933 1.787-4.398 2.683l-2.46 1.5c-4.964 3.061-9.86 6.227-14.767 9.379a6539.13 6539.13 0 01-27.795 17.733l-2.56 1.626-2.385 1.498c-2.107 1.337-2.107 1.337-3.9 2.739-1.536 1.17-1.536 1.17-4.235 2.654-4.157-1.241-7.76-3.509-11.48-5.703l-1.858-1.092a2695.02 2695.02 0 01-5.85-3.455c-1.289-.76-2.579-1.519-3.869-2.277-2.496-1.47-4.99-2.945-7.48-4.424a554.224 554.224 0 00-6.618-3.863l-2.77-1.608-2.408-1.378L250 321v-2c2.178-1.51 4.354-2.89 6.625-4.25 1.482-.906 2.964-1.814 4.445-2.723l2.423-1.48c4.368-2.695 8.684-5.47 13.007-8.235 10.937-6.977 21.934-13.857 32.944-20.719 3.52-2.194 7.039-4.394 10.556-6.593-2.749-3.176-6.252-5.08-9.836-7.168l-2.046-1.208a2432.86 2432.86 0 00-6.493-3.812 5969.396 5969.396 0 01-6.364-3.745c-1.394-.821-2.79-1.64-4.187-2.458-3.331-1.955-6.628-3.944-9.872-6.041l-1.792-1.148a575.7 575.7 0 01-4.76-3.113c-2.473-1.496-2.473-1.496-4.746-1.16a55.83 55.83 0 00-6.072 3.189l-2.43 1.459-2.59 1.58-2.7 1.635c-7.023 4.273-13.938 8.7-20.819 13.197-6.225 4.064-12.515 8.025-18.816 11.969a328.808 328.808 0 00-8.391 5.43l-1.79 1.173a482.655 482.655 0 00-4.632 3.088C199 289 199 289 196.77 288.323c-3.359-1.605-6.544-3.442-9.73-5.358l-2.023-1.205c-2.132-1.27-4.262-2.547-6.391-3.822l-4.176-2.49C165.29 269.982 156.144 264.49 147 259c2.77-2.947 5.53-5.133 8.973-7.25l2.945-1.824 3.144-1.926c2.187-1.352 4.373-2.705 6.56-4.059l3.284-2.026c4.256-2.634 8.49-5.301 12.719-7.977l2.252-1.421c4.386-2.771 8.757-5.565 13.12-8.372l3.057-1.963a1767.2 1767.2 0 005.915-3.815l2.691-1.726 2.395-1.546C216 214 216 214 218 214c-2.843-3.065-5.631-5.134-9.27-7.18l-3.162-1.796-3.38-1.899a3567.45 3567.45 0 01-7.012-3.996l-1.798-1.026c-9.585-5.49-18.976-11.307-28.378-17.103 4.877-4.209 10.348-7.437 15.812-10.813l6.5-4.039 3.36-2.083c5.22-3.24 10.43-6.496 15.64-9.752l2.989-1.865c4.786-2.99 9.564-5.992 14.324-9.022l2.659-1.69c1.641-1.046 3.28-2.094 4.918-3.145l2.193-1.396 1.901-1.218C237 135 237 135 240 134a87.81 87.81 0 017.437 3.875l2.318 1.315c7.714 4.421 15.326 9.02 22.932 13.622l1.843 1.114c6.311 3.82 12.55 7.662 18.47 12.074-4.71 4.02-9.897 7.21-15.125 10.5l-2.963 1.875c-2.969 1.878-5.94 3.752-8.912 5.625l-7.218 4.56c-1.52.96-3.042 1.919-4.564 2.877a1662.345 1662.345 0 00-13.116 8.352l-3.014 1.934a1845.72 1845.72 0 00-5.793 3.734l-2.662 1.707-2.347 1.514c-2.364 1.367-4.73 2.37-7.286 3.322v2l2.582.742c3.717 1.368 6.815 3.23 10.105 5.383 7.188 4.575 14.429 9.06 21.728 13.454 1.222.738 2.44 1.48 3.656 2.228 1.724 1.06 3.46 2.101 5.195 3.142l3.055 1.854c2.514 1.38 2.514 1.38 4.79 1.025a51 51 0 005.846-3.023l2.336-1.397 2.52-1.533 2.651-1.601c7.803-4.75 15.446-9.732 23.075-14.755 6.772-4.45 13.624-8.734 20.559-12.925 5.061-3.062 10.038-6.223 14.902-9.594-2.616-2.968-5.664-4.694-9.074-6.66l-1.81-1.05c-1.274-.74-2.55-1.477-3.826-2.212-3.299-1.903-6.587-3.823-9.876-5.742l-1.953-1.139c-5.124-2.991-10.224-6.018-15.274-9.134l-1.969-1.194c-1.443-.9-2.838-1.876-4.218-2.869v-2c1.534-1.23 1.534-1.23 3.707-2.617l2.436-1.57 2.67-1.688 2.755-1.764A2513.17 2513.17 0 01315 152l4.645-2.965c9.314-5.93 18.704-11.742 28.105-17.535l3.356-2.07c2.065-1.27 4.135-2.533 6.208-3.79 1.614-.985 3.216-1.99 4.793-3.03 2.663-1.704 4.554-2.597 7.737-2.72 4.65 1.635 8.533 4.189 12.656 6.86 1.862 1.179 3.725 2.356 5.59 3.531l2.921 1.848c4.974 3.114 10.006 6.125 15.051 9.121l2.829 1.698 2.644 1.568 2.325 1.383c2.145 1.103 3.74 1.847 6.14 2.101 2.196-.781 2.196-.781 4.387-2.14l2.566-1.479 2.734-1.631 2.85-1.667c7.857-4.631 15.513-9.538 23.126-14.556 4.606-3.01 9.255-5.952 13.9-8.902l2.777-1.767c1.74-1.107 3.484-2.21 5.23-3.306a152.211 152.211 0 004.683-3.112l2.087-1.417 1.789-1.26c2.717-1.108 4.082-.662 6.871.237z"
        fill="#FCFDFC" />
    <path
        d="M92 487h110c-1.222 7.945-2.47 15.74-4.148 23.577l-.623 2.953c-.674 3.194-1.354 6.387-2.034 9.58l-1.442 6.818c-1.276 6.034-2.557 12.067-3.838 18.1-1.317 6.204-2.63 12.409-3.943 18.613-1.809 8.55-3.62 17.099-5.432 25.648-3.675 17.338-7.33 34.68-10.977 52.023L165 666h55c-2.602 26.02-9.652 51.404-15 77H40c1.125-10.125 1.125-10.125 1.99-14.391l.592-2.946.645-3.148.688-3.406c.756-3.739 1.518-7.477 2.28-11.214.543-2.671 1.084-5.343 1.625-8.014a19191.8 19191.8 0 013.937-19.357c1.064-5.217 2.126-10.435 3.186-15.653a22350.926 22350.926 0 0126.182-126.934l.757-3.618c1.644-7.848 3.29-15.695 4.938-23.542l.637-3.031c.581-2.769 1.164-5.537 1.747-8.305l.512-2.44A276.444 276.444 0 0192 487z"
        fill="#fff" />
    <path
        d="M278 487h99c-.591 5.32-1.144 10.218-2.207 15.392l-.737 3.616-.806 3.89-.854 4.177a7300.99 7300.99 0 01-2.335 11.349c-.831 4.033-1.658 8.068-2.486 12.102-1.595 7.772-3.194 15.543-4.795 23.313-1.285 6.239-2.568 12.477-3.85 18.716-7.06 34.35-14.134 68.698-21.282 103.03l-.648 3.116c-3.98 19.104-7.993 38.2-12 57.299h-99c1.125-10.125 1.125-10.125 2.035-14.57l.622-3.066.678-3.28.722-3.543c.656-3.213 1.315-6.425 1.976-9.636.708-3.447 1.412-6.895 2.117-10.342 1.367-6.686 2.738-13.371 4.111-20.056 1.11-5.397 2.216-10.794 3.321-16.192 8.649-42.22 17.347-84.43 26.105-126.628l.72-3.462a40724.58 40724.58 0 016.904-33.215l.48-2.308c.679-3.253 1.403-6.477 2.209-9.702zM681 487h99c-5.744 29.868-5.744 29.868-8.267 42.114l-.875 4.266c-.776 3.785-1.554 7.57-2.333 11.353l-2.509 12.221c-1.592 7.757-3.186 15.514-4.78 23.27-2.104 10.237-4.206 20.475-6.307 30.712a83104.684 83104.684 0 01-7.776 37.838l-.515 2.505c-2.31 11.239-4.611 22.478-6.905 33.72-1.23 6.033-2.464 12.066-3.698 18.099-.998 4.88-1.993 9.762-2.985 14.643a6763.08 6763.08 0 01-1.828 8.947c-.283 1.383-.564 2.766-.844 4.15-.38 1.878-.766 3.755-1.151 5.632l-.65 3.183C728 742 728 742 727 743c-3.075.095-6.127.126-9.201.114h-2.927c-3.209 0-6.417-.009-9.626-.016l-6.654-.005c-5.851-.003-11.702-.013-17.553-.024-5.966-.01-11.931-.015-17.896-.02-11.715-.01-23.429-.028-35.143-.049a3807.89 3807.89 0 0110.537-53.311l1.681-8.232a55374.564 55374.564 0 017.315-35.78c7.956-38.91 15.939-77.813 24.045-116.691.61-2.922 1.217-5.843 1.825-8.765.935-4.494 1.873-8.989 2.814-13.482.338-1.615.675-3.23 1.01-4.844.451-2.164.905-4.326 1.36-6.489l.76-3.633C680 489 680 489 681 487z"
        fill="#fff" />
    <path
        d="M992.867 104.465c1.394.817 2.772 1.664 4.133 2.535l2.03 1.226a326.418 326.418 0 016.47 4.087l5.031 3.207 2.68 1.709c4.912 3.119 9.852 6.193 14.789 9.271a4291.273 4291.273 0 0123.755 14.928c4.471 2.828 8.951 5.64 13.44 8.44l3.233 2.015c2.07 1.29 4.142 2.58 6.215 3.867A545.751 545.751 0 011092 167c-1.356 4.069-3.993 5.071-7.535 7.098l-2.016 1.182a929.182 929.182 0 01-4.283 2.493 1613.739 1613.739 0 00-8.94 5.224c-1.413.829-2.826 1.655-4.241 2.479-6.013 3.507-11.917 7.178-17.798 10.903-5.768 3.633-11.608 7.15-17.437 10.684l-1.809 1.096c-4.312 2.615-8.627 5.228-12.941 7.841-4.813 2.915-9.626 5.832-14.438 8.75l-1.775 1.077a2790.957 2790.957 0 00-25.129 15.432A2286.374 2286.374 0 01954.5 253a3160.443 3160.443 0 00-21.938 13.437l-2.542 1.567a800.538 800.538 0 00-14.493 9.18l-3.293 2.113a640.166 640.166 0 00-6.33 4.119L903 285.273l-2.563 1.67c-3.042 1.32-4.322 1.11-7.437.057-2.377-1.208-2.377-1.208-4.852-2.738l-2.798-1.717-2.975-1.858-3.11-1.918a2308.89 2308.89 0 01-23.343-14.652 2722.521 2722.521 0 00-16.61-10.43l-3.03-1.892L827 246l-12.813-8-2.906-1.814A2296.135 2296.135 0 01792 224c2.887-2.366 5.73-4.56 8.95-6.453.75-.446 1.502-.891 2.277-1.35l2.46-1.447c7.984-4.74 15.914-9.559 23.813-14.438a4209.861 4209.861 0 0127.687-16.937l1.781-1.08 8.728-5.292a6707.016 6707.016 0 0042.262-25.831 4140.759 4140.759 0 0125.798-15.736 3332.976 3332.976 0 0022.698-13.867c2.208-1.36 4.418-2.716 6.631-4.068 4.587-2.804 9.142-5.622 13.59-8.642l2.066-1.361a300.16 300.16 0 005.11-3.482c3.485-1.124 3.893-1.045 7.016.449z"
        fill="#FDFEFD" />
    <path
        d="M894.242 43.477a334.238 334.238 0 0111.883 6.898c.885.535 1.77 1.07 2.683 1.62 7.44 4.51 14.802 9.139 22.145 13.806 5.663 3.597 11.355 7.148 17.047 10.699a3606.061 3606.061 0 0124.72 15.552c4.853 3.075 9.751 6.046 14.76 8.862L989 102v2c-1.882 1.35-1.882 1.35-4.555 2.914l-3.01 1.78-3.31 1.931a6760.84 6760.84 0 00-6.941 4.11l-1.809 1.069c-6.108 3.616-12.15 7.337-18.187 11.071A3747.29 3747.29 0 01924 143.5a3986.475 3986.475 0 00-27 16.5 4291.426 4291.426 0 01-28.97 17.707l-8.726 5.29a7534.883 7534.883 0 00-46.156 28.214l-3.028 1.85a289.261 289.261 0 00-6.607 4.229l-1.759 1.138a633.817 633.817 0 00-4.857 3.188C794 223 794 223 791.357 222.846c-2.24-.804-4.099-1.669-6.115-2.928l-2.114-1.306-2.253-1.424-2.398-1.492A1538.073 1538.073 0 01771 211l-2.309-1.453a4350.766 4350.766 0 01-11.582-7.317c-12.522-7.928-25.105-15.762-37.712-23.555-3.402-2.103-6.802-4.21-10.202-6.318-1.978-1.223-3.96-2.437-5.945-3.65l-3.063-1.894c-.83-.51-1.662-1.019-2.519-1.543L696 164v-2c2.221-1.45 4.44-2.765 6.75-4.063 1.573-.904 3.144-1.81 4.715-2.718l2.663-1.54c5.436-3.179 10.807-6.466 16.184-9.742l3.612-2.196 7.377-4.49c5.412-3.294 10.83-6.58 16.246-9.867 4.061-2.465 8.121-4.93 12.181-7.397l6.314-3.834a6558.873 6558.873 0 0036.26-22.188 5759.764 5759.764 0 0129.871-18.247 407681.22 407681.22 0 0132.21-19.604l3.166-1.928a52422.926 52422.926 0 008.74-5.323l2.397-1.46L887 46l2.654-1.709C892 43 892 43 894.242 43.477z"
        fill="#132451" />
    <path
        d="M1092 167c6.54 3.522 12.82 7.352 19.063 11.375a2341.227 2341.227 0 0024.124 15.25c10.294 6.423 20.575 12.863 30.813 19.375l2.415 1.534c2.364 1.505 4.725 3.015 7.085 4.529l2.16 1.374 1.996 1.286 1.744 1.117c1.717 1.245 3.14 2.625 4.6 4.16-12.802 8.043-25.634 16.027-38.56 23.868a2170.323 2170.323 0 00-18.94 11.632 2621.247 2621.247 0 01-21.688 13.313c-12.636 7.676-25.225 15.43-37.812 23.187-13.525 8.336-27.057 16.659-40.638 24.903a1992.602 1992.602 0 00-22.275 13.748A310.801 310.801 0 01990 347c-15.417-9.2-30.769-18.493-46-28l-2.854-1.78c-6-3.745-11.997-7.495-17.992-11.247-5.55-3.472-11.102-6.941-16.654-10.41l-6.094-3.81-2.584-1.614L896 289a87.456 87.456 0 0110.262-7.328l3.1-1.9 3.326-2.022 3.48-2.128c2.409-1.475 4.82-2.948 7.23-4.42 4.525-2.764 9.038-5.548 13.552-8.33a5382.275 5382.275 0 0130.73-18.801c6.189-3.763 12.355-7.561 18.508-11.383 11.68-7.253 23.44-14.374 35.2-21.499 5.293-3.207 10.583-6.42 15.874-9.634l6.93-4.207a56672.89 56672.89 0 0025.69-15.603l5-3.038 3.123-1.9a522.157 522.157 0 015.982-3.556l2.755-1.614 2.425-1.404c1.978-1.112 1.978-1.112 2.833-3.233z"
        fill="#C40026" />
    <path
        d="M493 107a123.74 123.74 0 016.96 3.938c.669.398 1.336.797 2.024 1.208 2.135 1.278 4.263 2.566 6.391 3.854 1.392.835 2.783 1.67 4.176 2.504 3.455 2.072 6.905 4.151 10.355 6.233 3.54 2.135 7.087 4.262 10.633 6.388l1.973 1.184L540 135c-1.23 3.688-2.246 4.059-5.504 6.047l-2.898 1.788-3.16 1.915-6.602 4.063-3.435 2.101c-8.245 5.057-16.436 10.203-24.627 15.348-1.822 1.142-3.647 2.28-5.474 3.414a1268.99 1268.99 0 00-7.3 4.574l-2.177 1.339c-1.662 1.057-3.252 2.224-4.823 3.411v3c2.371 1.827 2.371 1.827 5.484 3.547l1.73 1.013a739.33 739.33 0 005.536 3.19c1.2.697 2.399 1.395 3.598 2.094 2.373 1.381 4.75 2.757 7.13 4.127 5.188 2.985 10.354 6.009 15.522 9.029-3.957 4.346-8.199 7.163-13.25 10.125-1.626.973-3.251 1.949-4.875 2.926l-2.48 1.49c-3.594 2.19-7.122 4.472-10.645 6.772a2089.202 2089.202 0 01-20.125 12.937l-2.7 1.716c-1.746 1.11-3.496 2.214-5.248 3.313a177.092 177.092 0 00-5.612 3.77l-2.917 1.998-2.627 1.854C440 253 440 253 437.574 252.411c-2.997-1.643-5.971-3.302-8.914-5.044l-1.828-1.077a2498.005 2498.005 0 01-5.77-3.415 9001.81 9001.81 0 00-7.527-4.445l-1.886-1.115a957.968 957.968 0 00-13.083-7.561c-4.95-2.816-9.85-5.693-14.691-8.691a1248.65 1248.65 0 00-15.311-9.318 4281.68 4281.68 0 01-7.754-4.649c-1.289-.772-2.58-1.541-3.872-2.308-1.819-1.08-3.633-2.17-5.446-3.26l-3.207-1.915L346 198v-2c1.73-1.366 1.73-1.366 4.187-2.95.915-.592 1.829-1.186 2.771-1.797l3.042-1.94 3.128-2.017c10.286-6.611 20.661-13.08 31.044-19.537 14.446-8.937 14.446-8.937 28.515-18.447 5.194-3.657 10.547-6.756 16.104-9.808 7.16-3.964 13.953-8.439 20.792-12.928 4.635-3.022 9.31-5.983 13.98-8.951l2.775-1.766a1136.06 1136.06 0 015.233-3.307 152.211 152.211 0 004.682-3.112l2.087-1.417 1.789-1.26c2.717-1.108 4.082-.662 6.871.237z"
        fill="#FCFDFC" />
    <path
        d="M787.082 364.656c9.834 9.084 15.122 22.356 16.074 35.5.765 19.62-8.095 36.435-20.722 50.754-13.85 14.656-31.78 22.673-51.786 24.375-15.92.446-29.927-4.044-41.582-15.031-10.763-11.74-13.994-24.763-13.445-40.277 1.013-16.6 8.46-30.688 19.379-42.977.565-.636 1.13-1.271 1.71-1.926 23.094-24.448 63.136-32.084 90.372-10.418zM384.375 364.313c10.41 10.657 15.521 23.088 15.938 37.875-.432 20.446-8.905 36.811-22.72 51.343-15.284 14.49-34.827 22.17-55.843 21.778-14.932-1.23-27.261-6.674-37.676-17.668C277.441 449.196 273.83 439.687 273 429c-.07-.72-.14-1.441-.21-2.184-.783-15.908 5.353-32.58 15.41-44.832L290 380l2.582-2.86c23.822-25.481 62.426-34.717 91.793-12.827z"
        fill="#fff" />
    <path
        d="M419.894 150.244c2.376.853 4.37 1.94 6.536 3.24l2.63 1.567 2.815 1.699 5.922 3.543 3.084 1.85a965.932 965.932 0 009.322 5.47l3.008 1.753c1.908 1.11 3.817 2.217 5.73 3.319l2.63 1.538 2.304 1.336c2.34 1.587 4.189 3.389 6.125 5.441a3889.477 3889.477 0 01-36.991 23.365 2604.324 2604.324 0 00-23.968 15.156c-1.654 1.057-3.312 2.11-4.972 3.157a145.837 145.837 0 00-4.87 3.275C397 227 397 227 394.66 226.97c-3.71-1.351-6.91-3.36-10.223-5.469-1.58-.99-3.163-1.978-4.746-2.965l-2.679-1.675a817.083 817.083 0 00-10.422-6.301l-5.789-3.47c-1.285-.768-2.572-1.535-3.86-2.299-1.82-1.08-3.635-2.17-5.449-3.263l-3.207-1.914L346 198v-2c1.73-1.366 1.73-1.366 4.187-2.95.915-.592 1.829-1.186 2.771-1.797l3.042-1.94 3.128-2.017c10.275-6.605 20.64-13.065 31.014-19.515 4.504-2.807 8.995-5.635 13.483-8.469l2.313-1.457 2.164-1.367 2.024-1.27a77.607 77.607 0 003.584-2.47c3.84-2.806 3.84-2.806 6.184-2.504zM295 165c1.008.992 2.006 1.994 3 3 2.26 1.44 4.522 2.82 6.836 4.168l2.046 1.208a2432.86 2432.86 0 006.493 3.811c4.88 2.869 9.756 5.745 14.625 8.632a1067.03 1067.03 0 005.938 3.473c1.201.71 2.401 1.422 3.601 2.134l3.202 1.876L343 195v3a96.128 96.128 0 01-7.313 4.938l-2.323 1.463a1082.88 1082.88 0 01-4.901 3.065 878.425 878.425 0 00-6.979 4.397c-9.948 6.321-19.947 12.562-29.95 18.798l-2.878 1.796-2.824 1.749a202.977 202.977 0 00-5.82 3.835l-2.918 1.97-2.604 1.808c-3.072 1.457-4.309 1.263-7.49.181-2.086-1.025-2.086-1.025-4.16-2.3l-2.376-1.446-2.526-1.566-5.36-3.27-2.78-1.706c-4.52-2.765-9.065-5.488-13.61-8.212l-2.475-1.49A608.906 608.906 0 00220 214v-2c1.854-1.382 1.854-1.382 4.477-2.984l2.938-1.813 3.21-1.953 6.656-4.105 1.713-1.054c5.412-3.33 10.776-6.732 16.131-10.153a2439.207 2439.207 0 0117-10.786l3.042-1.915c1.924-1.211 3.85-2.418 5.779-3.62l2.624-1.656 2.305-1.444c2.234-1.495 2.234-1.495 4.214-3.702C292 165 292 165 295 165z"
        fill="#181818" />
    <path
        d="M387.437 43.62c2.946 1.586 5.87 3.188 8.762 4.872l1.784 1.038c1.904 1.11 3.805 2.227 5.704 3.345l1.955 1.146C416.354 60.308 426.797 66.911 437 74c-1.19 3.572-1.955 3.87-5.094 5.75l-2.595 1.576L426.5 83a4450.546 4450.546 0 00-5.82 3.535l-2.931 1.778c-3.755 2.304-7.442 4.705-11.124 7.124C396.248 102.224 385.62 108.603 375 115l-2.433 1.81C370 118 370 118 367.061 117.393a102.86 102.86 0 01-9.034-4.665l-3.448-1.985-3.642-2.117c-1.246-.72-2.492-1.438-3.739-2.156a4762.264 4762.264 0 01-7.552-4.363c-5.286-3.057-10.591-6.08-15.896-9.106a28863.414 28863.414 0 01-7.267-4.152L315 88c3.887-4.251 7.985-7.036 12.937-9.938 1.624-.97 3.246-1.943 4.868-2.917l2.577-1.549c3.526-2.15 7.002-4.375 10.476-6.608 4.699-3.02 9.42-6.004 14.142-8.988l3.336-2.12c3.394-2.15 6.81-4.266 10.226-6.38l3.227-2.054 3.027-1.852 2.67-1.666C385 43 385 43 387.437 43.62z"
        fill="#FCFDFC" />
    <path
        d="M549 802c6.115-.097 11.933.23 18 1-1.73 12.04-4.515 23.878-7.125 35.75l-1.418 6.484c-1.15 5.256-2.302 10.511-3.457 15.766h-12c.65-8.546 2.273-16.751 4.063-25.125L550 822l-17 39h-13l-1-39-8 39h-13c3.61-19.427 7.705-38.716 12-58h19l2 39c4.43-10.17 4.43-10.17 8.854-20.342l1.693-3.877.854-1.97c2.05-4.685 4.283-9.25 6.599-13.811z"
        fill="#fff" />
    <path
        d="M756 802c4.437-.059 8.875-.094 13.313-.125 1.243-.017 2.486-.034 3.767-.05 18.369-.097 18.369-.097 23.7 3.313 2.698 2.73 3.583 5.532 3.845 9.237-.231 4.427-1.84 7.277-4.434 10.8-1.31 2.006-1.93 3.443-2.191 5.825l2 3c.748 6.185.622 11.754-3 17-5.882 6.486-10.38 9.02-19 10-5.213.22-10.41.19-15.625.125-1.4-.01-2.8-.02-4.2-.027-3.391-.024-6.783-.057-10.175-.098 1.593-12.425 4.427-24.591 7.125-36.813l1.418-6.47c1.148-5.24 2.3-10.479 3.457-15.717zm10 11l-1 12c2.208.082 4.416.14 6.625.188l3.727.105c3.986-.32 6.303-1.128 9.648-3.293 1.308-1.747 1.308-1.747 1.875-3.688L788 815c-3.164-3.164-11.883-2.063-16-2.063l-6 .063zm-4 22c-.504 1.936-1.003 3.874-1.5 5.813l-.844 3.269c-.766 2.907-.766 2.907-.656 5.918 12.27.99 12.27.99 23-4 2.038-3.068 2.038-3.068 3-6-5.59-4.814-8.934-5.13-16.25-5.063l-3.828.028L762 835z"
        fill="#fff" />
    <path
        d="M674.25 802.813c4.417 2.997 8.062 7.124 9.75 12.187.991 14.023-.933 25.174-9.79 36.582-5.844 6.393-12.518 9.94-21.183 10.668-7.997.3-15.242-.436-21.683-5.57-4.936-5.251-5.793-12.271-5.59-19.2 1.244-12.538 6.056-22.74 15.844-30.785 9.19-6.485 22.103-8.612 32.652-3.883zm-30.152 17.765c-4.28 7.533-5.571 14.853-4.098 23.422 1.37 2.9 2.448 3.923 5 6 5.08 1.693 8.717 1.575 13.625-.625C665.9 844.671 668.915 838.218 671 830c.737-5.186.612-8.777-1.75-13.5-3.361-3.735-4.946-4.323-9.938-5-6.657.248-11.355 3.848-15.214 9.078zM430.164 803.73c4.503 3.114 7.139 7.074 8.836 12.27 1.233 13.115-1.413 24.885-9.785 35.2-6.042 6.498-13.24 10.312-22.133 11.038-7.901.18-14.52-.248-20.672-5.629-5.3-5.837-5.81-11.9-5.66-19.453.925-11.675 5.67-21.403 14.129-29.43 9.623-7.833 24.158-9.849 35.285-3.996zm-30.476 15.645c-4.774 7.425-6.757 15.278-5 24.063 1.78 3.475 3.804 5.808 7.312 7.562 5.765.596 9.326.018 14.11-3.324 7.24-6.419 9.414-14.056 10.202-23.364-.457-4.854-1.771-7.991-5.5-11.187-8.7-3.48-14.989-.052-21.125 6.25z"
        fill="#fff" />
    <path
        d="M1203.75 802.813c4.006 2.696 6.363 4.341 7.438 9.125l.48 2.027C1212 816 1212 816 1212 820l-12 1-1.313-2.875c-1.48-3.325-1.48-3.325-4.687-5.125-3.392-.546-6.607-.536-10 0-3.657 2.687-5.097 4.643-6 9l3.402.734c20.056 4.439 20.056 4.439 25.723 9.891 2.25 4.05 2.377 6.285 1.633 10.785-2.364 8.079-7.208 12.468-14.39 16.496-7.157 3.307-16.696 3.375-24.247 1.305-3.64-1.571-6.523-3.167-9.121-6.211-1.614-4.501-2.087-8.254-2-13 4.055-.344 7.958-.54 12 0 2.563 2.875 2.563 2.875 4 6 4.26 2.84 8.003 2.51 13 2 3.075-.973 3.075-.973 5-3 .887-2.591.887-2.591 1-5-4.97-2.783-9.6-4.504-15.125-5.938-5.536-1.5-8.99-2.845-12.875-7.062-2.05-4.099-1.534-8.308-.2-12.54 3.357-7.633 8.203-11.025 15.524-14.593 6.704-2.172 16.018-2.17 22.426.946z"
        fill="#fff" />
    <path
        d="M1059 803h44l-2 10h-31l-1 9-1 3h28c-2 9-2 9-3 11h-27l-2 13 30 1c-1 9-1 9-2 11h-44c1.125-11.25 1.125-11.25 2.031-15.542l.607-2.91.647-3.025.668-3.185c.699-3.322 1.404-6.643 2.11-9.963l1.431-6.8c1.162-5.527 2.334-11.05 3.506-16.575zM210.313 801.938L214 802c-.713 7.916-2.207 15.596-3.813 23.375l-.751 3.79C204.792 851.753 204.792 851.753 196 858c-7.748 4.733-16.139 4.968-25 4-4.557-1.22-7.19-3.19-10.5-6.5-4.387-10.235-.342-22.631 1.938-33.063.33-1.557.658-3.115.986-4.673 2.35-11.088 2.35-11.088 3.576-14.764h13c-.67 8.344-2.271 16.21-4.184 24.346-1.108 4.87-2.077 9.734-2.722 14.69l-.354 2.671c.036 2.438.036 2.438 2.04 4.08 3.23 1.765 5.594 1.595 9.22 1.213 4.257-1.838 5.873-3.96 8-8 .892-2.88.892-2.88 1.5-5.973l.75-3.478.75-3.611a465883127.282 465883127.282 0 012.238-10.497c1.146-5.175 2.438-10.31 3.762-15.441 3.176-.665 6.065-1.118 9.313-1.063zM70.89 802.414c1.455.04 2.909.111 4.36.211l2.258.082c1.832.07 3.662.178 5.492.293 1.005 6.973 2 13.948 2.99 20.923.338 2.37.678 4.741 1.02 7.111.491 3.415.976 6.831 1.459 10.247l.464 3.19c.78 5.573 1.232 10.9 1.067 16.529H76v-12c-12.714-1.15-12.714-1.15-23.73 3.516-1.85 3.342-1.85 3.342-3.27 8.484H35c1.543-4.628 2.95-7.953 5.344-12.078l.986-1.712c1.052-1.823 2.11-3.641 3.17-5.46 1.455-2.517 2.907-5.036 4.36-7.555l1.084-1.877a837.113 837.113 0 009.96-17.811l1.08-1.968.898-1.65L63 809l1.61-3.198C67 803 67 803 70.89 802.414zM71 819a3985.147 3985.147 0 00-4.438 7.813l-1.275 2.236-1.22 2.158-1.127 1.984c-1.075 1.954-1.075 1.954-1.94 4.809h13c-.114-2.793-.24-5.583-.375-8.375-.03-.794-.062-1.588-.094-2.406-.05-4.586-.05-4.586-2.531-8.219zM280.905 801.88l2.523.006h2.851l3.1.016 3.157.005c3.342.005 6.684.018 10.027.03A9791.798 9791.798 0 01326 802l-1.001 11h-18l-.918 4.66A1999.675 1999.675 0 01297 861h-13c.642-9.92 2.913-19.447 5.063-29.125l1.142-5.21c.925-4.224 1.86-8.444 2.795-12.665l-16-1c.969-10.935.969-10.935 3.905-11.12z"
        fill="#fff" />
    <path
        d="M961.313 801.938L965 802c-.525 9.921-2.56 19.486-4.563 29.188l-.998 4.908c-.806 3.97-1.622 7.936-2.439 11.904l27 1c-1 10-1 10-2 12h-41c1.125-11.25 1.125-11.25 2.031-15.542l.607-2.91.647-3.025.668-3.185c.699-3.322 1.404-6.643 2.11-9.963l1.431-6.8c1.163-5.527 2.332-11.051 3.506-16.575 3.176-.665 6.065-1.118 9.312-1.062zM884 802c-1.337 11.094-3.564 21.927-5.941 32.836-.628 2.883-1.25 5.769-1.87 8.654a12469.159 12469.159 0 01-2.281 10.536l-.46 2.113c-.396 1.644-.913 3.257-1.448 4.861h-13c.708-6.497 1.908-12.817 3.25-19.21l.661-3.18c.46-2.205.92-4.408 1.382-6.611.709-3.383 1.411-6.767 2.113-10.151l1.344-6.434c.21-1.014.42-2.029.638-3.074l.596-2.834.523-2.497C870 805 870 805 871 803c4.288-1.3 8.565-1.075 13-1z"
        fill="#fff" />
</svg>