<svg xmlns="http://www.w3.org/2000/svg" width="3600" height="2000">
    <path
        d="M189.636-.126l2.832-.005c3.134-.003 6.268 0 9.402.003 2.282 0 4.563-.003 6.845-.005 6.304-.004 12.609-.002 18.913 0 6.162.003 12.323 0 18.485-.004 12.81-.005 25.62-.006 38.431-.005 13.056.002 26.112.001 39.168-.002h2.507l12.671-.004c30.87-.008 61.74-.011 92.61-.012a615319.188 615319.188 0 00124-.013 2196501.008 2196501.008 0 01285.803-.028A4275687.364 4275687.364 0 001051.7-.216h3.422l163.067-.012h3.514c73.9-.005 147.798-.008 221.697-.01h58.267a109911190.005 109911190.005 0 0069.52-.002c115.341-.003 230.682-.008 346.023-.024h3.68a11258792.782 11258792.782 0 00230.603-.034h3.632c75.06-.011 150.12-.018 225.18-.021h3.514a4575478.95 4575478.95 0 01224.353-.005 879163.929 879163.929 0 00213.316-.024c51.164-.01 102.33-.02 153.494-.018h3.146a929917.947 929917.947 0 0195.034.008h2.985c31.254.004 62.507-.003 93.76-.014a127092.558 127092.558 0 01104.965.002h2.501c13.007.004 26.015-.002 39.022-.012 12.73-.01 25.458-.01 38.187.003 6.776.006 13.551.007 20.327-.005 6.153-.01 12.305-.008 18.458.006 2.202.003 4.403 0 6.604-.008 16.997-.058 33.593 1.318 50.092 5.636l2.462.634C3485.916 14.793 3515.124 32.177 3540 56l1.512 1.43c33.156 31.462 56.964 79.119 58.58 125.21.037 2.99.042 5.98.036 8.97l.005 3.479a4788.3 4788.3 0 010 9.548c-.002 3.477.002 6.954.005 10.431.004 6.116.005 12.232.004 18.348-.002 9.156.001 18.313.006 27.469.008 15.605.011 31.21.012 46.814 0 15.817.003 31.634.008 47.451l.001 3.026.004 12.201c.016 48.159.023 96.318.028 144.477.002 23.979.006 47.958.01 71.936a1913625.94 1913625.94 0 01.03 297.18c.003 79.345.018 158.69.041 238.035a797723.142 797723.142 0 01.042 286.304c0 36.508.01 73.017.025 109.525a178768.244 178768.244 0 01.009 125.57l-.001 3.02c-.003 15.768.005 31.537.016 47.306.011 15.511.012 31.022 0 46.532-.005 9.09-.003 18.18.011 27.27.009 6.044.006 12.089-.005 18.133-.006 3.422-.005 6.843.005 10.265.052 18.422-.951 36.24-5.634 54.132l-.634 2.463c-8.909 33.391-26.293 62.599-50.116 87.475l-1.43 1.512c-31.444 33.137-78.85 56.733-124.869 58.58-2.446.035-4.89.04-7.337.034l-2.832.005c-3.134.003-6.268 0-9.402-.003-2.282 0-4.563.003-6.845.005-6.304.004-12.609.002-18.913 0-6.162-.003-12.323 0-18.485.004-12.81.005-25.62.006-38.431.005-13.056-.002-26.112-.001-39.168.002h-2.507l-12.671.004c-30.87.008-61.74.011-92.61.012a615319.188 615319.188 0 00-124 .013 2196501.009 2196501.009 0 01-285.803.028 4275687.365 4275687.365 0 00-210.397.015h-3.422l-163.067.012h-3.514c-73.9.005-147.798.008-221.697.01h-58.267a109911192.441 109911192.441 0 00-69.52.002c-115.341.003-230.682.008-346.023.024h-3.68a11259086.341 11259086.341 0 00-230.603.034h-3.632c-75.06.011-150.12.018-225.18.021h-3.514a4575478.95 4575478.95 0 01-224.353.005c-51.95 0-103.898.003-155.846.013h-3.396l-54.074.011c-51.164.01-102.33.02-153.494.018h-3.146a929912.326 929912.326 0 01-95.034-.008h-2.985c-31.254-.004-62.507.003-93.76.014a127092.615 127092.615 0 01-107.466-.002c-13.007-.004-26.015.002-39.022.012-12.73.01-25.458.01-38.187-.003-6.776-.006-13.551-.007-20.327.005-6.153.01-12.305.008-18.458-.006-2.202-.003-4.403 0-6.604.008-16.997.058-33.593-1.318-50.091-5.636l-2.463-.634C114.084 1985.207 84.876 1967.823 60 1944l-1.512-1.43c-33.156-31.462-56.964-79.119-58.58-125.21-.037-2.99-.042-5.98-.036-8.97l-.005-3.479a4788.3 4788.3 0 010-9.548c.002-3.477-.002-6.954-.005-10.431-.004-6.116-.005-12.232-.004-18.348.002-9.156-.001-18.313-.006-27.469-.008-15.605-.011-31.21-.012-46.814 0-15.817-.003-31.634-.008-47.451l-.001-3.026-.004-12.201c-.016-48.159-.023-96.318-.028-144.477-.002-23.979-.006-47.958-.01-71.936a1913621.812 1913621.812 0 01-.03-297.18c-.003-79.345-.018-158.69-.041-238.035-.017-57.01-.033-114.022-.037-171.033v-3.553a1193232.741 1193232.741 0 01-.005-111.718c0-36.508-.01-73.017-.025-109.525a178768.244 178768.244 0 01-.008-128.59c.003-15.768-.005-31.537-.016-47.306-.011-15.511-.012-31.022 0-46.532.005-9.09.003-18.18-.011-27.27-.009-6.044-.006-12.089.005-18.133.006-3.422.005-6.843-.005-10.265-.052-18.422.951-36.24 5.634-54.133l.634-2.462C14.793 114.084 32.177 84.876 56 60l1.43-1.512C90.69 23.436 140.981-.258 189.635-.126zM127 132c-25.164 27.078-27.16 59.436-27.126 94.671 0 2.741-.002 5.482-.004 8.223-.004 5.967-.003 11.935 0 17.903.004 8.933.002 17.867 0 26.801-.006 15.228-.005 30.455-.003 45.683a148165.219 148165.219 0 010 61.155c-.006 36.977-.006 73.953-.003 110.93v6.645a900770.678 900770.678 0 01.001 133.95l-.002 75.408v3.468c0 36.477 0 72.953.003 109.43v3.585l.004 57.643a1792862.94 1792862.94 0 01-.004 286.238v3.584l-.003 109.314v3.466a3096447.55 3096447.55 0 00.003 108.979c.001 33.413 0 66.826-.002 100.238v6.634a507591.53 507591.53 0 00.005 122.482v2.944c.002 15.389 0 30.777-.002 46.166-.003 15.128-.002 30.255.003 45.382.003 8.871.002 17.742-.002 26.613-.002 5.892 0 11.784.003 17.677.002 3.34.003 6.679 0 10.018-.032 35.322 3.627 66.66 29.32 93.024 26.456 25.867 57.51 29.914 93.05 29.871l6.783.005c6.223.003 12.446 0 18.669-.003 6.09-.002 12.179 0 18.268.003 12.655.004 25.309.004 37.963 0 12.892-.002 25.784-.003 38.677-.001h2.477l12.525.002c30.493.005 60.986.004 91.479.002 30.91-.003 61.82-.004 92.73-.002h2.953a4858816.998 4858816.998 0 0193.984.006h3.11a1832945.268 1832945.268 0 00158.472-.001h3.33a17338599.265 17338599.265 0 0146.827-.002c51.308-.002 102.616-.001 153.924 0h16.788a43787808.89 43787808.89 0 01204.9.003h3.471c74.18 0 148.359 0 222.538-.003h3.589l119.015-.004a6828589.817 6828589.817 0 01573.178.004h3.588a6223544.136 6223544.136 0 00447.46 0 2889397.369 2889397.369 0 01200.73.002H2809.642c50.536.002 101.073.004 151.61.001h3.105a2612172.548 2612172.548 0 0093.831-.006h2.948c30.871-.002 61.743 0 92.615.002a370789.08 370789.08 0 00106.116-.005c12.853-.001 25.705 0 38.558.003 12.568.003 25.136.002 37.704-.002 6.693-.003 13.387-.003 20.08 0 6.072.004 12.144.003 18.216-.002 2.179-.001 4.357 0 6.536.002 33.946.038 64.09-4.758 89.293-29.32 27.174-27.793 29.907-60.354 29.872-97.48 0-2.741.002-5.482.004-8.223.004-5.967.003-11.935 0-17.903-.004-8.933-.002-17.867 0-26.801.006-15.228.005-30.455.003-45.683-.003-15.43-.004-30.86-.002-46.289v-2.954l.002-11.912c.006-36.977.006-73.953.003-110.93v-3.32-3.325a900770.678 900770.678 0 01-.001-133.95l.002-75.408v-3.468a1545656.973 1545656.973 0 00-.007-170.658 1792861.094 1792861.094 0 01.004-289.822l.003-109.314v-3.466a3096396.854 3096396.854 0 00-.003-108.979c-.001-33.413 0-66.826.002-100.238v-3.32-3.314a507592.162 507592.162 0 00-.005-122.482v-2.944c-.002-15.389 0-30.777.002-46.166.003-15.128.002-30.255-.003-45.382-.003-8.871-.002-17.742.002-26.613.002-5.892 0-11.784-.003-17.677-.002-3.34-.003-6.679 0-10.018.032-35.322-3.627-66.66-29.32-93.024-26.456-25.867-57.51-29.914-93.05-29.871l-6.783-.005c-6.223-.003-12.446 0-18.669.003-6.09.002-12.179 0-18.268-.003a65786.23 65786.23 0 00-37.963 0c-12.892.002-25.784.003-38.677.001h-2.477l-12.525-.002c-30.493-.005-60.986-.004-91.479-.002-30.91.003-61.82.004-92.73.002h-2.953a4858817.047 4858817.047 0 01-97.094-.006 1832945.268 1832945.268 0 00-158.472.001h-3.33a17338599.638 17338599.638 0 01-46.827.002c-51.308.002-102.616.001-153.924 0H2578.8a43810287.445 43810287.445 0 01-208.371-.003 6236688.568 6236688.568 0 00-345.142.007 6828589.817 6828589.817 0 01-573.178-.004h-3.588l-222.42-.003h-3.47a12419122.573 12419122.573 0 00-221.57.003 2889397.369 2889397.369 0 01-200.73-.002H790.358c-50.536-.002-101.073-.004-151.61-.001h-3.105a2612172.553 2612172.553 0 00-93.831.006h-2.948c-30.871.002-61.743 0-92.615-.002a370789.08 370789.08 0 00-106.116.005c-12.853.001-25.705 0-38.558-.003-12.568-.003-25.136-.002-37.704.002-6.693.003-13.387.003-20.08 0-6.072-.004-12.144-.003-18.216.002-2.179.001-4.357 0-6.536-.002-35.761-.04-66.22 5.723-92.039 32.129z"
        fill="currentColor" />
    <path
        d="M483.612 452.866l6.57-.007c5.994-.006 11.987-.006 17.981-.004 6.474 0 12.948-.006 19.422-.01 12.676-.009 25.352-.012 38.027-.012a117309.949 117309.949 0 0042.081-.01 196339.826 196339.826 0 0183.764-.008c24.768 0 49.535-.007 74.303-.02a142713.975 142713.975 0 0192.498-.024h2.22c11.749 0 23.498-.006 35.246-.015 11.825-.008 23.65-.009 35.475-.003 6.397.004 12.793.004 19.19-.005 5.87-.008 11.739-.006 17.608.002 2.11.002 4.22 0 6.33-.005 50.27-.125 50.27-.125 68.673 10.255l3.062 1.688c14.917 11.742 18.61 27.878 20.854 45.852 1.967 16.903 2.234 33.935 2.218 50.932l.007 5.617c.006 5.083.006 10.165.004 15.248 0 5.506.006 11.012.01 16.518.009 10.764.011 21.527.012 32.29 0 8.757.003 17.513.006 26.27.007 20.838.013 41.677.013 62.515V738.135c-.001 21.036.006 42.072.02 63.108.015 23.692.024 47.385.023 71.077 0 12.523.002 25.046.013 37.57.01 10.66.011 21.322.005 31.984-.004 5.429-.004 10.858.005 16.287.12 79.341.12 79.341-15.533 96.312-9.256 8.225-21.078 10.08-33.032 9.965l-3.337-.023c-11.657-.237-21.615-2.114-30.35-10.415-9.13-9.637-11.713-23.634-13.1-36.42l-.258-2.363c-.83-8.208-.926-16.366-.907-24.609l-.013-5.011c-.012-4.535-.012-9.07-.01-13.604.001-4.912-.01-9.824-.02-14.736-.015-8.498-.024-16.995-.028-25.492-.005-12.31-.024-24.619-.046-36.928-.036-20.007-.064-40.014-.086-60.021l-.004-3.622a674159.16 674159.16 0 01-.06-54.488l-.004-3.614c-.022-19.932-.052-39.864-.088-59.796-.022-12.268-.036-24.536-.042-36.804-.004-8.415-.016-16.83-.032-25.245-.01-4.843-.016-9.686-.013-14.53 2.48-41.055 2.48-41.055-11.781-77.397-18.283-17.583-58.99-11.49-82.081-11.45-3.435.005-6.87.002-10.305-.004-41.07-2.383-41.07-2.383-78.122 11.134-16.413 17.076-13.187 48.218-13.185 70.084-.002 3.578-.02 7.156-.04 10.734-1.293 30.603-1.293 30.603 10.807 57.31 9.476 7.334 21.074 11.035 32.443 14.304 12.735 3.662 26.515 7.7 33.975 19.568 9.632 17.746 8.151 40.844 8.145 60.434l.01 5.723c.01 5.141.012 10.282.012 15.424l.006 9.684c.009 11.308.013 22.615.012 33.923 0 10.464.01 20.927.026 31.39.013 9.044.018 18.086.018 27.13 0 5.373.002 10.747.013 16.121.174 93.995.174 93.995-20.164 116.276-14.496 14.1-36.673 17.015-56.058 17.098l-3.178.017c-2.218.01-4.436.016-6.654.02-3.32.01-6.64.04-9.96.073-22.904.113-48.56-.433-66.353-16.875-26.708-28.493-20.026-79.234-20.032-115.511-.002-4.509-.01-9.017-.016-13.526-.012-7.785-.02-15.57-.026-23.356-.01-12.324-.031-24.647-.053-36.97l-.023-12.696-.005-3.203a147217.37 147217.37 0 01-.063-39.267c-.026-17.743-.045-35.485-.061-53.228-.018-18.277-.047-36.553-.085-54.83-.024-11.242-.038-22.484-.04-33.726-.002-7.704-.015-15.408-.036-23.111-.012-4.434-.02-8.868-.013-13.302C680.69 590.365 680.69 590.365 669 559c-12.535-8.635-28.313-9.927-43.09-10.555l-2.992-.127c-12.166-.467-24.334-.468-36.507-.448-3.972.005-7.944 0-11.917-.007-11.603-.003-23.193.058-34.787.563l-2.577.11c-12.861.645-29.843 1.532-39.759 10.745-9.33 11.696-11.455 27.838-11.532 42.35l-.015 2.172c-.015 2.347-.022 4.694-.027 7.04l-.009 2.459c-.015 4.298-.024 8.595-.028 12.893-.006 4.393-.03 8.785-.058 13.178-.019 3.418-.024 6.836-.026 10.255-.003 1.616-.01 3.233-.024 4.85-.11 14.492.004 30.49 9.7 42.147 8.451 8.321 21.274 11.705 32.335 14.938 13.43 3.94 26.205 8.459 34.715 20.406 1.076 1.98 1.867 3.9 2.598 6.031l.824 2.348c4.638 14.998 4.47 30.943 4.435 46.478l.01 6.098c.01 5.471.006 10.943 0 16.414-.005 5.765 0 11.53.002 17.295.004 9.684 0 19.369-.01 29.053-.011 11.135-.008 22.27.003 33.405.01 9.615.01 19.23.006 28.845-.004 5.719-.004 11.437.003 17.155.091 91.16.091 91.16-20.273 112.909-14.787 13.316-36.592 16.119-55.762 16.203l-3.11.017c-2.171.01-4.342.016-6.513.02-3.248.01-6.495.04-9.742.073-24.46.123-51.97-1.118-70.62-18.95-10.423-10.93-13.183-24.69-15.003-39.238l-.35-2.762c-2.724-24.717-2.052-49.844-2.045-74.673 0-5.108-.006-10.215-.01-15.322-.009-9.97-.011-19.942-.012-29.912 0-8.117-.003-16.233-.006-24.35-.009-23.092-.013-46.184-.012-69.276v-3.759-3.763c0-20.117-.01-40.234-.023-60.35a84424.8 84424.8 0 01-.02-62.204c0-11.609-.003-23.218-.014-34.827-.01-9.884-.011-19.768-.005-29.652.004-5.027.004-10.054-.005-15.08-.03-18.044.025-36.044 1.154-54.058l.24-3.826c1.385-19.72 3.486-41.254 19.003-55.245 20.506-15.813 51.955-14.22 76.467-14.2zM1259.867 452.866l4.046-.007c3.668-.006 7.336-.006 11.003-.004 3.971 0 7.942-.006 11.913-.01 7.767-.009 15.534-.011 23.3-.012 6.321 0 12.642-.003 18.963-.006 17.963-.009 35.925-.013 53.888-.012h5.862c15.665 0 31.33-.01 46.997-.023 16.125-.015 32.251-.022 48.377-.02 9.037 0 18.074-.003 27.111-.014 7.698-.01 15.396-.011 23.093-.005 3.918.004 7.836.004 11.753-.005 68.903-.144 68.903-.144 85.827 16.252 17.184 20.311 16.321 50.816 16.254 76.05a5634.71 5634.71 0 01.007 21.42c-.004 5.654.003 11.306.008 16.959.01 11.046.007 22.093.002 33.14-.005 8.982-.006 17.965-.003 26.948v3.886l.003 7.816c.005 23.69 0 47.381-.011 71.072-.01 21.586-.009 43.173 0 64.76a105103.38 105103.38 0 01.008 80.7l-.001 3.867c-.002 8.967 0 17.933.006 26.899.005 10.935.004 21.87-.007 32.805-.005 5.572-.007 11.144 0 16.716.005 5.112.002 10.225-.009 15.337-.002 1.837 0 3.675.004 5.512.062 25.354-.272 55.6-18.855 74.926-17.101 15.546-45.313 16.343-67.223 16.327l-4.102.01c-3.73.007-7.459.01-11.188.01-4.034.002-8.067.01-12.101.016-8.808.014-17.617.02-26.425.024l-16.53.012c-15.285.012-30.57.022-45.854.026h-5.927l-5.95.002h-2.982c-15.921.005-31.842.022-47.763.046-16.384.023-32.767.036-49.15.037-9.184 0-18.367.007-27.55.025-7.825.015-15.649.02-23.473.012-3.983-.004-7.965-.003-11.948.011-62.856.211-62.856.211-83.052-19.07-24.306-25.565-17.5-78.439-17.457-111.05.006-5.06 0-10.12-.002-15.181-.004-8.49 0-16.98.01-25.47.011-9.722.008-19.443-.003-29.165-.01-8.445-.01-16.89-.006-25.335a7642 7642 0 00-.003-15.002c-.02-18.362.024-36.687 1.176-55.018l.24-3.815c1.388-19.706 3.497-41.22 19.002-55.199 21.118-16.285 53.806-14.211 78.963-14.24l7.297-.02c5.22-.014 10.438-.026 15.657-.036 7.568-.014 15.135-.035 22.702-.058 12.31-.038 24.62-.073 36.93-.105l2.227-.006a79391.035 79391.035 0 0133.473-.078l2.218-.005c12.259-.027 24.518-.061 36.777-.101 7.536-.025 15.072-.043 22.608-.054 5.793-.008 11.586-.027 17.378-.049 2.358-.007 4.715-.011 7.072-.012 34.93 1.26 34.93 1.26 65.553-12.302 10.575-12.48 11.142-31.483 11.203-47.023l.017-3.457c.01-2.41.016-4.818.02-7.227.01-3.622.04-7.245.073-10.867.081-17.951.15-37.221-8.938-53.301-15.556-13.919-42.48-12.435-62.061-12.384l-5.334-.01c-4.767-.01-9.533-.006-14.3 0-5.024.005-10.05 0-15.074-.002-8.43-.004-16.861 0-25.292.01-9.703.011-19.407.008-29.111-.003-8.381-.01-16.762-.01-25.143-.006-4.984.004-9.968.004-14.952-.003a3812.08 3812.08 0 00-14.061.01c-1.706.003-3.411.002-5.117-.002-27.192-.553-27.192-.553-51.442 9.55-8.44 9.726-9.824 22.922-11.555 35.169-2.353 16.574-5.996 33.148-19.843 44.05-12.124 8.074-27.488 9.107-41.586 6.965-10.488-2.459-19.767-6.846-26.129-15.844-19.836-34.239-14.056-101.494-4.375-138.625 3.756-12.324 10.542-21.831 22-28 18.943-8.23 40.508-9.16 60.867-9.134zm103.32 350.88c-12.394 14.905-11.346 39.156-11.355 57.41l-.01 4.66c-.006 3.243-.008 6.488-.007 9.732 0 3.287-.007 6.574-.02 9.861-2.032 37.545-2.032 37.545 10.205 71.591 7.262 7.246 16.713 9.29 26.586 10.663l2.741.382c10.752 1.379 21.475 1.39 32.298 1.353a3408.36 3408.36 0 0020.385-.007c5.819-.017 11.637-.007 17.456.01 4.546.012 9.091.008 13.637 0 2.143-.002 4.286 0 6.429.008 31.734.685 31.734.685 59.468-12.409 12.725-12.939 11.317-36.795 11.3-53.7l.014-5.307c.007-3.686.007-7.373.002-11.06-.006-4.665.01-9.329.034-13.993.015-3.65.016-7.298.013-10.948 0-1.716.005-3.433.015-5.15.298-29.71.298-29.71-12.476-55.229-15.552-13.19-43.336-10.925-62.433-10.879l-6.037-.005c-4.186-.003-8.37 0-12.556.01-5.307.012-10.615.005-15.923-.007a4141.9 4141.9 0 00-12.437 0c-1.955.002-3.91 0-5.865-.005-32.962-.841-32.962-.841-61.463 13.02zM2783.813 195.688l2.651.017c11.971.223 22.069 2.894 31.313 10.818 13.972 14.577 13.361 40.605 13.397 59.317l.02 4.385c.014 3.128.026 6.255.036 9.383.015 4.962.04 9.925.065 14.887.07 14.104.13 28.208.182 42.313.028 7.805.064 15.61.106 23.416.027 4.915.045 9.83.056 14.745.01 3.081.027 6.162.047 9.243.007 1.408.011 2.817.012 4.226.004 7.6.343 15.081 1.208 22.628l.239 2.108c1.447 11.6 5.404 23.028 14.78 30.514 12.626 7.988 29.42 8.463 43.893 8.457l3.161.01c3.472.011 6.943.015 10.415.019l7.498.02c5.373.014 10.746.026 16.119.036 7.79.014 15.582.035 23.373.058a79014.683 79014.683 0 0072.494.184l2.285.005 2.282.005c12.615.027 25.23.061 37.844.101 7.758.025 15.516.043 23.274.054 5.966.008 11.933.027 17.9.049 2.427.007 4.855.011 7.283.012 60.7.02 60.7.02 78.715 15.404 11.964 12.586 14.957 30.196 16.539 46.898l.253 2.546c.888 10.035.89 20.023.88 30.088l.008 5.924c.006 5.4.006 10.799.004 16.198 0 5.834.006 11.667.01 17.501.009 11.419.011 22.838.012 34.256a96100.845 96100.845 0 00.008 35.886l.001 2.017a159280.38 159280.38 0 01.01 68.982v6.452c-.001 22.31.006 44.62.02 66.93a115843 115843 0 01.023 75.282c0 13.277.002 26.553.013 39.83.01 11.302.011 22.605.005 33.907-.004 5.763-.004 11.525.005 17.287.008 5.284.006 10.568-.002 15.851-.002 1.903 0 3.805.005 5.707.13 47.306.13 47.306-14.29 63.665-11.676 11.223-25.513 11.148-40.809 10.968-11.201-.338-20.017-3.773-27.8-12.02-13.52-16.497-13.507-40.393-13.5-60.61l-.011-4.967c-.01-4.53-.014-9.06-.016-13.589-.004-4.893-.014-9.787-.023-14.68-.015-8.476-.026-16.953-.036-25.43-.014-12.28-.035-24.56-.058-36.839-.038-19.956-.073-39.912-.105-59.868l-.006-3.618c-.026-16.92-.05-33.84-.073-50.759l-.005-3.606-.005-3.603a86210.53 86210.53 0 00-.101-59.604c-.025-12.237-.044-24.474-.054-36.71-.007-8.4-.022-16.8-.042-25.199-.011-4.835-.02-9.67-.019-14.505 2.318-41.291 2.318-41.291-10.493-78.908-19.167-18.67-63.768-11.917-88.302-11.896-4.018.002-8.035 0-12.053-.002-6.737-.002-13.475 0-20.213.006-7.726.005-15.452.003-23.178-.002-6.704-.005-13.408-.005-20.112-.003-3.973.002-7.946.002-11.919-.001-20.77-.026-20.77-.026-41.53.562l-2.541.11c-12.815.657-29.714 1.569-39.59 10.745-9.33 11.696-11.455 27.838-11.532 42.35l-.015 2.172c-.015 2.347-.022 4.694-.027 7.04l-.009 2.459c-.015 4.298-.024 8.595-.028 12.893-.006 4.393-.03 8.785-.058 13.178-.019 3.418-.024 6.836-.026 10.255-.003 1.616-.01 3.233-.024 4.85-.11 14.492.004 30.49 9.7 42.147 8.451 8.321 21.274 11.705 32.335 14.937 13.43 3.942 26.205 8.46 34.715 20.407 1.076 1.98 1.867 3.9 2.598 6.031l.824 2.348c4.638 14.998 4.47 30.943 4.435 46.478l.01 6.098c.01 5.471.006 10.943 0 16.414-.005 5.765 0 11.53.002 17.295.004 9.684 0 19.369-.01 29.053-.011 11.135-.008 22.27.003 33.405.01 9.615.01 19.23.006 28.845-.004 5.719-.004 11.437.003 17.155.091 91.16.091 91.16-20.273 112.909-14.787 13.316-36.592 16.119-55.762 16.203l-3.11.017c-2.171.01-4.342.016-6.513.02-3.248.01-6.495.04-9.742.072-24.46.124-51.97-1.117-70.62-18.949-10.423-10.93-13.183-24.69-15.003-39.238l-.35-2.762c-2.327-21.113-2.051-42.552-2.035-63.762.002-3.564-.002-7.128-.006-10.692-.005-6.217-.006-12.435-.005-18.653.001-9.247-.003-18.494-.008-27.74-.01-17.481-.012-34.963-.013-52.444a201641.03 201641.03 0 00-.01-55.143c-.005-27.23-.01-54.46-.009-81.69v-3.104-15.58-3.124-6.256c.001-32.45-.006-64.899-.02-97.349a245301.274 245301.274 0 01-.023-121.254v-2.908c0-15.397-.006-30.794-.015-46.19-.008-15.488-.01-30.976-.003-46.463.004-9.182.002-18.363-.007-27.545a8625.76 8625.76 0 01.002-18.461c.004-3.492.005-6.984-.003-10.476-.133-70.236-.133-70.236 16.567-88.592 9.22-8.167 20.554-10.33 32.5-10.25zM2252.874 452.866l4.048-.007c3.67-.006 7.34-.006 11.01-.004 3.972 0 7.945-.006 11.918-.01 7.77-.009 15.54-.011 23.311-.012 6.324 0 12.647-.003 18.97-.006 17.968-.009 35.935-.013 53.903-.012H2381.897c15.673 0 31.346-.01 47.019-.023 16.131-.015 32.263-.022 48.394-.02 9.041 0 18.082-.003 27.123-.014 7.7-.01 15.4-.011 23.1-.005 3.92.004 7.84.004 11.76-.005 66.027-.138 66.027-.138 84.168 15.354C2635.42 480.684 2638.427 498.3 2640 515l.25 2.631c.792 9.204.93 18.367.953 27.596l.009 2.432c.015 4.25.024 8.5.028 12.749.005 3.467.019 6.935.041 10.402.372 57.81.372 57.81-14.281 74.19-13.268 11.593-29.167 12.108-46 11-9.617-1.27-17.564-5.65-23.742-13.102-10.235-14.41-11.861-32.548-13.696-49.648-2.072-19.874-2.072-19.874-12.562-36.25-13.562-10.644-38.386-8.15-54.698-8.145l-5.233-.01c-4.703-.01-9.406-.012-14.109-.012-2.949-.001-5.897-.003-8.846-.006-10.319-.009-20.637-.013-30.955-.012-9.569 0-19.137-.01-28.706-.026-8.256-.013-16.512-.018-24.768-.018-4.913 0-9.825-.002-14.738-.013-4.628-.01-9.256-.01-13.884-.003-1.681.002-3.363 0-5.045-.007-8.786-.03-17.449.253-26.192 1.154l-2.335.24c-10.628 1.2-23.012 3.252-30.163 11.874-12.792 19.124-10.667 47.173-10.589 69.099.011 3.58 0 7.159-.012 10.739-1.26 30.622-1.26 30.622 10.894 57.287 10.178 7.955 22.632 11.473 34.89 14.894 12.484 3.56 25.205 8.606 32.301 20.09 10.32 20.708 7.495 48.065 7.527 70.565.008 4.07.03 8.14.05 12.209.052 11.178.085 22.356.119 33.535.03 10.276.066 20.552.116 30.829.023 4.812.037 9.623.044 14.435.006 3.008.02 6.015.036 9.023.008 2.022.007 4.044.006 6.066.104 15.708.427 33.805 11.29 46.213 14.975 13.37 39.498 11.306 58.215 11.266l6.681.005c4.645.003 9.29 0 13.936-.01 5.911-.012 11.822-.005 17.734.007 4.592.007 9.185.005 13.777 0 2.178-.002 4.356 0 6.534.005 30.224.614 30.224.614 57.123-11.273 11.504-11.504 12.38-28.897 12.538-44.291.042-3.715.137-7.429.228-11.143l.052-2.229c1.247-49.641 1.247-49.641 16.494-66.4 11.541-10.2 26.08-10.76 40.688-9.937 9.261.965 19.218 4.38 26 11 12.084 15.511 13.138 37.851 13.161 56.766l.015 3.075c.015 3.327.022 6.653.027 9.98l.009 3.485c.015 6.098.024 12.195.028 18.293.006 6.225.03 12.449.058 18.673.02 4.85.024 9.7.026 14.549.003 2.29.01 4.58.024 6.87.324 59.955.324 59.955-18.348 81.309-11.237 8.99-25.1 12.503-39 15l-3.073.556c-14.086 2.123-28.321 1.737-42.53 1.72-4.018-.002-8.036.007-12.054.014-7.852.013-15.705.015-23.557.012a20306.617 20306.617 0 00-27.504.01c-17.363.01-34.727.009-52.09.003-15.84-.006-31.68.006-47.52.025-16.311.02-32.623.027-48.934.024-9.139-.002-18.277 0-27.416.014-7.782.012-15.564.014-23.346.002-3.96-.006-7.92-.008-11.88.005-62.683.178-62.683.178-83.1-19.147-9.613-10.78-12.791-26.078-14.746-39.988l-.35-2.482c-1.962-15.651-2.05-31.53-2.034-47.282l-.007-5.305c-.006-4.795-.006-9.591-.004-14.387 0-5.197-.006-10.394-.01-15.592-.009-10.16-.011-20.32-.012-30.48 0-8.27-.003-16.541-.006-24.812a173739 173739 0 01-.012-70.544v-3.833-3.837c0-20.495-.01-40.99-.023-61.486-.015-21.11-.022-42.219-.02-63.328 0-11.826-.003-23.65-.014-35.476-.01-10.072-.011-20.145-.005-30.217.004-5.124.004-10.248-.005-15.372-.15-93.054-.15-93.054 18.252-111.817 17.985-16.216 48.122-16.162 70.874-16.134zM1846.664 452.839l6.189-.015c5.573-.013 11.146-.02 16.719-.024 3.493-.003 6.987-.007 10.48-.012 10.966-.013 21.931-.023 32.897-.027 12.593-.004 25.187-.022 37.78-.05 9.777-.023 19.554-.033 29.332-.034 5.82-.001 11.638-.007 17.458-.025 5.485-.016 10.97-.018 16.454-.01 1.993.001 3.986-.003 5.98-.013 50.207-.237 50.207-.237 66.047 14.371 7.021 8.08 10.573 18.392 11 29l.121 2.324c.358 13.079-2.025 25.455-10.316 35.828-15.038 15.396-43.195 14.7-63.309 14.952-6.526.057-13.052.08-19.578.095-4.392.011-8.784.031-13.176.053-12.478.062-24.956.116-37.434.15-6.92.018-13.838.047-20.758.087-3.64.021-7.282.037-10.923.04-31.962-1.242-31.962-1.242-60.764 10.221-15.906 16.54-13.366 48.17-12.956 69.34.532 21.212.532 21.212 9.933 39.308 10.12 7.504 22.028 10.958 33.917 14.6 12.372 3.855 26.254 8.368 33.43 19.912 6.556 12.894 6.971 29.261 6.947 43.452l.007 2.976c.006 3.259.005 6.518.004 9.777l.01 7.05c.01 6.364.012 12.728.012 19.093.001 4.656.004 9.312.007 13.969.008 12.544.012 25.089.011 37.634v4.311c0 11.507.01 23.015.023 34.523.015 11.859.022 23.718.02 35.576 0 6.64.003 13.281.014 19.922.01 6.257.01 12.514.003 18.77-.002 2.28 0 4.559.007 6.838.158 63.154.158 63.154-16.252 86.199l-2.188 3.187c-15.717 15.718-40.266 18.122-61.406 18.226-2.057-.002-4.115-.01-6.173-.022-3.098-.016-6.194 0-9.292.02-23.05.023-49.508-1.393-67.191-18.036-26.736-28.561-18.905-81.536-18.895-117.685 0-5.108-.006-10.215-.01-15.322-.009-9.97-.011-19.942-.012-29.912 0-8.117-.003-16.233-.006-24.35-.009-23.092-.013-46.184-.012-69.276v-3.759-3.763c0-20.117-.01-40.234-.023-60.35a84424.8 84424.8 0 01-.02-62.204c0-11.609-.003-23.218-.014-34.827-.01-9.884-.011-19.768-.005-29.652.004-5.027.004-10.054-.005-15.08-.03-18.044.025-36.044 1.154-54.058l.24-3.826c1.385-19.72 3.486-41.254 19.003-55.245 20.255-15.62 51.317-14.214 75.519-14.227zM2989.05 1380.855l4.774-.01c4.293-.01 8.587-.012 12.88-.012 2.692-.001 5.383-.003 8.074-.006 9.414-.009 18.828-.013 28.241-.012 8.735 0 17.47-.01 26.204-.026 7.533-.013 15.065-.018 22.598-.018 4.484 0 8.967-.002 13.451-.013 4.224-.01 8.447-.01 12.67-.003 1.536.002 3.073 0 4.61-.007 30.008-.111 30.008-.111 42.198 6.814 9.897 10.723 9.551 25.57 9.51 39.302l.012 4.406c.01 4.005.008 8.01.004 12.015-.002 4.331.007 8.663.014 12.994.013 8.473.015 16.947.012 25.42-.001 6.89 0 13.78.005 20.671l.001 2.977.004 5.988c.01 18.698.009 37.397.003 56.095-.006 17.088.006 34.175.025 51.262.02 17.568.027 35.135.024 52.703-.002 9.854 0 19.708.014 29.562.012 8.388.014 16.776.002 25.165-.006 4.275-.008 8.55.005 12.825.01 3.922.007 7.844-.007 11.766-.002 1.41 0 2.82.008 4.23.075 14.079-.948 27.45-11.136 37.87-12.707 8.552-30.585 7.488-45.374 7.446l-4.939.01c-4.419.01-8.838.006-13.257 0-4.653-.005-9.306 0-13.96.002-7.805.004-15.611 0-23.418-.01-8.994-.011-17.988-.008-26.983.003-7.76.01-15.52.01-23.28.006-4.618-.004-9.237-.004-13.855.003-4.342.005-8.683.001-13.024-.01-1.583-.003-3.166-.002-4.75.002-29.617.076-29.617.076-39.066-7.613-5.233-5.704-5.75-12.558-5.598-19.937.569-6.082 2.783-11.48 7.254-15.715 10.537-6.435 23.289-6.295 35.239-6.271l4.153-.016c2.957-.011 5.913-.017 8.869-.018 4.683-.002 9.366-.02 14.05-.04 11.625-.05 23.25-.08 34.876-.102 9.053-.017 18.105-.04 27.157-.083a2710.5 2710.5 0 0113.941-.028c2.899-.001 5.796-.015 8.694-.033 1.966-.008 3.933-.002 5.899.006 8.65-.07 16.007-1.021 23.56-5.415 5.942-6.957 6.064-16.649 5.937-25.438l-.026-3.038c-.184-11.913-.184-11.913-4.833-22.637-7.111-5.334-16.103-5.327-24.64-5.304l-3.548-.026c-3.848-.024-7.695-.029-11.543-.034-2.698-.012-5.396-.03-8.093-.047-6.374-.038-12.747-.062-19.12-.08-11.367-.034-22.733-.093-34.1-.155-4.607-.024-9.215-.04-13.823-.052-10.5-.038-20.987-.095-31.475-.624l-2.235-.11c-11.207-.654-20.903-2.754-29.189-10.58-4.532-7.446-6.071-14.843-6.852-23.421l-.257-2.789c-.865-10.143-.915-20.251-.884-30.424a6246.766 6246.766 0 01.007-23.023c.01-5.889.007-11.777.007-17.665 0-9.878.01-19.756.023-29.634.016-11.38.021-22.76.02-34.139 0-12.181.007-24.363.016-36.544l.003-10.449c.001-5.493.007-10.985.017-16.478.003-2.003.004-4.005.004-6.007-.009-47.894-.009-47.894 10.146-58.302 11.942-8.793 30.07-7.15 44.05-7.145zM2990 1435c-7.757 9.05-6.343 22.083-6.316 33.295.003 2.699-.02 5.397-.045 8.096-.5 15.14-.5 15.14 6.361 27.984 4.518 3.374 9.69 4.903 15 6.625 14.504 4.851 14.504 4.851 18 11 3.727 10.995 3.158 23.037 3.23 34.518.016 2.575.04 5.149.065 7.723.07 7.31.13 14.621.182 21.932.032 4.493.073 8.986.12 13.48.016 1.7.028 3.4.037 5.101-.537 14.515-.537 14.515 4.553 27.621 8.277 7.725 19.556 6.788 30.168 6.828l3.572.017c2.487.01 4.974.016 7.46.02 3.77.01 7.54.041 11.31.072 2.428.007 4.856.012 7.283.016l3.367.038c13.113.018 13.113.018 24.785-5.043 6.152-6.717 6.987-14.573 7.008-23.386l.01-2.084c.008-2.29.01-4.582.011-6.873l.015-4.944c.013-4.47.02-8.939.024-13.408l.012-8.388c.013-8.758.023-17.516.027-26.274.004-10.09.022-20.18.05-30.27.023-7.813.033-15.626.034-23.438.001-4.66.007-9.32.025-13.98.016-4.387.018-8.774.01-13.162-.001-1.603.003-3.206.013-4.809.058-9.886-.081-19.459-5.059-28.307-7.366-6.37-17.586-6.15-26.836-6.145l-2.817-.01c-3.058-.01-6.116-.012-9.175-.013l-6.415-.01c-4.478-.006-8.957-.008-13.436-.007-5.717 0-11.434-.014-17.15-.031-4.417-.011-8.834-.013-13.25-.013-2.107 0-4.213-.005-6.32-.013-19.106-1.022-19.106-1.022-35.913 6.242zM1059.05 1380.855l4.774-.01c4.293-.01 8.587-.012 12.88-.012 2.692-.001 5.383-.003 8.074-.006 9.414-.009 18.828-.013 28.241-.012 8.735 0 17.47-.01 26.204-.026 7.533-.013 15.065-.018 22.598-.018 4.484 0 8.967-.002 13.451-.013 4.224-.01 8.447-.01 12.67-.003 1.536.002 3.073 0 4.61-.007 30.008-.111 30.008-.111 42.198 6.814 9.897 10.723 9.551 25.57 9.51 39.302l.012 4.406c.01 4.005.008 8.01.004 12.015-.002 4.331.007 8.663.014 12.994.013 8.473.015 16.947.012 25.42-.001 6.89 0 13.78.005 20.671l.001 2.977.004 5.988c.01 18.698.009 37.397.003 56.095-.006 17.088.006 34.175.025 51.262.02 17.568.027 35.135.024 52.703-.002 9.854 0 19.708.014 29.562.012 8.388.014 16.776.002 25.165-.006 4.275-.008 8.55.005 12.825.01 3.922.007 7.844-.007 11.766-.002 1.41 0 2.82.008 4.23.075 14.079-.948 27.45-11.136 37.87-12.707 8.552-30.585 7.488-45.374 7.446l-4.939.01c-4.419.01-8.838.006-13.257 0-4.653-.005-9.306 0-13.96.002-7.805.004-15.611 0-23.418-.01-8.994-.011-17.988-.008-26.983.003-7.76.01-15.52.01-23.28.006-4.618-.004-9.237-.004-13.855.003-4.342.005-8.683.001-13.024-.01-1.583-.003-3.166-.002-4.75.002-29.617.076-29.617.076-39.066-7.613-5.233-5.704-5.75-12.558-5.598-19.937.569-6.082 2.783-11.48 7.254-15.715 10.537-6.435 23.289-6.295 35.239-6.271l4.153-.016c2.957-.011 5.913-.017 8.869-.018 4.683-.002 9.366-.02 14.05-.04 11.625-.05 23.25-.08 34.876-.102 9.053-.017 18.105-.04 27.157-.083a2710.5 2710.5 0 0113.941-.028c2.899-.001 5.796-.015 8.694-.033 1.966-.008 3.933-.002 5.899.006 8.65-.07 16.007-1.021 23.56-5.415 5.942-6.957 6.064-16.649 5.937-25.438l-.026-3.038c-.184-11.913-.184-11.913-4.833-22.637-7.111-5.334-16.103-5.327-24.64-5.304l-3.548-.026c-3.848-.024-7.695-.029-11.543-.034-2.698-.012-5.396-.03-8.093-.047-6.374-.038-12.747-.062-19.12-.08-11.367-.034-22.733-.093-34.1-.155-4.607-.024-9.215-.04-13.823-.052-10.5-.038-20.987-.095-31.475-.624l-2.235-.11c-11.207-.654-20.903-2.754-29.189-10.58-4.532-7.446-6.071-14.843-6.852-23.421l-.257-2.789c-.865-10.143-.915-20.251-.884-30.424a6246.766 6246.766 0 01.007-23.023c.01-5.889.007-11.777.007-17.665 0-9.878.01-19.756.023-29.634.016-11.38.021-22.76.02-34.139 0-12.181.007-24.363.016-36.544l.003-10.449c.001-5.493.007-10.985.017-16.478.003-2.003.004-4.005.004-6.007-.009-47.894-.009-47.894 10.146-58.302 11.942-8.793 30.07-7.15 44.05-7.145zM1060 1435c-7.757 9.05-6.343 22.083-6.316 33.295.003 2.699-.02 5.397-.045 8.096-.5 15.14-.5 15.14 6.361 27.984 4.518 3.374 9.69 4.903 15 6.625 14.504 4.851 14.504 4.851 18 11 3.727 10.995 3.158 23.037 3.23 34.518.016 2.575.04 5.149.065 7.723.07 7.31.13 14.621.182 21.932.032 4.493.073 8.986.12 13.48.016 1.7.028 3.4.037 5.101-.537 14.515-.537 14.515 4.553 27.621 8.277 7.725 19.556 6.788 30.168 6.828l3.572.017c2.487.01 4.974.016 7.46.02 3.77.01 7.54.041 11.31.072 2.428.007 4.856.012 7.283.016l3.367.038c13.113.018 13.113.018 24.785-5.043 6.152-6.717 6.987-14.573 7.008-23.386l.01-2.084c.008-2.29.01-4.582.011-6.873l.015-4.944c.013-4.47.02-8.939.024-13.408l.012-8.388c.013-8.758.023-17.516.027-26.274.004-10.09.022-20.18.05-30.27.023-7.813.033-15.626.034-23.438.001-4.66.007-9.32.025-13.98.016-4.387.018-8.774.01-13.162-.001-1.603.003-3.206.013-4.809.058-9.886-.081-19.459-5.059-28.307-7.366-6.37-17.586-6.15-26.836-6.145l-2.817-.01c-3.058-.01-6.116-.012-9.175-.013l-6.415-.01c-4.478-.006-8.957-.008-13.436-.007-5.717 0-11.434-.014-17.15-.031-4.417-.011-8.834-.013-13.25-.013-2.107 0-4.213-.005-6.32-.013-19.106-1.022-19.106-1.022-35.913 6.242zM2066.05 1380.855l4.774-.01c4.293-.01 8.587-.012 12.88-.012 2.692-.001 5.383-.003 8.074-.006 9.414-.009 18.828-.013 28.241-.012 8.735 0 17.47-.01 26.204-.026 7.533-.013 15.065-.018 22.598-.018 4.484 0 8.967-.002 13.451-.013 4.224-.01 8.447-.01 12.67-.003 1.536.002 3.073 0 4.61-.007 30.008-.111 30.008-.111 42.198 6.814 11.848 12.836 9.562 32.139 9.55 48.305l.014 6.978c.007 4.86.007 9.72.002 14.58-.006 6.195.01 12.39.034 18.585.015 4.8.016 9.598.013 14.398 0 2.282.005 4.565.015 6.848.136 34.962.136 34.962-9.026 44.451-9.427 7.907-22.442 8.427-34.24 8.467l-2.575.02c-1.833.014-3.666.026-5.498.036-2.911.016-5.822.04-8.733.065-8.272.07-16.543.13-24.815.182-5.074.032-10.147.073-15.22.12-1.921.016-3.843.028-5.764.037-18.569-.673-18.569-.673-35.507 5.366-8.33 9.255-6.31 24.464-6.26 36.08.01 2.979 0 5.958-.013 8.938 0 1.922.003 3.845.007 5.767l-.012 2.656c.065 8.697.61 17.712 6.903 24.246 7.845 4.336 17.292 3.624 25.973 3.614l4.208.013c2.926.007 5.852.007 8.777.002 3.731-.006 7.462.01 11.193.034 2.892.015 5.784.016 8.676.013 1.375 0 2.75.005 4.125.015 8.875.058 16.128.077 23.298-5.69 5.013-6.34 4.98-14.608 5.805-22.37.904-7.463 2.381-15.076 8.257-20.256 7.288-4.907 14.562-4.785 23.063-4.062 5.96 1.587 9.517 4.925 13 10 2.761 5.621 4.109 10.607 4.161 16.844l.03 2.834.012 3.037.017 3.174c.01 2.218.016 4.436.02 6.654.01 3.351.04 6.702.072 10.053.15 29.776.15 29.776-7.792 40.38-8.274 7.99-20.065 9.131-31.086 9.617l-2.563.12c-12.772.522-25.56.433-38.341.421-3.783-.002-7.566 0-11.348.002-6.345.002-12.69 0-19.034-.006-7.281-.005-14.563-.003-21.844.002-6.311.005-12.623.005-18.934.003a8583.96 8583.96 0 00-11.23.001c-26.618.02-26.618.02-38.163-.566l-2.199-.111c-11.147-.674-20.79-2.803-29.028-10.584-4.532-7.446-6.071-14.843-6.852-23.421l-.257-2.789c-.865-10.143-.915-20.251-.884-30.424a6246.766 6246.766 0 01.007-23.023c.01-5.889.007-11.777.007-17.665 0-9.878.01-19.756.023-29.634.016-11.38.021-22.76.02-34.139 0-12.181.007-24.363.016-36.544l.003-10.449c.001-5.493.007-10.985.017-16.478.003-2.003.004-4.005.004-6.007-.009-47.894-.009-47.894 10.146-58.302 11.942-8.793 30.07-7.15 44.05-7.145zM2064 1436c-3.976 8.09-3.459 17.235-3.391 26.013.016 2.482 0 4.962-.02 7.444-.124 14.009-.124 14.009 5.598 26.48 11.425 8.379 27.33 6.226 40.766 6.231l5.843.01c4.071.006 8.143.008 12.214.007 5.182 0 10.364.014 15.546.031 4.02.011 8.04.013 12.06.013 1.91 0 3.818.005 5.727.013 20.393.906 20.393.906 38.657-6.242 7.286-7.877 6.322-20.909 6.25-31l.023-3.29c.16-14.9.16-14.9-6.273-27.71-7.114-5.348-14.68-5.15-23.177-5.145l-3.062-.01c-3.333-.01-6.666-.012-10-.013l-6.971-.01c-4.87-.006-9.74-.008-14.61-.007-6.226 0-12.454-.014-18.68-.031-4.8-.011-9.6-.013-14.4-.013-2.296 0-4.591-.005-6.886-.013-3.217-.01-6.433-.007-9.649 0-.94-.007-1.88-.012-2.848-.018-8.594.04-16.747.437-22.717 7.26zM1776.05 1380.855l4.774-.01c4.293-.01 8.587-.012 12.88-.012 2.692-.001 5.383-.003 8.074-.006 9.414-.009 18.828-.013 28.241-.012 8.735 0 17.47-.01 26.204-.026 7.533-.013 15.065-.018 22.598-.018 4.484 0 8.967-.002 13.451-.013 4.224-.01 8.447-.01 12.67-.003 1.536.002 3.073 0 4.61-.007 30.008-.111 30.008-.111 42.198 6.814 11.848 12.836 9.562 32.139 9.55 48.305l.014 6.978c.007 4.86.007 9.72.002 14.58-.006 6.195.01 12.39.034 18.585.015 4.8.016 9.598.013 14.398 0 2.282.005 4.565.015 6.848.136 34.962.136 34.962-9.026 44.451-9.427 7.907-22.442 8.427-34.24 8.467l-2.575.02c-1.833.014-3.666.026-5.498.036-2.911.016-5.822.04-8.733.065-8.272.07-16.543.13-24.815.182-5.074.032-10.147.073-15.22.12-1.921.016-3.843.028-5.764.037-18.569-.673-18.569-.673-35.507 5.366-8.33 9.255-6.31 24.464-6.26 36.08.01 2.979 0 5.958-.013 8.938 0 1.922.003 3.845.007 5.767l-.012 2.656c.065 8.697.61 17.712 6.903 24.246 7.845 4.336 17.292 3.624 25.973 3.614l4.208.013c2.926.007 5.852.007 8.777.002 3.731-.006 7.462.01 11.193.034 2.892.015 5.784.016 8.676.013 1.375 0 2.75.005 4.125.015 8.875.058 16.128.077 23.298-5.69 5.013-6.34 4.98-14.608 5.805-22.37.904-7.463 2.381-15.076 8.257-20.256 7.288-4.907 14.562-4.785 23.063-4.062 5.96 1.587 9.517 4.925 13 10 2.761 5.621 4.109 10.607 4.161 16.844l.03 2.834.012 3.037.017 3.174c.01 2.218.016 4.436.02 6.654.01 3.351.04 6.702.072 10.053.15 29.776.15 29.776-7.792 40.38-8.274 7.99-20.065 9.131-31.086 9.617l-2.563.12c-12.772.522-25.56.433-38.341.421-3.783-.002-7.566 0-11.348.002-6.345.002-12.69 0-19.034-.006-7.281-.005-14.563-.003-21.844.002-6.311.005-12.623.005-18.934.003a8583.96 8583.96 0 00-11.23.001c-26.618.02-26.618.02-38.163-.566l-2.199-.111c-11.147-.674-20.79-2.803-29.028-10.584-4.532-7.446-6.071-14.843-6.852-23.421l-.257-2.789c-.865-10.143-.915-20.251-.884-30.424a6246.766 6246.766 0 01.007-23.023c.01-5.889.007-11.777.007-17.665 0-9.878.01-19.756.023-29.634.016-11.38.021-22.76.02-34.139 0-12.181.007-24.363.016-36.544l.003-10.449c.001-5.493.007-10.985.017-16.478.003-2.003.004-4.005.004-6.007-.009-47.894-.009-47.894 10.146-58.302 11.942-8.793 30.07-7.15 44.05-7.145zM1774 1436c-3.976 8.09-3.459 17.235-3.391 26.013.016 2.482 0 4.962-.02 7.444-.124 14.009-.124 14.009 5.598 26.48 11.425 8.379 27.33 6.226 40.766 6.231l5.843.01c4.071.006 8.143.008 12.214.007 5.182 0 10.364.014 15.546.031 4.02.011 8.04.013 12.06.013 1.91 0 3.818.005 5.727.013 20.393.906 20.393.906 38.657-6.242 7.286-7.877 6.322-20.909 6.25-31l.023-3.29c.16-14.9.16-14.9-6.273-27.71-7.114-5.348-14.68-5.15-23.177-5.145l-3.062-.01c-3.333-.01-6.666-.012-10-.013l-6.971-.01c-4.87-.006-9.74-.008-14.61-.007-6.226 0-12.454-.014-18.68-.031-4.8-.011-9.6-.013-14.4-.013-2.296 0-4.591-.005-6.886-.013-3.217-.01-6.433-.007-9.649 0-.94-.007-1.88-.012-2.848-.018-8.594.04-16.747.437-22.717 7.26zM479.05 1380.855l4.774-.01c4.293-.01 8.587-.012 12.88-.012 2.692-.001 5.383-.003 8.074-.006 9.414-.009 18.828-.013 28.241-.012 8.735 0 17.47-.01 26.204-.026 7.533-.013 15.065-.018 22.598-.018 4.484 0 8.967-.002 13.451-.013 4.224-.01 8.447-.01 12.67-.003 1.536.002 3.073 0 4.61-.007 30.008-.111 30.008-.111 42.198 6.814 11.848 12.836 9.562 32.139 9.55 48.305l.014 6.978c.007 4.86.007 9.72.002 14.58-.006 6.195.01 12.39.034 18.585.015 4.8.016 9.598.013 14.398 0 2.282.005 4.565.015 6.848.136 34.962.136 34.962-9.026 44.451-9.427 7.907-22.442 8.427-34.24 8.467l-2.575.02c-1.833.014-3.666.026-5.498.036-2.911.016-5.822.04-8.733.065-8.272.07-16.543.13-24.815.182-5.074.032-10.147.073-15.22.12-1.921.016-3.843.028-5.764.037-18.569-.673-18.569-.673-35.507 5.366-8.33 9.255-6.31 24.464-6.26 36.08.01 2.979 0 5.958-.013 8.938 0 1.922.003 3.845.007 5.767l-.012 2.656c.065 8.697.61 17.712 6.903 24.246 7.845 4.336 17.292 3.624 25.973 3.614l4.208.013c2.926.007 5.852.007 8.777.002 3.731-.006 7.462.01 11.193.034 2.892.015 5.784.016 8.676.013 1.375 0 2.75.005 4.125.015 8.875.058 16.128.077 23.298-5.69 5.013-6.34 4.98-14.608 5.805-22.37.904-7.463 2.381-15.076 8.257-20.256 7.288-4.907 14.562-4.785 23.063-4.062 5.96 1.587 9.517 4.925 13 10 2.761 5.621 4.109 10.607 4.161 16.844l.03 2.834.012 3.037.017 3.174c.01 2.218.016 4.436.02 6.654.01 3.351.04 6.702.072 10.053.15 29.776.15 29.776-7.792 40.38-10.455 10.096-26.848 9.612-40.47 9.526a2142.853 2142.853 0 01-19.188.003c-4.905-.015-9.81-.008-14.715-.004-8.23.002-16.46-.011-24.69-.034a7035.65 7035.65 0 00-28.455-.017c-9.168.01-18.336.005-27.503-.01-3.883-.005-7.766-.005-11.649 0-4.578.004-9.155-.006-13.733-.028-1.67-.005-3.34-.006-5.01 0-13.983.036-27.7-.471-38.357-10.537-4.532-7.446-6.071-14.843-6.852-23.421l-.257-2.789c-.865-10.143-.915-20.251-.884-30.424a6246.766 6246.766 0 01.007-23.023c.01-5.889.007-11.777.007-17.665 0-9.878.01-19.756.023-29.634.016-11.38.021-22.76.02-34.139 0-12.181.007-24.363.016-36.544l.003-10.449c.001-5.493.007-10.985.017-16.478.003-2.003.004-4.005.004-6.007-.009-47.894-.009-47.894 10.146-58.302 11.942-8.793 30.07-7.15 44.05-7.145zM477 1436c-3.976 8.09-3.459 17.235-3.391 26.013.016 2.482 0 4.962-.02 7.444-.124 14.009-.124 14.009 5.598 26.48 11.425 8.379 27.33 6.226 40.766 6.231l5.843.01c4.071.006 8.143.008 12.214.007 5.182 0 10.364.014 15.546.031 4.02.011 8.04.013 12.06.013 1.91 0 3.818.005 5.727.013 20.393.906 20.393.906 38.657-6.242 7.286-7.877 6.322-20.909 6.25-31l.023-3.29c.16-14.9.16-14.9-6.273-27.71-7.114-5.348-14.68-5.15-23.177-5.145l-3.062-.01c-3.333-.01-6.666-.012-10-.013l-6.971-.01c-4.87-.006-9.74-.008-14.61-.007-6.226 0-12.454-.014-18.68-.031-4.8-.011-9.6-.013-14.4-.013-2.296 0-4.591-.005-6.886-.013-3.217-.01-6.433-.007-9.649 0-.94-.007-1.88-.012-2.848-.018-8.594.04-16.747.437-22.717 7.26zM2699.05 1380.855l4.774-.01c4.293-.01 8.587-.012 12.88-.012 2.692-.001 5.383-.003 8.074-.006 9.414-.009 18.828-.013 28.241-.012 8.735 0 17.47-.01 26.204-.026 7.533-.013 15.065-.018 22.598-.018 4.484 0 8.967-.002 13.451-.013 4.224-.01 8.447-.01 12.67-.003 1.536.002 3.073 0 4.61-.007 30.008-.111 30.008-.111 42.198 6.814 11.946 12.942 9.544 32.46 9.525 48.743l.015 7.395c.012 5.978.015 11.956.012 17.934-.001 4.863 0 9.725.005 14.587l.001 2.104.004 4.233c.01 13.202.009 26.405.003 39.608-.006 12.057.006 24.115.025 36.173.02 12.408.027 24.816.024 37.224-.002 6.955 0 13.91.014 20.866.014 6.54.01 13.08-.002 19.62-.002 2.395 0 4.789.009 7.183.096 29.967.096 29.967-7.385 38.768-6.036 5.554-13.04 6.19-21.047 5.883-5.42-.734-9.568-2.11-13.52-5.977-5.798-7.71-6.582-17.011-6.578-26.34l-.01-2.53c-.011-2.792-.015-5.583-.019-8.373l-.02-6.014c-.015-4.315-.026-8.63-.036-12.945-.015-6.835-.04-13.67-.065-20.505-.07-19.436-.13-38.873-.182-58.309-.028-10.736-.064-21.472-.106-32.208-.027-6.781-.045-13.562-.056-20.343-.01-4.24-.027-8.48-.047-12.72-.007-1.951-.011-3.902-.012-5.853.432-20.96.432-20.96-5.302-40.766-10.296-7.465-26.68-5.293-38.723-5.266l-6.338-.005c-4.412-.003-8.823 0-13.235.01-5.634.012-11.268.005-16.902-.007-4.357-.007-8.715-.005-13.072 0-2.077.002-4.153 0-6.23-.005-2.91-.005-5.818.003-8.727.014l-2.559-.012c-7.743.054-16.762.662-23.214 5.271-3.69 5.457-5.094 11.103-5.177 17.647l-.039 2.702-.022 2.885-.025 3.008c-.014 2.098-.024 4.196-.032 6.294-.012 2.136-.032 4.271-.062 6.406a882.16 882.16 0 00-.069 9.292l-.053 2.861c.02 6.322 1.104 11.477 4.479 16.905 2.502 2.159 2.502 2.159 5.5 3.312l3.195 1.418c4.179 1.606 8.405 2.992 12.672 4.34 5.154 1.82 9.025 4.827 12.633 8.93 3.046 7.663 3.436 15.686 3.388 23.833l.016 3.38c.013 3.652.005 7.303-.006 10.955a4602.734 4602.734 0 01-.007 23.791 3464.12 3464.12 0 00.006 18.47c.015 5.973.013 11.946.004 17.92-.002 2.518 0 5.035.008 7.552.087 39.73.087 39.73-9.659 51.911-13.982 11.122-33.8 10.006-50.708 8.422-9.919-1.138-17.698-3.986-24.855-10.984-5.626-8.36-6.245-18.043-6.741-27.865l-.128-2.5c-.454-9.682-.458-19.359-.447-29.05l-.006-6.132c-.004-5.492-.003-10.983 0-16.475.003-5.781 0-11.563 0-17.344-.003-9.702 0-19.404.005-29.105.005-11.176.003-22.353-.002-33.529-.005-9.642-.005-19.284-.003-28.926.002-5.739.002-11.478-.001-17.216-.003-5.396-.001-10.792.005-16.188 0-1.967 0-3.934-.002-5.9-.049-47.585-.049-47.585 10.133-58.02 11.942-8.793 30.07-7.15 44.05-7.145zM1486.05 1380.855l4.774-.01c4.293-.01 8.587-.012 12.88-.012 2.692-.001 5.383-.003 8.074-.006 9.414-.009 18.828-.013 28.241-.012 8.735 0 17.47-.01 26.204-.026 7.533-.013 15.065-.018 22.598-.018 4.484 0 8.967-.002 13.451-.013 4.224-.01 8.447-.01 12.67-.003 1.536.002 3.073 0 4.61-.007 30.008-.111 30.008-.111 42.198 6.814 11.946 12.942 9.544 32.46 9.525 48.743l.015 7.395c.012 5.978.015 11.956.012 17.934-.001 4.863 0 9.725.005 14.587l.001 2.104.004 4.233c.01 13.202.009 26.405.003 39.608-.006 12.057.006 24.115.025 36.173.02 12.408.027 24.816.024 37.224-.002 6.955 0 13.91.014 20.866.014 6.54.01 13.08-.002 19.62-.002 2.395 0 4.789.009 7.183.096 29.967.096 29.967-7.385 38.768-6.036 5.554-13.04 6.19-21.047 5.883-5.42-.734-9.568-2.11-13.52-5.977-5.798-7.71-6.582-17.011-6.578-26.34l-.01-2.53c-.011-2.792-.015-5.583-.019-8.373l-.02-6.014c-.015-4.315-.026-8.63-.036-12.945-.015-6.835-.04-13.67-.065-20.505-.07-19.436-.13-38.873-.182-58.309-.028-10.736-.064-21.472-.106-32.208-.027-6.781-.045-13.562-.056-20.343-.01-4.24-.027-8.48-.047-12.72-.007-1.951-.011-3.902-.012-5.853.432-20.96.432-20.96-5.302-40.766-10.296-7.465-26.68-5.293-38.723-5.266l-6.338-.005c-4.412-.003-8.823 0-13.235.01-5.634.012-11.268.005-16.902-.007-4.357-.007-8.715-.005-13.072 0-2.077.002-4.153 0-6.23-.005-2.91-.005-5.818.003-8.727.014l-2.559-.012c-7.743.054-16.762.662-23.214 5.271-3.69 5.457-5.094 11.103-5.177 17.647l-.039 2.702-.022 2.885-.025 3.008c-.014 2.098-.024 4.196-.032 6.294-.012 2.136-.032 4.271-.062 6.406a882.16 882.16 0 00-.069 9.292l-.053 2.861c.02 6.322 1.104 11.477 4.479 16.905 2.502 2.159 2.502 2.159 5.5 3.312l3.195 1.418c4.179 1.606 8.405 2.992 12.672 4.34 5.154 1.82 9.025 4.827 12.633 8.93 3.046 7.663 3.436 15.686 3.388 23.833l.016 3.38c.013 3.652.005 7.303-.006 10.955a4602.734 4602.734 0 01-.007 23.791 3464.12 3464.12 0 00.006 18.47c.015 5.973.013 11.946.004 17.92-.002 2.518 0 5.035.008 7.552.087 39.73.087 39.73-9.659 51.911-13.982 11.122-33.8 10.006-50.708 8.422-9.919-1.138-17.698-3.986-24.855-10.984-5.626-8.36-6.245-18.043-6.741-27.865l-.128-2.5c-.454-9.682-.458-19.359-.447-29.05l-.006-6.132c-.004-5.492-.003-10.983 0-16.475.003-5.781 0-11.563 0-17.344-.003-9.702 0-19.404.005-29.105.005-11.176.003-22.353-.002-33.529-.005-9.642-.005-19.284-.003-28.926.002-5.739.002-11.478-.001-17.216-.003-5.396-.001-10.792.005-16.188 0-1.967 0-3.934-.002-5.9-.049-47.585-.049-47.585 10.133-58.02 11.942-8.793 30.07-7.15 44.05-7.145zM769.05 1380.855l4.774-.01c4.293-.01 8.587-.012 12.88-.012 2.692-.001 5.383-.003 8.074-.006 9.414-.009 18.828-.013 28.241-.012 8.735 0 17.47-.01 26.204-.026 7.533-.013 15.065-.018 22.598-.018 4.484 0 8.967-.002 13.451-.013 4.224-.01 8.447-.01 12.67-.003 1.536.002 3.073 0 4.61-.007 30.008-.111 30.008-.111 42.198 6.814 11.946 12.942 9.544 32.46 9.525 48.743l.015 7.395c.012 5.978.015 11.956.012 17.934-.001 4.863 0 9.725.005 14.587l.001 2.104.004 4.233c.01 13.202.009 26.405.003 39.608-.006 12.057.006 24.115.025 36.173.02 12.408.027 24.816.024 37.224-.002 6.955 0 13.91.014 20.866.014 6.54.01 13.08-.002 19.62-.002 2.395 0 4.789.009 7.183.096 29.967.096 29.967-7.385 38.768-6.036 5.554-13.04 6.19-21.047 5.883-5.42-.734-9.568-2.11-13.52-5.977-5.798-7.71-6.582-17.011-6.578-26.34l-.01-2.53c-.011-2.792-.015-5.583-.019-8.373l-.02-6.014c-.015-4.315-.026-8.63-.036-12.945-.015-6.835-.04-13.67-.065-20.505-.07-19.436-.13-38.873-.182-58.309-.028-10.736-.064-21.472-.106-32.208-.027-6.781-.045-13.562-.056-20.343-.01-4.24-.027-8.48-.047-12.72-.007-1.951-.011-3.902-.012-5.853.432-20.96.432-20.96-5.302-40.766-10.296-7.465-26.68-5.293-38.723-5.266l-6.338-.005c-4.412-.003-8.823 0-13.235.01-5.634.012-11.268.005-16.902-.007-4.357-.007-8.715-.005-13.072 0-2.077.002-4.153 0-6.23-.005-2.91-.005-5.818.003-8.727.014l-2.559-.012c-7.743.054-16.762.662-23.214 5.271-3.69 5.457-5.094 11.103-5.177 17.647l-.039 2.702-.022 2.885-.025 3.008c-.014 2.098-.024 4.196-.032 6.294-.012 2.136-.032 4.271-.062 6.406a882.16 882.16 0 00-.069 9.292l-.053 2.861c.02 6.322 1.104 11.477 4.479 16.905 2.502 2.159 2.502 2.159 5.5 3.312l3.195 1.418c4.179 1.606 8.405 2.992 12.672 4.34 5.154 1.82 9.025 4.827 12.633 8.93 3.046 7.663 3.436 15.686 3.388 23.833l.016 3.38c.013 3.652.005 7.303-.006 10.955a4602.734 4602.734 0 01-.007 23.791 3464.12 3464.12 0 00.006 18.47c.015 5.973.013 11.946.004 17.92-.002 2.518 0 5.035.008 7.552.087 39.73.087 39.73-9.659 51.911-13.982 11.122-33.8 10.006-50.708 8.422-9.919-1.138-17.698-3.986-24.855-10.984-5.626-8.36-6.245-18.043-6.741-27.865l-.128-2.5c-.454-9.682-.458-19.359-.447-29.05l-.006-6.132c-.004-5.492-.003-10.983 0-16.475.003-5.781 0-11.563 0-17.344-.003-9.702 0-19.404.005-29.105.005-11.176.003-22.353-.002-33.529-.005-9.642-.005-19.284-.003-28.926.002-5.739.002-11.478-.001-17.216-.003-5.396-.001-10.792.005-16.188 0-1.967 0-3.934-.002-5.9-.049-47.585-.049-47.585 10.133-58.02 11.942-8.793 30.07-7.15 44.05-7.145zM2349.757 1380.855l3.07-.01c3.314-.01 6.628-.012 9.943-.013l6.981-.01c4.866-.006 9.732-.008 14.598-.007 6.203 0 12.406-.014 18.609-.031 4.804-.011 9.607-.013 14.41-.013 2.286 0 4.572-.005 6.857-.013 33.895-.105 33.895-.105 43.775 6.242 6.088 6.244 6.896 12.524 7 21-.503 6.668-1.862 11.409-7 16-5.24 3.646-11.033 4.429-17.26 5.09l-2.398.259c-7.428.748-14.812.946-22.274.956-2.306.004-4.612.02-6.918.04-6.54.055-13.082.087-19.623.111-4.04.016-8.081.047-12.122.085-1.521.012-3.043.018-4.564.018-14.252-.135-14.252-.135-26.841 5.753-5.925 7.963-5.205 18.521-5.25 28l-.063 3.264c-.037 7.795.048 15.921 5.614 21.893 2.91 1.65 5.738 2.896 8.886 4.031l3.458 1.285c2.057.745 4.116 1.483 6.18 2.211 5.604 2.069 10.424 4.215 14.175 9.004 3.253 7.86 3.431 15.897 3.388 24.28l.016 3.882c.014 3.484.009 6.968-.001 10.452-.008 3.673 0 7.346.004 11.019.006 6.171-.002 12.343-.016 18.514-.016 7.09-.011 14.181.006 21.272.013 6.126.015 12.252.007 18.378-.004 3.642-.005 7.284.005 10.926.1 42.1.1 42.1-9.659 54.027-13.555 11.09-33.25 10.13-49.806 8.484-9.956-1.2-18.537-3.982-25.257-11.672-5.402-7.897-5.8-17.932-6.253-27.22l-.125-2.49c-.446-9.671-.45-19.338-.438-29.017l-.006-6.132c-.004-5.492-.003-10.983 0-16.475.003-5.781 0-11.563 0-17.344-.003-9.702 0-19.404.005-29.105.005-11.176.003-22.353-.002-33.529-.005-9.642-.005-19.284-.003-28.926.002-5.739.002-11.478-.001-17.216-.003-5.396-.001-10.792.005-16.188 0-1.967 0-3.934-.002-5.9-.049-47.585-.049-47.585 10.133-58.02 10.574-7.786 26.264-7.151 38.757-7.145zM2547.234 1382.816c5.784 3.877 7.381 9.656 8.766 16.184 1.06 7.472 1.163 14.89 1.2 22.424.011 2.243.03 4.485.052 6.728.061 6.369.116 12.738.15 19.108.02 3.914.056 7.827.1 11.741.014 1.48.023 2.959.026 4.438-.308 14.007-.308 14.007 5.773 26.03 2.91 1.65 5.738 2.896 8.887 4.031l3.457 1.285c2.057.745 4.116 1.483 6.18 2.211 5.604 2.069 10.424 4.215 14.175 9.004 3.253 7.86 3.431 15.897 3.388 24.28l.016 3.882c.014 3.484.009 6.968-.001 10.452-.008 3.673 0 7.346.004 11.019.006 6.171-.002 12.343-.016 18.514-.016 7.09-.011 14.181.006 21.272.013 6.126.015 12.252.007 18.378-.004 3.642-.005 7.284.005 10.926.1 42.1.1 42.1-9.659 54.027-13.796 11.288-33.893 10.059-50.708 8.48-8.527-.96-16.009-2.847-22.042-9.23-12.797-16.282-9.15-42.599-9.13-62.222 0-2.157-.003-4.315-.005-6.472-.004-5.8-.003-11.599 0-17.398.003-6.099 0-12.198 0-18.298-.003-10.232 0-20.464.005-30.696.005-11.8.003-23.6-.002-35.4-.005-10.17-.005-20.342-.003-30.513.002-6.058.002-12.116-.001-18.173-.003-5.693-.001-11.385.005-17.077 0-2.08 0-4.159-.002-6.238-.04-41.248-.04-41.248 9.133-51.513 8.345-6.106 21.282-5.975 30.234-1.184zM1334.234 1382.816c5.784 3.877 7.381 9.656 8.766 16.184 1.06 7.472 1.163 14.89 1.2 22.424.011 2.243.03 4.485.052 6.728.061 6.369.116 12.738.15 19.108.02 3.914.056 7.827.1 11.741.014 1.48.023 2.959.026 4.438-.308 14.007-.308 14.007 5.773 26.03 2.91 1.65 5.738 2.896 8.887 4.031l3.457 1.285c2.057.745 4.116 1.483 6.18 2.211 5.604 2.069 10.424 4.215 14.175 9.004 3.253 7.86 3.431 15.897 3.388 24.28l.016 3.882c.014 3.484.009 6.968-.001 10.452-.008 3.673 0 7.346.004 11.019.006 6.171-.002 12.343-.016 18.514-.016 7.09-.011 14.181.006 21.272.013 6.126.015 12.252.007 18.378-.004 3.642-.005 7.284.005 10.926.1 42.1.1 42.1-9.659 54.027-13.796 11.288-33.893 10.059-50.708 8.48-8.527-.96-16.009-2.847-22.042-9.23-12.797-16.282-9.15-42.599-9.13-62.222 0-2.157-.003-4.315-.005-6.472-.004-5.8-.003-11.599 0-17.398.003-6.099 0-12.198 0-18.298-.003-10.232 0-20.464.005-30.696.005-11.8.003-23.6-.002-35.4-.005-10.17-.005-20.342-.003-30.513.002-6.058.002-12.116-.001-18.173-.003-5.693-.001-11.385.005-17.077 0-2.08 0-4.159-.002-6.238-.04-41.248-.04-41.248 9.133-51.513 8.345-6.106 21.282-5.975 30.234-1.184zM2552.556 1253.76c1.977-.01 3.954-.041 5.93-.072 13.42-.054 25.464 1.419 35.327 11.062 8.358 12.418 7.715 30.654 5 44.875-1.9 7.703-4.904 14.076-11.813 18.375-16.91 8.713-41.895 8.302-59.977 3.152-7.63-2.78-11.892-7.171-16.023-14.152-5.307-13.128-4.343-30.725 0-44 3.544-8.236 8.064-12.611 16.3-15.926 8.37-2.968 16.432-3.288 25.256-3.314zM1339.556 1253.76c1.977-.01 3.954-.041 5.93-.072 13.42-.054 25.464 1.419 35.327 11.062 8.358 12.418 7.715 30.654 5 44.875-1.9 7.703-4.904 14.076-11.813 18.375-16.91 8.713-41.895 8.302-59.977 3.152-7.63-2.78-11.892-7.171-16.023-14.152-5.307-13.128-4.343-30.725 0-44 3.544-8.236 8.064-12.611 16.3-15.926 8.37-2.968 16.432-3.288 25.256-3.314z"
        fill="currentColor" />
</svg>