<svg xmlns="http://www.w3.org/2000/svg" width="800" height="800">
    <path
        d="M386.598 116.797l2.98-.022c41.086-.227 41.086-.227 59.422 3.225l3.367.618C498.894 129.37 544.046 148.04 581 178l2.816 2.234C599.901 193.14 615.394 207.646 628 224l2.414 3.04C663.421 268.816 683.515 319.072 689 372l.29 2.749c.788 8.292.865 16.551.835 24.876l-.003 2.117c-.016 10.777-.286 21.51-1.122 32.258l1.718.851c10.44 5.178 20.858 10.384 31.14 15.87 5.657 3.005 11.358 5.914 17.076 8.802 2.42 1.228 4.839 2.455 7.258 3.684 1.619.818 3.239 1.634 4.86 2.446 2.292 1.147 4.578 2.306 6.862 3.468l2.122 1.05c4.85 2.488 4.85 2.488 5.964 5.829l-2.856.107c-8.915.335-17.83.673-26.745 1.015-4.582.175-9.164.35-13.747.52-4.428.167-8.857.336-13.285.507l-5.05.19c-8.47.314-16.891.68-25.317 1.661l-.674 2.02C666.982 515.961 651.416 546.98 629 575l-2.094 2.68C612.658 595.597 596.226 611.22 578 625l-1.836 1.403c-8.467 6.452-17.138 12.253-26.367 17.556a314.13 314.13 0 00-5.078 3.025C526.836 657.63 506.319 667.207 486 672c.58 5.896 1.164 11.792 1.75 17.688l.267 2.697c1.002 10.081 2.028 20.159 3.14 30.228l.28 2.545c.441 4.003.888 8.006 1.343 12.009l.486 4.364.43 3.8c.325 3.921.355 7.736.304 11.669-4.629-4.217-7.844-8.994-11.234-14.234l-1.793-2.737c-1.913-2.923-3.818-5.85-5.723-8.779-2.61-3.994-5.225-7.986-7.84-11.977l-1.94-2.965a1182.026 1182.026 0 00-17.897-26.475l-1.874-2.716-1.599-2.293C443 683 443 683 443 681l-1.8.402-2.512.535-2.426.528c-11.881 1.95-23.881 1.778-35.887 1.785l-3.047.002c-15.317-.016-30.221-.501-45.328-3.252l-3.003-.536C298.929 671.292 252.205 650.602 213 618l-1.512-1.239C197.408 605.198 184.078 592.5 173 578a3329.276 3329.276 0 00-3.04-3.852C136.966 532.088 116.507 482.238 111 429l-.286-2.753c-.773-8.244-.957-16.47-.964-24.747l-.002-2.164c.044-29.89 4.82-58.979 14.252-87.336l.756-2.304c6.63-19.916 16.117-38.746 26.869-56.735l1.182-2.053C154 249 154 249 155.423 247.362c1.589-1.803 1.589-1.803 2.577-5.362-1.461-4.489-3.919-8.374-6.375-12.375-.707-1.2-1.41-2.403-2.111-3.607a832.961 832.961 0 00-4.376-7.407c-3.183-5.347-6.183-10.795-9.2-16.236a6782.77 6782.77 0 00-3.446-6.145 8160.532 8160.532 0 01-7.234-12.93l-1.875-3.354a8482.808 8482.808 0 01-3.502-6.275 592.604 592.604 0 00-10.58-18.164C108 153 108 153 108 150c4.006 1.265 7.737 2.735 11.508 4.582l3.194 1.554 3.423 1.676c2.444 1.19 4.89 2.375 7.336 3.56l1.897.917c7.561 3.652 15.19 7.158 22.822 10.66a692.793 692.793 0 0119.336 9.274l4.286 2.125a815.698 815.698 0 018.248 4.155c1.254.624 2.508 1.246 3.762 1.868l3.333 1.685c2.75 1.219 2.75 1.219 5.102.23 2.348-1.723 4.4-3.644 6.503-5.661 46.04-42.843 115.265-69.528 177.848-69.828zM214 199c2.04 2.21 3.865 3.604 6.584 4.878.714.34 1.429.678 2.165 1.027l2.345 1.087 2.455 1.158c2.648 1.248 5.3 2.486 7.951 3.725 2.755 1.295 5.509 2.593 8.263 3.89 1.835.865 3.672 1.73 5.508 2.593a2023.88 2023.88 0 0121.979 10.517c9.948 4.812 19.957 9.481 29.991 14.11 9.464 4.382 18.851 8.91 28.228 13.473 9.092 4.424 18.222 8.75 27.406 12.98 10.982 5.059 21.869 10.292 32.736 15.591a1610.597 1610.597 0 0031.928 15.106c8.747 4.04 17.423 8.211 26.086 12.428 10.024 4.875 20.074 9.686 30.188 14.375l3.344 1.558 3.05 1.406 2.671 1.234c2.049.99 2.049.99 4.122.864v2l-1.91-.016c-11.616-.082-23.213-.071-34.821.377-3.735.142-7.47.253-11.206.362-4.18.125-8.344.283-12.516.55-20.998 1.335-34.899.534-52.55-12.203-4.87-3.364-10.032-6.192-15.198-9.066-2.987-1.667-5.955-3.367-8.924-5.067l-1.76-1.005A1905.865 1905.865 0 01335 297a2622.207 2622.207 0 00-25.875-14.938c-14.475-8.254-28.907-16.58-43.334-24.916a35423.54 35423.54 0 00-9.666-5.583l-3.215-1.857a4182.41 4182.41 0 00-19.007-10.902 5864.97 5864.97 0 00-9.022-5.137c-5.13-2.922-10.242-5.86-15.283-8.933l-2.395-1.452a307.765 307.765 0 01-4.233-2.629c-3.255-2.101-3.255-2.101-6.986-2.433-2.304.906-3.274 1.843-4.859 3.73l-1.547 1.821-1.578 1.917-1.578 1.857A230.28 230.28 0 00182 233l-1.336 1.62c-1.341 1.669-1.341 1.669-2.664 4.38 1.107 3.727 2.977 6.657 5.203 9.816l1.95 2.784 2.097 2.963 2.171 3.093c1.478 2.104 2.958 4.207 4.44 6.308a3320.9 3320.9 0 017.556 10.78c1.716 2.455 3.434 4.908 5.153 7.361 4.054 5.785 8.104 11.572 12.154 17.358 3.065 4.38 6.13 8.757 9.198 13.135l1.941 2.771a20149.912 20149.912 0 005.371 7.666l1.476 2.106A315.28 315.28 0 01240 330h-32l-5.75-10.688a1068.04 1068.04 0 00-14.565-26.12 995.335 995.335 0 01-8.7-15.434l-1.035-1.873a3259.749 3259.749 0 01-5.051-9.177l-1.844-3.345-1.641-2.99c-1.33-2.453-1.33-2.453-3.414-4.373-20.944 35.525-34.639 71.952-40 113l-.265 1.982c-.722 5.824-.88 11.56-.868 17.424l-.003 2.924c0 2.027.001 4.054.006 6.08.005 3.081 0 6.162-.007 9.242 0 1.98.002 3.961.004 5.942l-.006 2.756c-.277 9.584-.277 9.584 2.139 18.65l75 2v11l-5.393-.184c-5.931-.201-11.863-.4-17.794-.598-3.59-.12-7.18-.24-10.77-.364-3.476-.118-6.951-.235-10.426-.35-1.948-.065-3.896-.132-5.844-.2A602.965 602.965 0 00128 445c8.308 51.487 31.516 98.97 66.664 137.418a233.905 233.905 0 013.908 4.41C209.855 599.945 223.026 610.872 237 621l1.769 1.288c8.43 6.099 17.217 11.532 26.231 16.712l3.441 1.992C294.47 655.664 323.664 664.912 353 670l2.767.48c40.203 7.022 40.203 7.022 79.233.52-1.66-5.013-4.559-9.034-7.52-13.348l-1.701-2.506c-1.22-1.795-2.44-3.589-3.663-5.381a5055.387 5055.387 0 01-9.917-14.613l-2.069-3.055C403.163 621.79 396.324 611.4 389.5 601a3951.616 3951.616 0 00-31.053-46.538C345.79 535.756 333.36 516.903 321 498c37.685-3.318 37.685-3.318 47.493 1.835 5.185 4.613 8.311 10.278 11.225 16.511 1.77 3.664 4.07 6.746 6.532 9.967.785 1.103 1.567 2.21 2.344 3.32 2.65 3.736 5.399 7.396 8.156 11.054 6.218 8.251 12.348 16.566 18.468 24.89 2.924 3.976 5.853 7.95 8.782 11.923 3.56 4.83 7.12 9.662 10.676 14.496 2.914 3.962 5.832 7.92 8.754 11.877 1.013 1.373 2.027 2.747 3.039 4.121 1.278 1.734 2.56 3.464 3.844 5.193l2.113 2.856L454 618h1c.023-11.945.041-23.89.052-35.836.005-5.548.012-11.097.023-16.645.011-5.369.017-10.737.02-16.106.002-2.034.005-4.068.01-6.101.033-12.476-.255-24.864-1.105-37.312h13l.324 3.972c1.312 15.73 2.952 31.418 4.673 47.108.307 2.8.612 5.599.917 8.398.719 6.594 1.44 13.187 2.163 19.78.745 6.786 1.485 13.573 2.223 20.36.638 5.867 1.278 11.733 1.92 17.599.383 3.488.764 6.976 1.143 10.464.42 3.865.844 7.73 1.27 11.593l.376 3.485.353 3.176.302 2.761c.29 2.457.29 2.457 1.336 5.304 7.063-1.353 13.382-3.52 20-6.313l3.137-1.32C530.984 642.124 552.81 629.272 573 613l2.914-2.293c7.54-6.127 14.452-12.862 21.336-19.707l2.797-2.769C627.145 561.01 657.417 518.695 663 480c-20.577-.263-41.07.459-61.623 1.332-3.373.142-6.748.277-10.122.412-3.282.133-6.565.268-9.847.405l-4.652.19c-2.156.087-4.312.179-6.467.272l-3.693.155c-3.879.252-7.739.752-11.596 1.234l-1-33 11.75.063c14.436.036 28.828-.445 43.25-1.063-2.073-2.262-3.172-3.068-6.137-4.234-7.454-3.182-7.454-3.182-9.863-6.766-1.716-7.47-.786-15.443 0-23l2.463-.335c3.66-.504 7.317-1.022 10.975-1.54l3.876-.527 3.682-.528 3.412-.476L620 412c1.354-2.123 1.354-2.123.004-5.04l-1.442-3.585-1.433-3.602L616 397c5.565 2.843 11.13 5.687 16.693 8.533l5.658 2.891a10915.35 10915.35 0 0110.92 5.584 711.257 711.257 0 0118.31 9.707c3.033 1.746 3.033 1.746 6.419 2.285.777-2.765 1.133-5.243 1.161-8.112l.029-2.437.013-2.623.022-2.746c.252-28.178.252-28.178-3.225-56.082l-.57-3.012C664.474 315.35 651.256 281.214 631 251l-1.444-2.168C622.7 238.619 615.226 229.139 607 220l-1.466-1.637c-8.057-8.972-16.207-17.475-25.64-25.023a217.06 217.06 0 01-5.632-4.711C498.542 123.172 388.137 111.926 214 199zm-75-14c4.234 6.95 8.786 13.548 13.652 20.065a254.91 254.91 0 017.395 10.45l1.499 2.238a417.9 417.9 0 012.838 4.32c1.13 1.695 2.365 3.319 3.616 4.927h3a93.714 93.714 0 005.563-6.25l1.498-1.777c2.398-2.89 4.336-5.557 5.939-8.973l-2.332-1.326c-3.578-2.035-7.155-4.073-10.73-6.112-.64-.364-1.28-.728-1.938-1.104-8.581-4.891-17.108-9.853-25.508-15.052-2.305-1.57-2.305-1.57-4.492-1.406z"
        fill="currentColor" />
    <path
        d="M398.088 4.553c2.074.01 4.148.014 6.222.019 20.483.056 40.488.743 60.69 4.428l3.763.65C506.096 16.167 541.913 27.45 576 44l2.703 1.297C597.078 54.14 614.198 64.465 631 76l1.878 1.28c12.984 8.888 25.178 18.906 36.75 29.56 2.001 1.822 4.032 3.59 6.083 5.355 4.645 4.056 9.003 8.372 13.352 12.743l2.314 2.302A260.368 260.368 0 01705 142l2.598 2.957c17.912 20.751 33.44 43.767 46.289 67.97a283.971 283.971 0 003.3 5.944C779.205 258.15 792.427 304.557 798 349l.26 1.99c2.024 15.87 2.14 31.716 2.115 47.698v2.039c-.01 21.036-.64 41.52-4.375 62.273l-.633 3.74C784.676 529.116 758.509 589.457 719 639l-2.168 2.777C699.157 664.263 679.429 685.21 657 703c-1.14.93-2.277 1.86-3.414 2.793-52.16 42.588-115.293 70.724-181.398 82.895l-3.08.576c-22.314 3.916-44.563 5.291-67.196 5.183-2.074-.01-4.148-.014-6.222-.019-20.483-.056-40.488-.743-60.69-4.428l-3.763-.65c-37.333-6.518-73.15-17.8-107.237-34.35l-2.703-1.297C202.922 744.86 185.802 734.535 169 723l-1.878-1.28c-12.984-8.888-25.178-18.906-36.75-29.56-2.001-1.822-4.032-3.59-6.083-5.355-4.645-4.056-9.003-8.372-13.351-12.742l-2.315-2.303A260.368 260.368 0 0195 657l-2.598-2.957C81.282 641.161 71.115 627.37 62 613l-1.171-1.833C29.73 562.29 9.219 507.561 2 450l-.26-1.99C-.284 432.14-.4 416.295-.375 400.314v-2.04C-.364 377.237.266 356.753 4 336l.633-3.74C15.324 269.884 41.491 209.543 81 160l2.168-2.777C100.843 134.737 120.571 113.79 143 96c1.14-.93 2.277-1.86 3.414-2.793 52.16-42.588 115.293-70.724 181.399-82.894l3.079-.577c22.314-3.916 44.563-5.291 67.196-5.183zM277 36l-3.196 1.054c-86.647 29.01-160.83 89.44-222.1 192.372C32.193 268.664 19.385 310.495 14 354l-.264 2.1c-1.756 14.306-2.097 28.497-2.048 42.9l.005 3.4c.047 17.048.601 33.736 3.307 50.6l.536 3.463c6.525 41.396 19.135 80.567 38.53 117.743.94 1.804 1.86 3.617 2.782 5.43C64.863 595.239 74.519 609.952 85 624l1.225 1.646c17.079 22.833 36.666 45.87 59.236 63.374 2.404 1.874 4.705 3.84 7.003 5.843 23.18 20.111 50.047 35.837 77.582 49.182 1.902.93 3.79 1.884 5.677 2.842 44.932 22.423 98.68 34.965 148.777 35.351l3.218.03c46.717.343 90.763-4.567 135.282-19.268l3.196-1.054c59.281-19.848 111.068-54.333 155.179-98.196.559-.554 1.118-1.108 1.693-1.68C740.317 604.602 776.101 524.958 786 445l.264-2.1c1.756-14.306 2.097-28.497 2.049-42.9l-.006-3.4c-.047-17.048-.601-33.736-3.307-50.6l-.536-3.463c-6.525-41.396-19.135-80.567-38.53-117.743-.94-1.804-1.86-3.617-2.782-5.43C735.137 203.761 725.481 189.048 715 175l-1.225-1.646c-17.079-22.833-36.666-45.87-59.236-63.374-2.404-1.874-4.705-3.84-7.003-5.843-23.18-20.111-50.047-35.837-77.582-49.182-1.902-.93-3.79-1.884-5.677-2.842-44.932-22.423-98.68-34.965-148.777-35.351l-3.218-.03C365.565 16.389 321.52 21.299 277 36z"
        fill="currentColor" />
    <path
        d="M163 342h35c12 24 12 24 12 28h2l.511-1.635c1.865-5.795 4.108-11.32 6.614-16.865l1.09-2.453c2.647-5.909 2.647-5.909 3.785-7.047 2.739-.089 5.453-.115 8.191-.098l2.201.003c2.724.006 5.447.02 8.17.033L261 342v65h-24l-1-35-3.027 7.402-2.9 7.07c-.673 1.641-1.345 3.284-2.016 4.926a4665.83 4665.83 0 01-2.897 7.067l-.912 2.238c-2.134 5.183-2.134 5.183-3.248 6.297a76.273 76.273 0 01-4.691.098l-2.577-.008-3.295-.027L200 407l-14-33-1 33h-22v-65zM437 342l28.625-.188 8.948-.082c2.384-.009 4.769-.017 7.154-.023l3.643-.046c9.502-.003 20.91.113 28.818 6.026 3.89 4.009 5.654 8.204 5.937 13.766-.304 6.185-2.022 10.884-6.125 15.547a69.822 69.822 0 01-6.23 4.773c-1.904 1.242-1.904 1.242-3.77 3.227l1.27 1.697c1.893 2.535 3.78 5.075 5.668 7.615.659.882 1.318 1.763 1.998 2.67l1.904 2.569 1.761 2.364C518 404 518 404 519 407c-24.002 2.703-24.002 2.703-30.325-1.572-3.564-3.947-5.646-8.487-7.707-13.343-1.565-3.371-3.252-5.514-5.968-8.085-4.083-1.055-7.74-.906-12-1v24h-26v-65zm26 16v12c17.23 1.038 17.23 1.038 33-4-.27-2.437-.27-2.437-1-5-6.232-4.154-14.199-3.124-21.438-3.063l-3.083.014c-2.493.012-4.986.03-7.479.049zM305 342c2.981-.34 2.981-.34 6.758-.293l2.01.013c2.119.017 4.238.054 6.357.092 1.436.016 2.872.03 4.309.042 3.522.033 7.044.084 10.566.146l1.202 2.892a33196.403 33196.403 0 006.633 15.942c3.505 8.427 7.015 16.851 10.61 25.24l1.544 3.61c.949 2.213 1.902 4.423 2.86 6.632l1.272 2.97 1.107 2.558C361 404 361 404 361 407h-28l-3-8-29-1-2 6-2 3c-2.706.34-2.706.34-6.102.293l-3.671-.03-3.852-.075-3.875-.042c-3.167-.035-6.333-.084-9.5-.146 1.314-4.303 2.978-8.054 5.168-11.98l1.937-3.491 2.083-3.717 2.137-3.84a5006.99 5006.99 0 014.435-7.957c2.198-3.936 4.382-7.879 6.564-11.824a42550.993 42550.993 0 015.978-10.797l1.784-3.214 1.564-2.821c1.046-1.828 2.181-3.606 3.35-5.359zm13 19a3187.623 3187.623 0 00-4.5 9.375l-1.3 2.695-1.231 2.578-1.143 2.38c-.955 1.923-.955 1.923-.826 3.972h16c-1.444-7.22-3.578-14.051-6-21h-1zM556 342h29a10192.603 10192.603 0 0111.934 29.3c1.941 4.779 3.876 9.56 5.803 14.343.633 1.571 1.269 3.14 1.906 4.71.899 2.214 1.79 4.43 2.681 6.647l.822 2.014c1.132 2.834 1.854 4.901 1.854 7.986h-27l-3-10c-4.397-.094-8.79-.087-13.188-.063l-3.775-.083-3.642.048-3.349-.016c-4.395 1.23-4.395 1.23-8.046 10.114h-23a750.646 750.646 0 0114.938-32.5l2.013-4.145C546.565 360.87 551.27 351.43 556 342zm12 20a2941.43 2941.43 0 00-4 8.875l-1.156 2.55-1.094 2.442-1.016 2.254c-.855 1.853-.855 1.853-.734 3.879h16l-6-20h-2zM351 342h78v19h-26v46h-27v-46h-25v-19zM310.188 422.125L312 424l-1 4-2.157-.43c-7.789-1.443-15.247-1.845-23.156-1.757l-3.416.001c-5.522.03-10.832.205-16.271 1.186 3.133 3.602 5.983 5.025 10.453 6.621l1.876.687c1.97.72 3.945 1.426 5.921 2.13 22.399 7.994 22.399 7.994 26.75 15.562.082 3.375-.65 4.604-2.875 7.125-10.084 6.05-22.4 6.056-33.813 6.063l-3.357.037c-9.276.016-19.227-.179-27.58-4.663l-2.414-1.246C239 458 239 458 237 455v-3c5.243.49 10.181 1.2 15.276 2.511 14.171 3.614 32.143 5.28 45.724-1.511v-2c-5.749-2.768-11.576-4.94-17.625-6.938l-2.344-.775a699.897 699.897 0 00-11.39-3.642l-2.057-.651a735.62 735.62 0 00-5.545-1.72c-3.214-1.347-4.9-2.542-7.039-5.274-.563-3.5-.563-3.5 0-7 9.895-11.095 46.48-10.68 58.188-2.875zM337.688 427.25C340 428 340 428 341 429c2.972.246 5.943.384 8.922.523 3.427.531 5.334 1.376 8.078 3.477 3.087 4.499 2.772 9.785 2 15-2.037 5.37-4.793 9.762-9.875 12.625-5.847 2.346-10.779 2.026-16.625-.125L330 459c-4.253 6.057-6.96 12.428-9.676 19.271-2.242 5.647-2.242 5.647-3.324 6.729-2 .04-4 .043-6 0-1.314-3.968-.778-6.258 1.02-9.985l.953-1.87.965-1.986c.68-1.399 1.365-2.794 2.055-4.188 5.153-10.404 10.204-20.69 13.283-31.93.836-2.952 1.5-4.818 3.7-7.006C335 427 335 427 337.688 427.25zm2.816 13.121c-2.55 2.762-4.626 5.95-5.504 9.629.912 2.498 1.423 3.67 3.75 5 3.615 0 5.474-1.802 8.25-4 2.786-2.786 3.889-4.204 4.438-8.125-.217-2.855-.217-2.855-1.75-4.75-3.792-2.528-6.153-.42-9.184 2.246zM509 430.813l2.117-.038c4.077-.011 7.254.324 10.883 2.225 2 2 2 2 2 5h-23c4.308 3.231 8.507 4.835 13.512 6.574 4.47 1.67 6.92 3.395 9.488 7.426.625 2.563.625 2.563 0 5-7.138 6.245-15.537 6.394-24.578 6.258-5.202-.392-9.987-1.36-14.16-4.613C484 457 484 457 484 453c3.707-1.236 4.498-.574 8 .938 7.717 2.954 15.292 3.395 23 .062-2.202-2.493-3.952-3.545-7.125-4.5l-2.39-.75L503 448a471.666 471.666 0 01-4.875-1.5l-2.18-.656c-2.23-.967-3.43-1.951-4.945-3.844-.5-2.938-.5-2.938 0-6 5.129-5.422 10.933-5.181 18-5.188zM467 418h3v7h13l1 4c-5.57 1.592-10.211 2.207-16 2l-.809 2.137c-1.25 3.004-2.722 5.805-4.253 8.675-2.482 4.903-3.834 8.7-3.938 14.188l1 1c2.19-.09 4.378-.247 6.563-.438l3.628-.308L473 456c-1.455 5.58-1.455 5.58-3.754 7.355-2.799.804-5.27.946-8.183.957l-3.09.051c-3.66-.447-6.347-1.737-8.973-4.363-.206-7.009 1.891-12.834 4.746-19.14 1.276-2.91 2.292-5.835 3.254-8.86l-2.438-1.313C452 429 452 429 451 426c1.61-1.61 3.53-1.119 5.75-1.188 3.785-.277 3.785-.277 6.918-2.21 1.149-1.506 2.244-3.052 3.332-4.602zM399 434c2.871 2.871 2.803 4.989 3 9-2.106 6.938-6.263 11.75-11.813 16.313-4.833 2.558-9.626 4.3-15.062 3-2.133-1.318-3.548-2.37-5.125-4.313-.89-4.66-.496-8.85 1.375-13.188 7.583-8.124 16.274-13.536 27.625-10.812zm-20 11c-1.437 2.337-2.073 3.382-1.75 6.125.687 2.075.687 2.075 2.75 3.875 4.876-.217 7.487-1.682 11-5 2.294-3.441 2.263-4.968 2-9-1.015-1.205-1.015-1.205-3.063-1.375-4.298.549-7.633 2.603-10.937 5.375zM420.247 434.773c.91.01 1.822.02 2.76.032l2.99.02 3.128.05 3.152.027c2.575.024 5.149.057 7.723.098 1.251 4.937.507 7.505-2 12-2.187.937-2.187.937-4 1l-1-1.938c-3.023-3.117-5.737-2.782-10-3.062l-.625 2.375c-1.882 4.961-4.567 10.817-8.375 14.625-2 .04-4 .043-6 0-.75-1.688-.75-1.688-1-4l1.82-2.195c2.506-3.225 3.54-6.122 4.805-9.993 2.847-8.658 2.847-8.658 6.622-9.04z"
        fill="currentColor" />
</svg>