<svg xmlns="http://www.w3.org/2000/svg" width="960" height="321">
    <path
        d="M97.222-.161l2.218-.015c2.423-.015 4.845-.022 7.267-.027l5.056-.017c3.535-.01 7.07-.017 10.604-.02 4.523-.006 9.046-.03 13.568-.058 3.482-.019 6.964-.024 10.447-.026a822.82 822.82 0 005-.024c2.336-.017 4.672-.015 7.008-.008l2.074-.028C165.025-.344 168.107.65 172 3c1.529 1.656 1.529 1.656 2.648 3.5l1.332 2.145L177.375 11l1.534 2.51c1.715 2.82 3.404 5.653 5.091 8.49l1.87 3.118c9.3 15.497 18.386 31.119 27.366 46.803 1.683 2.937 3.374 5.87 5.065 8.802 8.09 14.098 15.573 28.478 22.98 42.941a1107.285 1107.285 0 008.575 16.265c8.78 16.513 8.78 16.513 7.144 25.071-5.173 15.673-14.305 30.426-22 45l-1.828 3.468c-7.745 14.653-15.846 29.057-24.28 43.323-2.03 3.444-4.047 6.896-6.06 10.35-6.78 11.626-13.601 23.226-20.582 34.734l-1.697 2.807A499.424 499.424 0 01176 312l-1.322 2.11C172.13 317.958 170.4 319.7 166 321c-3.408.26-3.408.26-7.357.275l-2.19.015c-2.379.014-4.758.013-7.137.01l-4.98.014c-3.475.007-6.951.007-10.427.002-4.447-.006-8.893.01-13.339.034-3.427.015-6.854.016-10.282.013-1.639 0-3.278.005-4.917.015-2.295.013-4.59.006-6.884-.006l-3.952.002c-5.105-.54-8.38-2.017-11.71-5.929l-2.138-3.32-1.239-1.92c-6.379-10.042-12.28-20.397-18.246-30.688a2316.9 2316.9 0 00-6.917-11.849c-16.597-28.259-32.497-56.918-47.16-86.23L6.2 179.59c-8.483-16.968-8.483-16.968-5.455-27.078 1.107-2.57 2.333-5.034 3.63-7.512l1.454-2.9a892.021 892.021 0 014.211-8.233c1.39-2.703 2.758-5.417 4.128-8.13C23.007 108.235 32.13 90.944 42 74l1.637-2.824a4004.427 4004.427 0 0110.442-17.892c1.706-2.916 3.405-5.836 5.102-8.758 13.634-23.484 13.634-23.484 20.194-33.651l1.315-2.043C85.528 1.465 88.433-.147 97.222-.16zM158 13c-5.671 6.332-9.389 14.892-13.438 22.312l-2.115 3.859a3917.24 3917.24 0 00-7.428 13.633c-7.822 14.395-15.454 28.883-22.957 43.446l-1.052 2.042a2396.493 2396.493 0 00-14.078 27.84c-1.416 2.838-2.842 5.671-4.268 8.505l-1.535 3.056c-1.025 2.04-2.05 4.08-3.078 6.118-.5.994-.998 1.989-1.512 3.013l-1.337 2.66C82.882 154.34 80.92 158.557 82 164c1.67 4.37 3.768 8.516 5.875 12.687a2391.95 2391.95 0 011.872 3.789c1.347 2.724 2.703 5.444 4.066 8.16 1.89 3.766 3.764 7.539 5.635 11.314a7321.33 7321.33 0 005.864 11.8l1.113 2.235c.725 1.453 1.45 2.905 2.177 4.356.712 1.42 1.42 2.842 2.124 4.266a176.625 176.625 0 005.924 10.934l1.306 2.272a133.17 133.17 0 002.55 4.23c1.638 2.866 2.652 4.84 2.18 8.176-.753 2.35-1.657 4.54-2.686 6.781l-.849 2.022a210.369 210.369 0 01-2.663 5.95l-1.006 2.201c-.7 1.528-1.4 3.055-2.105 4.58a1910.22 1910.22 0 00-3.133 6.839c-3.775 8.24-7.666 16.4-11.822 24.456-1.817 3.306-1.817 3.306-2.422 6.952 4.274-1.52 5.64-4.172 7.875-8l1.143-1.953c5.031-8.7 9.722-17.596 14.455-26.461 2.586-4.843 5.212-9.662 7.868-14.468 12.862-23.32 24.734-47.185 36.659-70.993l1.33-2.653c1.247-2.487 2.49-4.975 3.732-7.464l1.122-2.237c4.438-8.483 4.438-8.483 3.816-17.771-1.559-4.05-3.39-7.955-5.25-11.875l-1.686-3.594c-7.09-14.998-14.734-29.731-22.341-44.472l-1.255-2.44c-2.693-5.213-5.53-10.312-8.607-15.31-1.757-4.712.28-9.101 2.221-13.485l1.309-2.973 1.421-3.164 1.465-3.296c4.537-10.133 9.334-20.136 14.192-30.118A229.52 229.52 0 00161 13h-3zM348 78c6.598-.026 13.196-.043 19.794-.055 2.239-.005 4.478-.012 6.717-.02 35.927-.137 35.927-.137 47.364 6.825 5.459 5.78 7.223 12.4 7.125 20.25-.726 7.822-4.079 13.661-9.187 19.5C418 126 418 126 416 126c4.29 8.78 8.655 17.395 13.75 25.742C431 154 431 154 431 156h-23l-2-5.215c-4.643-12.035-4.643-12.035-13.971-20.02-7.309-1.313-13.446-.443-21.029.235v25h-21l-.06-6.179c-.067-6.737-.145-13.475-.228-20.212-.05-4.085-.096-8.17-.134-12.255a2903.2 2903.2 0 00-.136-11.826 984.589 984.589 0 01-.045-4.512 888.106 888.106 0 00-.078-6.32l-.04-3.633c-.27-2.972-.9-4.492-2.279-7.063.375-3.25.375-3.25 1-6zm23 16v22c4.343.092 8.682.172 13.025.22 1.476.02 2.953.047 4.429.082 2.125.048 4.249.071 6.374.089l3.872.063c3.357-.184 3.357-.184 5.686-2.29 2.819-3.778 3.003-7.379 2.973-11.937-.575-3.564-2.58-5.11-5.359-7.227-2.87-1.435-5.335-1.112-8.54-1.098l-3.944.01-4.141.025c-1.388.006-2.776.01-4.164.014-3.404.012-6.807.03-10.211.049zM540.625 77.5l2.7-.164c3.677-.076 6.518-.11 9.639 1.977 1.832 1.802 3.433 3.68 5.036 5.687a929.232 929.232 0 003.477 3.945l1.75 2.029c2.96 3.384 6.059 6.635 9.148 9.901 8.643 9.19 8.643 9.19 12.688 13.625l1.91 2.094c2.822 3.35 5.398 6.901 8.027 10.406l1-49h18v78c-18 0-18 0-22.188-3a79.235 79.235 0 01-2.812-4 167.087 167.087 0 00-3.063-3.5l-1.722-2c-3.007-3.394-6.112-6.693-9.215-10-7.726-8.25-14.92-16.65-22-25.5l-1 48h-19l-.06-6.087c-.067-6.638-.145-13.275-.228-19.913-.05-4.024-.096-8.048-.134-12.073a2818.88 2818.88 0 00-.136-11.651 955.867 955.867 0 01-.045-4.445 862.342 862.342 0 00-.078-6.227l-.04-3.58c-.272-2.946-.87-4.487-2.279-7.024-.187-3.188-.187-3.188 0-6 2.31-2.31 7.53-1.421 10.625-1.5zM659 78h27c7.675 16.699 15.135 33.465 22.188 50.438l.973 2.339c.921 2.218 1.84 4.437 2.757 6.657l.813 1.963A605.83 605.83 0 01715 145l.858 2.143c1.2 3.082 2.142 5.52 2.142 8.857h-21c-4-9.625-4-9.625-4-13h-41l-3 10-1 3h-22c9.666-26.582 21.161-52.333 33-78zm13 17c-3.686 7.688-7.26 15.398-10.438 23.313l-.783 1.937c-1.346 3.275-1.346 3.275-1.779 6.75h27c-2.52-7.581-2.52-7.581-5.48-14.91l-1.338-3.057-1.37-3.096-1.404-3.2c-1.132-2.581-2.268-5.16-3.408-7.737h-1zM449 78h66v16h-45v15h41v15h-41v17h46v15h-67V78zM724 78h24l.043 11.637c.03 3.72.07 7.44.11 11.16.023 2.585.037 5.17.043 7.755.009 3.716.05 7.431.097 11.147l-.012 3.501c.05 6.463.05 6.463 3.12 11.988 5.356 3.734 9.677 4.152 16.037 4.124l2.236.05c4.89.004 7.997-.888 12.326-3.362h2c2.22-6.288 2.343-12.21 2.414-18.84l.059-3.4c.06-3.566.106-7.132.152-10.697.038-2.426.077-4.85.117-7.276.096-5.929.18-11.858.258-17.787h20c.09 7.276.164 14.552.207 21.83.021 3.38.05 6.758.095 10.138.049 3.895.071 7.79.089 11.684l.062 3.638c.003 8.82-1.786 14.631-6.578 21.96-9.183 8.784-21.016 10.133-33.188 10.063l-3.078-.018c-11.217-.181-21.797-1.766-30.609-9.295-4.476-5.77-7.084-11.204-7.174-18.521l-.04-2.69-.032-2.883-.1-6.058c-.047-3.18-.092-6.36-.13-9.54-.04-3.072-.092-6.143-.145-9.214l-.026-2.882-.05-2.69-.031-2.36c-.14-2.193-.14-2.193-1.29-4.007C724 85 724 85 724 78zM880 78h80v16h-29v62h-21V94h-30V78zM828 78h20c.893 21.028 1.087 41.95 1 63h43v15h-64V78zM772 194c4.471-.605 8.545-.811 13 0 3.367 2.717 5.003 6.212 7 10 1.21 2.034 2.446 4.05 3.683 6.068 1.805 2.959 3.56 5.945 5.317 8.932a520.312 520.312 0 002.938-4.063l1.949-2.714a73.383 73.383 0 004.195-7.227l1.092-2.064a86.947 86.947 0 002.013-4.104c1.016-1.898 1.016-1.898 3.813-4.828h11v51h-11l-1-30c-2.923 5.245-2.923 5.245-5.771 10.531-1.756 2.974-3.063 5.034-6.372 6.268-2.656.265-4.35.13-6.857-.799-2.677-2.483-4.302-5.326-6.063-8.5L786 214l-1 31h-10l-.044-4.007c-.058-4.894-.135-9.788-.218-14.682-.034-2.12-.062-4.24-.084-6.361-.034-3.044-.086-6.087-.142-9.13l-.02-2.885-.06-2.669-.033-2.355c-.251-2.319-.251-2.319-3.399-3.911l1-5zM615 194h40v9h-26v12h20v8h-20v13h26v9h-37c-1.125-7.875-1.125-7.875-1.114-11.283v-2.304l.016-2.41.005-2.525c.005-2.639.018-5.277.03-7.916.006-1.798.01-3.597.014-5.396.011-4.389.028-8.777.049-13.166l-3-1 1-5zM706 194h13c5.298 11.686 10.01 23.446 14.063 35.625l1.193 3.573C737 241.594 737 241.594 737 245h-11l-3-12-21 1-3 10c-1 1-1 1-3.504 1.098l-3.058-.036-3.067-.027L687 245c4.9-17.636 10.917-34.563 19-51zm6 11c-1.173 2.768-2.339 5.54-3.5 8.313l-1.012 2.38-.957 2.295-.888 2.11c-.803 2.041-.803 2.041-.643 4.902h15a177.207 177.207 0 00-7-20h-1zM347 194h40v9h-26v14h21v8h-21v20h-11l-1-44-2-1v-6zM538 194h44v9h-16v42h-11v-42h-17v-9zM447 194v51h-11l-1-40-10 4h-2v-9a265.438 265.438 0 015.813-3l3.269-1.688C436 194 436 194 447 194zM457.375 193.469l2.625.031 2.625-.031c2.375.531 2.375.531 4.16 2.344 1.793 3.228 1.668 5.561 1.215 9.187-1.438 2.438-1.438 2.438-4 4-3.104.544-5.898.57-9 0-2.063-1.563-2.063-1.563-3-4-.385-3.593-.56-5.989 1.21-9.188C455 194 455 194 457.376 193.47zM457 196v1h6v-1h-6zm-2 2c-.68 2.397-.68 2.397-1 5l2 2v-7h-1zm9 0l-1 6 2 1v-7h-1zm-5 1v2h2v-2h-2zm0 4v3l-2 1h6l-2-1-1-3h-1z" 
        fill="currentColor"/>
</svg>