<svg height="668" viewBox="-3.167 -.715 223.58 60.444" width="2500" xmlns="http://www.w3.org/2000/svg">
    <g fill-rule="evenodd">
        <g fill="currentColor">
            <path
                d="M34.737 22.439H24.423l3.427-8.666h32.087l-3.426 8.666H46.197l-8.493 23.71h-11.46zm118.227 18.23c-.827 1.437-3.472 6.732-13.586 6.732-8.307 0-10.942-4.227-10.08-9.4 1.631-9.768 10.384-12.97 16.208-12.97 5.192 0 11.03 2.627 9.913 9.317-.192 1.15-.442 2.381-1.068 3.695h-16.705c-.378 2.257.165 4.145 2.963 4.145 1.943 0 3.202-.78 3.777-1.519zm-5.898-6.854a4.19 4.19 0 00.206-.698c.267-1.6-.649-2.873-2.906-2.873-2.394 0-4.194 1.313-5.248 3.57zm20.698-20.76h10.314l-13.354 33.812h-10.313zm14.973 0h10.312l-13.355 33.812h-10.312zm-57.571 12.289c-2.62-1.568-5.882-.916-8.092 1.325-.976.613-1.89 1.37-2.627 2.22h-.091l1.323-3.324h-8.67l-8.387 21.302h8.94l3.52-8.907c1.012-2.538 2.153-4.087 3.632-4.973.153 2.303 1.274 4.428 3.23 5.598 3.23 1.933 7.464.535 9.458-3.121 1.995-3.656.994-8.187-2.236-10.12m-27.268 0c-2.619-1.568-5.88-.916-8.09 1.325-.976.613-1.89 1.37-2.628 2.22h-.09l1.323-3.324h-8.67l-8.387 21.302h8.94l3.518-8.907c1.014-2.538 2.155-4.087 3.634-4.973.152 2.303 1.274 4.428 3.229 5.598 3.23 1.933 7.465.535 9.46-3.121 1.993-3.656.991-8.187-2.239-10.12" />
            <path
                d="M68.419 25.565L60.282 38.33h-.09l-2.274-12.765h-9.03l3.755 19.578c-.113.673-.344 1.118-.659 1.434-2.283-2.306-5.688-3.102-8.422-1.692-3.345 1.727-4.39 6.061-2.335 9.684 2.056 3.622 6.435 5.16 9.78 3.433.09-.046.158-.113.244-.162 3.11-1.023 7.999-7.342 9.69-9.66L77.72 25.566z" />
        </g>
    </g>
</svg>