<svg xmlns="http://www.w3.org/2000/svg" width="1583" height="595">
    <path
        d="M24.2 45.873l3.417-.009 3.781.007 3.957-.006c3.59-.004 7.181-.002 10.772 0 3.75.003 7.5 0 11.25 0 6.298-.003 12.596 0 18.894.005 7.292.005 14.584.003 21.876-.002 6.25-.005 12.5-.005 18.75-.003 3.737.002 7.474.002 11.212-.001 4.164-.004 8.328.001 12.493.007l3.78-.007 3.417.009 2.988.001C153 46 153 46 154 47c.099 1.403.13 2.812.133 4.219l.004 2.574-.012 2.707.012 2.707-.004 2.574-.004 2.377C154 66 154 66 153 67c-2.17.134-4.345.204-6.52.246l-4.037.1c-2.126.047-4.252.091-6.379.13-2.049.04-4.097.092-6.146.145l-3.726.076c-3.021.287-4.735.565-7.192 2.303-3.803 7.465-4.145 13.943-4.12 22.13l-.003 3.12c-.001 3.452.004 6.905.01 10.359l-.001 7.42c0 5.328.003 10.656.008 15.984.008 7.703.011 15.406.012 23.109.002 12.498.01 24.996.019 37.494a89672.407 89672.407 0 01.025 49.952c.01 31.144.028 62.288.05 93.432h4c11.797-24.09 11.797-24.09 23.188-48.375 7.148-15.569 14.74-30.92 22.284-46.3l1.403-2.86 1.38-2.812a2512.576 2512.576 0 0013.504-28.047c2.38-5 4.78-9.99 7.179-14.981l3.027-6.305 1.519-3.163a73652.37 73652.37 0 009.02-18.79 38643.347 38643.347 0 0010.371-21.617l1.473-3.072a6641.942 6641.942 0 019.2-19.084c1.523-3.15 3.045-6.3 4.561-9.453 2.417-5.024 4.832-10.045 7.332-15.028l1.02-2.071c.824-1.672 1.661-3.336 2.5-4.999 1.358-3.978 1.355-6.846 1.039-11.043-3.517-5.105-8.204-6.594-14-8-3.646-.41-7.27-.508-10.937-.563a589.698 589.698 0 01-5.59-.128l-2.461-.038C204 66 204 66 202 64a81.29 81.29 0 01-.25-7.438l-.023-2.064c.014-3.712.164-5.334 2.273-8.498 2.055-.372 2.055-.372 4.638-.367l2.961-.017 3.26.028 3.425-.007c3.75-.003 7.5.016 11.251.035 2.596.003 5.191.005 7.787.006 5.445.004 10.89.018 16.334.04 6.998.03 13.995.04 20.992.044 5.36.004 10.721.014 16.082.026 2.58.006 5.162.01 7.743.015 3.599.006 7.198.02 10.797.036l3.266.003 2.953.018 2.582.009C320 46 320 46 321 47c.153 2.826.232 5.61.25 8.437.03 1.185.03 1.185.063 2.393.015 2.291.015 2.291-.313 6.17-3.488 2.325-4.911 2.25-9.031 2.273l-3.649.063c-2.515.026-5.03.044-7.547.055-13.46.257-22.946 3.88-32.5 13.296-5.035 5.993-8.015 13.473-11.335 20.5-.756 1.58-1.512 3.158-2.27 4.736-5.04 10.53-9.97 21.112-14.854 31.716-4 8.673-8.134 17.274-12.314 25.861a1520.292 1520.292 0 00-13.937 29.375c-5.06 10.983-10.294 21.87-15.593 32.738-4.59 9.418-9.088 18.87-13.47 28.387-5.038 10.943-10.252 21.789-15.532 32.616a1403.412 1403.412 0 00-13.405 28.259c-5.234 11.373-10.672 22.635-16.166 33.884C134.66 357.46 130.01 367.19 125.5 377c-5.212 11.332-10.63 22.552-16.104 33.76-4.736 9.7-9.385 19.431-13.896 29.24-5.605 12.181-11.43 24.246-17.313 36.295l-2.14 4.385-1.051 2.153a1332.095 1332.095 0 00-6.418 13.362l-1.533 3.235c-.915 1.939-1.827 3.879-2.735 5.821l-1.208 2.558-1.021 2.181c-1.173 2.181-2.55 4.067-4.081 6.01l-4-1c-1.183-3.732-1.126-7.273-1.127-11.17l-.005-2.201c-.005-2.448-.002-4.895 0-7.343l-.006-5.302c-.004-3.849-.006-7.698-.005-11.547.002-6.263-.003-12.525-.01-18.787-.007-9.093-.012-18.185-.016-27.277a46008.33 46008.33 0 00-.041-43.106l-.019-14.743-.005-3.721a200112.649 200112.649 0 01-.053-45.828c-.022-20.723-.033-41.446-.04-62.169-.008-21.267-.032-42.534-.068-63.8a18302.14 18302.14 0 01-.026-39.368c.003-8.992-.008-17.983-.03-26.975-.013-5.19-.02-10.38-.008-15.57.01-4.75.002-9.5-.021-14.252-.005-1.719-.003-3.437.006-5.156C52.733 84.742 52.733 84.742 48 74c-1.883-1.88-1.883-1.88-4-2.938l-2-1.152c-5.21-2.37-10.703-2.246-16.332-2.515-5.465-.293-5.465-.293-7.668-1.395-.029-3.146-.047-6.292-.062-9.438l-.026-2.72-.01-2.588-.016-2.396c.24-3.92 3.022-2.984 6.315-2.985zM769.246 143.879c15.701-.49 31.273 3.332 42.95 14.156 8.47 8.862 10.231 17.067 10.433 29.035-1.047 13.046-7.469 25.745-12.817 37.493l-2.092 4.655c-5.264 11.693-10.648 23.331-16.033 34.97a15056.821 15056.821 0 00-9.609 20.811C770.883 307.012 770.883 307.012 768 331c1.595 4.227 3.126 6.684 7 9 9.526 1.433 17.566-.425 25.523-5.66 8.925-6.687 15.423-14.698 20.286-24.672l1.04-2.107c3.388-6.932 6.526-13.968 9.62-21.035 1.717-3.923 3.45-7.84 5.183-11.756l1.084-2.449c3.836-8.646 7.796-17.235 11.764-25.821A2413.748 2413.748 0 00866 210a2890.71 2890.71 0 0117.25-38.25l1.1-2.395c1.032-2.25 2.067-4.498 3.103-6.746l.91-1.98c.87-1.881 1.752-3.756 2.637-5.629l1.004-2.18 1.03-2.17.923-1.972C895 147 895 147 898 145c9.144-1.478 18.668-1.157 27.915-1.13 2.242.005 4.484 0 6.726-.007 1.435 0 2.87.002 4.304.004l3.891.004C944 144 944 144 947 145c1.604 3.207 1.355 6.512 1 10-.91 2.637-1.831 4.937-3.043 7.418l-.968 2.079c-1.045 2.237-2.111 4.463-3.177 6.69-.74 1.578-1.478 3.155-2.215 4.734a3361.343 3361.343 0 01-4.49 9.575c-2.908 6.195-5.7 12.44-8.482 18.691l-3.16 7.067-.82 1.834a13222.304 13222.304 0 01-12.612 28.104 5071.64 5071.64 0 01-15.46 34.043c-5.064 11.041-10.1 22.092-15.01 33.202l-1.38 3.106-1.242 2.828-1.072 2.435c-2.422 6.113-3.181 13.045-.619 19.194 2.639 3.016 4.762 3.878 8.746 4.371 17.84.344 29.899-8.251 42.55-19.988 23.73-23.05 57.517-68.312 58.766-102.445-.222-10.384-4.933-18.232-10.655-26.504-6.112-8.889-8.911-16.48-7.657-27.434 1.354-5.895 3.9-10.774 8.871-14.344 8.734-5.356 19.677-7.187 29.734-5.12 5.71 1.543 9.995 3.168 13.579 8.089 6.774 12.002 2.8 28.493-.59 40.984C1007.11 229.91 988.905 264.483 970 297l-1.285 2.23c-18.733 32.458-46.905 68.966-84.715 79.645a214.72 214.72 0 01-5 1.125l-2.938.688c-13.942 1.422-29.794.469-41.062-8.688-4.362-4.033-7.146-8.72-9.824-13.984-1.24-2.126-2.194-3.55-4.176-5.016-2.379-.621-2.379-.621-5 0-2.893 1.883-2.893 1.883-5.813 4.438-20.529 16.613-45.915 25.312-72.355 23.324-9.86-1.167-18.91-4.238-25.894-11.575-7.3-9.508-7.056-20.803-5.692-32.253 2.475-15.86 10.708-30.534 17.476-44.91 3.871-8.242 7.547-16.566 11.216-24.899 4.14-9.392 8.33-18.754 12.671-28.055l1.163-2.498c1.84-3.953 3.69-7.901 5.558-11.841 10.84-22.496 10.84-22.496 10.482-46.543-2.054-3.614-2.919-4.78-6.812-6.188-7.662-1.213-13.7.586-20 5-2.787 2.529-5.4 5.142-7.969 7.89-2.369 2.46-3.366 3.002-6.718 3.548-4.658-.616-7.155-3.08-10.313-6.438-1.412-2.824-1.244-4.863-1-8 5.57-12.081 14.728-20.257 27-25 9.946-3.257 19.826-4.56 30.246-5.121zM1191.086 157.348c3.325 2.92 6.265 5.723 8.805 9.359 2.616 2.844 4.33 3.035 8.109 3.293l.747-1.68c1.133-2.53 2.287-5.05 3.44-7.57l1.174-2.645 1.182-2.558 1.063-2.349c1.898-2.993 3.286-4.406 6.394-6.198 3.642-.574 7.237-.537 10.918-.496l3.193-.005c2.221.002 4.443.014 6.664.034 3.41.03 6.82.021 10.23.008 2.16.006 4.317.015 6.475.025l3.103-.008 2.863.038 2.525.016L1270 147c2.5 3.75 2.116 5.28 1.52 9.572-.846 3.951-2.445 7.394-4.211 11.01l-1.142 2.423a871.883 871.883 0 01-2.448 5.138c-2.197 4.575-4.35 9.171-6.512 13.763l-1.334 2.825c-4.226 8.965-8.256 18.01-12.248 27.081-4.607 10.446-9.282 20.849-14.125 31.188-5.085 10.862-10.011 21.788-14.875 32.75l-1.004 2.262c-1.59 3.586-3.176 7.173-4.757 10.763a1418.36 1418.36 0 01-3.861 8.684l-1.917 4.307-.897 1.984c-2.653 5.988-3.943 11.715-3.189 18.25 1.637 3.586 2.69 4.793 6 7 7.495.999 13.856.3 20.586-3.125 7.206-5.597 11.338-12.825 15.351-20.875l1.495-2.926c1.2-2.353 2.389-4.71 3.568-7.074 7.551.77 7.551.77 10.875 3.687l1.742 1.45c2 2.695 2.29 4.505 2.383 7.863-1.028 2.694-2.07 4.993-3.438 7.5l-1.11 2.112A527.972 527.972 0 011253 331l-1.023 1.912c-10.629 19.832-24.632 38.364-46.668 45.776-5.712 1.622-11.212 1.809-17.121 1.75l-3.196-.023c-12.522-.265-22.388-2.89-31.48-11.888-4.917-5.438-6.78-11.352-7.512-18.527l-5-1c-.715.895-1.43 1.79-2.168 2.71-11.71 14.335-25.244 26.116-44.305 28.774-21.018 1.556-41.89-3.568-58.215-17.355-16.035-14.762-22.192-32.754-23.496-54.14-1.085-46.802 21.981-93.581 53.352-127.083 30.225-31.51 85.99-54.173 124.918-24.558zm-92.77 54.804C1080.765 233.925 1067.761 259.62 1062 287l-.586 2.781c-.6 4.659-.639 9.276-.664 13.969-.03 1.408-.03 1.408-.063 2.844-.058 10.586 2.559 20.342 9.981 28.164 6.233 5.696 12.45 6.768 20.762 6.617 10.712-1.125 19.973-6.15 28.57-12.375l2.375-1.7c30.971-23.482 55.05-62.443 61.117-100.988 1.923-14.568 2.05-29.94-6.742-42.375-5.28-6.187-11.728-8.618-19.688-9.25-23.421.347-44.59 20.523-58.746 37.465z"
        fill="currentColor" />
    <path
        d="M332.512 143.836c17.084-.562 33.325 4.51 46.238 15.851 2.35 2.247 4.276 4.35 6.14 7.02 2.617 2.844 4.33 3.035 8.11 3.293l1.61-3.29 2.14-4.335 1.055-2.16C403.479 148.76 403.479 148.76 407 147c1.531-.1 3.067-.138 4.602-.145l2.892-.02 3.131-.003 3.206-.01c2.239-.005 4.478-.007 6.718-.007 3.437-.002 6.873-.02 10.31-.04 2.172-.003 4.344-.005 6.516-.005l3.131-.022 2.892.01 2.553-.005C455 147 455 147 457 149c1.21 7.298-2.466 13.286-5.5 19.75-.588 1.279-1.175 2.558-1.76 3.838a1795.98 1795.98 0 01-3.777 8.18c-2.953 6.358-5.863 12.737-8.778 19.113-1.006 2.2-2.014 4.398-3.022 6.597-5.212 11.374-10.3 22.8-15.36 34.243a1584.78 1584.78 0 01-13.553 29.842 2057.151 2057.151 0 00-12.875 28.062l-1.507 3.323c-5.872 13.031-5.872 13.031-6.868 27.052 1.637 3.586 2.69 4.793 6 7 7.495.999 13.856.3 20.586-3.125 7.206-5.597 11.338-12.825 15.351-20.875l1.495-2.926c1.2-2.353 2.389-4.71 3.568-7.074 7.575.781 7.575.781 10.875 3.625l1.742 1.414c2.216 3.143 2.413 5.085 2.383 8.961-1.418 3.915-3.363 7.486-5.375 11.125l-1.671 3.098C432.529 341.963 425.247 352.29 416 362l-1.629 1.89c-7.924 8.819-20.413 15.171-32.209 16.407-2.999.14-5.973.17-8.975.14l-3.195-.022c-12.583-.266-22.267-2.953-31.48-11.852-5.035-5.465-6.62-12.574-8.512-19.563-3.728.214-4.88.874-7.508 3.625a291.974 291.974 0 00-2.617 3.375c-10.438 12.9-23.552 22.142-40.348 24.484-20.918 1.548-42.193-3.611-58.44-17.362-15.408-13.87-21.67-31.92-23.087-52.122-1.004-48.65 21.544-94.862 54-130 21.442-22.042 49.936-35.167 80.512-37.164zM297 198l-2.578 2.328c-24.996 23.706-47.458 63.243-48.625 98.344-.205 13.376.14 25.85 9.871 36.082 6.228 5.705 12.46 6.783 20.773 6.613C294 339.556 307.877 327.842 320 316l2.734-2.512C344.726 292.736 359.622 263.065 367 234l.746-2.77c3.27-14.32 3.144-31.583-4.066-44.617-3.583-5.296-8.482-9.31-14.645-11.222-20.084-3.855-38.122 9.808-52.035 22.609zM563.156 151.535c4.118 3.373 7.036 6.861 9.68 11.465 1.838 3.158 4.012 6.049 6.164 9 6.434 0 9.407-2.692 14.215-6.746C608.399 152.966 629.41 144.776 649 144l2.492-.156c11.88-.423 25.18 1.265 34.508 9.156 7.695 8.066 9.065 17.112 9 28-1.74 17.059-9.015 32.48-16.231 47.818-1.997 4.245-3.972 8.501-5.949 12.756l-1.22 2.627c-4.825 10.402-9.463 20.886-14.092 31.376l-1.926 4.36-.932 2.111a784.37 784.37 0 01-5.763 12.702l-1.403 3.027c-.819 1.76-1.645 3.516-2.48 5.268-3.809 8.186-6.93 16.84-6.004 25.955 1.567 4.322 1.567 4.322 5 7 9.828.86 16.377-.6 24.688-5.625 4.552-4.675 7.404-10.527 10.296-16.328l1.044-2.057a185.15 185.15 0 001.993-4.075c1.482-2.939 2.384-4.658 5.463-5.99 2.942.088 4.276.691 6.703 2.325l2.043 1.328c2.749 2.208 3.705 3.972 4.204 7.445-.171 5.385-2.932 9.922-5.371 14.602l-1.516 2.956C687.424 342.314 680.137 352.403 671 362l-1.629 1.89c-10.006 11.135-24.626 16.24-39.2 17.036-14.839.5-29.495-2.753-40.944-12.617-7.119-7.381-11.148-15.505-11.602-25.747.356-13.15 5.007-24.976 10.6-36.668 1.433-2.996 2.833-6.006 4.237-9.015.736-1.578 1.473-3.154 2.212-4.73 3.987-8.514 7.783-17.11 11.576-25.711 3.7-8.382 7.404-16.758 11.281-25.06l1.656-3.546c.996-2.125 2-4.247 3.01-6.365 5.387-11.46 11.442-24.525 7.678-37.28-2.301-3.912-3.55-4.85-7.875-6.187-8.876-1.246-16.613 1.469-24.25 5.875L595 196l-1.633 1.164c-9.984 7.656-15.024 19.76-19.835 31.008-1.704 3.983-3.448 7.949-5.184 11.918l-1.084 2.486c-3.8 8.698-7.777 17.311-11.764 25.924a2517.398 2517.398 0 00-17.48 38.72c-5.929 13.41-12.014 26.744-18.174 40.05l-1.012 2.19c-.657 1.42-1.315 2.839-1.974 4.257a286.847 286.847 0 00-4.735 10.773l-.923 2.207a242.563 242.563 0 00-1.678 4.14c-1.776 4.258-3.541 6.793-7.524 9.163-2.966.6-2.966.6-6.273.734l-3.742.166-3.985.1-2.025.058c-4.161.116-8.32.17-12.483.182-2.15.01-4.3.041-6.449.072-1.382.007-2.763.012-4.145.016l-3.729.028C456 381 456 381 453.506 380.042c-1.807-2.45-1.698-3.233-1.473-6.205.772-4.775 2.389-8.88 4.44-13.235l1.074-2.364a1177.98 1177.98 0 013.515-7.613c.819-1.786 1.636-3.573 2.452-5.36 1.672-3.655 3.35-7.306 5.035-10.954 2.261-4.896 4.508-9.8 6.748-14.706l2.028-4.442.996-2.18c.996-2.18 1.994-4.36 2.992-6.538 5.406-11.8 10.724-23.638 16.02-35.488 2.353-5.262 4.72-10.518 7.089-15.773 10.135-22.47 10.135-22.47 20.14-44.997l1.355-3.069 1.212-2.763 1.033-2.354c2.219-5.3 2.603-10.316 1.838-16.001-2.202-2.897-3.786-4.393-7-6-14.384-.935-24.78 1.338-35.988 10.652-2.948 1.975-5.22 1.943-8.692 1.84-5.254-1.114-8.463-5.207-11.32-9.492-.437-2.875-.437-2.875 0-6 1.628-2.117 2.928-3.39 5-5l1.89-1.48c23.53-17.318 61.219-38.953 89.266-18.985zM1522.424 57.839l2.7-.03 2.907-.012 2.993-.017c2.088-.01 4.176-.016 6.264-.02 3.2-.01 6.399-.041 9.599-.073 2.027-.006 4.054-.011 6.082-.015l2.907-.038 2.7.01 2.375-.011c2.607.467 3.484 1.258 5.049 3.367.617 5.391-.626 9.332-2.937 14.11l-.944 2.033c-1.028 2.208-2.073 4.407-3.119 6.607-.73 1.563-1.46 3.127-2.187 4.692a3150.57 3150.57 0 01-4.555 9.736c-3.135 6.682-6.207 13.39-9.273 20.104-.995 2.177-1.991 4.353-2.988 6.529-4.682 10.237-9.26 20.518-13.81 30.814-5.763 13.042-11.675 26.008-17.687 38.937l-1.214 2.612-4.812 10.345a4526.962 4526.962 0 00-12.641 27.435c-5.79 12.667-11.45 25.391-17.082 38.13a1491.503 1491.503 0 01-14.211 31.153l-1.38 2.95-1.199 2.543c-2.983 7.045-3.178 15.62-.773 22.832 2.455 3.302 5.132 5.598 8.812 7.438 6.956.07 12.582-1.76 17.656-6.57 5.09-5.537 8.1-11.477 11.157-18.305.94-2.062 1.884-4.122 2.832-6.18l1.23-2.734C1498 304 1498 304 1500 302c6.101.117 8.804 1.904 13 6 1.517 3.034 1.524 5.72 1 9-1.38 3.714-3.165 7.18-5 10.687l-1.523 2.964C1501.562 342 1494.86 351.715 1486 361l-1.855 2.117c-10.832 11.871-25.482 17.135-41.211 17.88-14.65.014-28.513-3.068-39.778-12.833-7.123-7.149-11.068-15.673-11.593-25.789.442-10.99 4.154-21.17 8.515-31.129l1.195-2.756c3.858-8.866 7.833-17.68 11.84-26.48 2.08-4.57 4.153-9.144 6.227-13.717l1.232-2.717a3230.086 3230.086 0 0011.223-25.095 5365.349 5365.349 0 0110.393-23.294l3.261-7.269c.28-.625.56-1.25.85-1.893 3.74-8.338 7.47-16.682 11.201-25.025a39807.93 39807.93 0 0116.547-36.95 32249.061 32249.061 0 0015.625-34.905 6131608.572 6131608.572 0 003.213-7.18c2.017-4.51 4.033-9.019 6.047-13.528 1.2-2.687 2.401-5.372 3.603-8.058l2.444-5.473 1.482-3.312 1.275-2.854c4.353-9.435 4.353-9.435 7.264-11.74 2.795-.932 4.531-1.136 7.424-1.161zM1393.424 57.855l2.7-.02 2.907-.003 2.993-.01c2.088-.005 4.176-.007 6.264-.007 3.2-.002 6.399-.02 9.599-.04 2.027-.003 4.054-.005 6.082-.005l2.907-.022 2.7.01 2.375-.005C1434 58 1434 58 1437 60c1.249 7.814-2.219 13.872-5.5 20.812-.588 1.274-1.175 2.548-1.76 3.822a1682.12 1682.12 0 01-3.777 8.145c-1.965 4.216-3.9 8.445-5.826 12.678l-1.961 4.305-.99 2.173c-1.69 3.705-3.385 7.406-5.08 11.108l-1.03 2.245c-2.027 4.427-4.058 8.852-6.09 13.276-1.663 3.624-3.325 7.248-4.986 10.873l-1.002 2.188c-5.02 10.963-9.937 21.97-14.81 33-5.782 13.085-11.717 26.092-17.75 39.062l-1.22 2.622-1.215 2.612c-10.11 21.739-20.02 43.566-29.792 65.459l-2.157 4.824c-.998 2.229-1.992 4.46-2.984 6.69l-.9 2.006c-3.183 7.189-4.856 14.754-2.416 22.49 1.74 3.687 3.458 6.821 7.246 8.61 6.192 1.445 10.381.985 16-2 7.282-4.806 10.707-12.017 14.168-19.84l1.167-2.599a225.94 225.94 0 002.242-5.224c1.008-2.275 1.97-4.317 3.423-6.337 3.082-1.168 3.082-1.168 6-1 3.188 1.75 3.188 1.75 6 4l1.875 1.25c1.928 2.998 1.529 6.333 1.125 9.75-.951 3.116-2.3 5.963-3.75 8.875l-1.21 2.479c-11.063 22.013-26.112 42.02-50.04 50.646-15.803 4.297-33.283 2.077-47.812-5.25-9.653-5.852-16.01-14.444-18.883-25.402-2.52-17.822 6.584-34.668 13.695-50.348l.899-1.984a3823.43 3823.43 0 018.837-19.346 2478.081 2478.081 0 0014.452-32.045l1.014-2.289c1.327-2.995 2.655-5.991 3.981-8.987a4697.98 4697.98 0 019.255-20.724 553562.251 553562.251 0 003.963-8.83c3.707-8.262 7.402-16.529 11.099-24.795 5.51-12.32 11.025-24.636 16.547-36.95a28119.85 28119.85 0 0011.253-25.132c1.457-3.258 2.915-6.515 4.375-9.771 3.093-6.905 6.183-13.811 9.231-20.736 1.188-2.697 2.38-5.392 3.574-8.087.809-1.833 1.61-3.67 2.41-5.506l1.473-3.322 1.26-2.87c3.205-6.112 5.842-8.737 12.8-8.771zM1457.625 438c8.958 5.105 14.663 11.954 17.957 21.727 2.073 11.276.953 21.911-5.055 31.664-4.152 5.93-9.068 9.442-15.527 12.609l-2.277 1.125c-9.01 2.895-19.987 2.13-28.41-2.125-8.911-5.12-14.611-11.986-17.895-21.727-2.073-11.276-.953-21.911 5.055-31.664 10.16-14.507 30.295-19.574 46.152-11.609zm-36.574 11.86c-7.198 7.786-8.7 13.85-8.461 24.41.867 7.887 4.673 13.938 10.46 19.261 6.193 4.666 13.44 7.012 21.169 6.25 9.587-1.707 16.11-7.055 21.781-14.781 4.226-6.68 3.845-14.312 3-22-2.298-7.71-7.23-14.18-14.168-18.281-12.1-5.832-23.963-4.225-33.781 5.14z"
        fill="currentColor" />
    <path
        d="M1428 453l9.25-.25 2.896-.11c6.258-.082 6.258-.082 9.4 2.25 2.702 3.921 3.118 7.42 2.454 12.11-1.813 3-1.813 3-4 5h-3l1.46 2.195 1.915 2.93 1.898 2.883c1.704 2.952 2.769 5.73 3.727 8.992h-6l-1.426-2.773c-.628-1.201-1.257-2.402-1.887-3.602l-.935-1.828c-1.678-3.18-2.7-4.762-5.752-6.797l-6-1v16h-4v-36zm4 4v12l5.25.188 2.953.105c3.218-.337 4.528-1.018 6.797-3.293.667-3 .667-3 0-6-2.27-2.275-3.579-2.956-6.797-3.293l-2.953.106-5.25.187z"
        fill="currentColor" />
</svg>